<mxfile host="app.diagrams.net" modified="2022-11-06T02:07:19.972Z" agent="5.0 (Windows NT 10.0; Win64; x64) AppleWebKit/537.36 (KHTML, like Gecko) Chrome/107.0.0.0 Safari/537.36" etag="82r7PCQ9vR5CL6_VQAxG" version="20.5.1" type="github">
  <diagram id="2UHYjlr3IB_9Z2jb9_0N" name="Page-1">
    <mxGraphModel dx="942" dy="549" grid="1" gridSize="10" guides="1" tooltips="1" connect="1" arrows="1" fold="1" page="1" pageScale="1" pageWidth="827" pageHeight="1169" math="0" shadow="0">
      <root>
        <mxCell id="0" />
        <mxCell id="1" parent="0" />
        <mxCell id="PMXdnqWy6KDKmBKf0Zv8-1" value="" style="shape=image;imageAspect=0;aspect=fixed;verticalLabelPosition=bottom;verticalAlign=top;image=data:image/png,/9j/4AAQSkZJRgABAQEBLAEsAAD/7RWYUGhvdG9zaG9wIDMuMAA4QklNBAQAAAAAAFYcAgAAAgAAHAJQAAUxNzY5MBwCBQBATWljcm9zb2Z0IFdvcmQgVmlld2VyIC0gQSBDTk4tTFNUTSBCYXNlZCBNb2RlbCB0byBGb3JlY2FzdCBTdG9jazhCSU0EJQAAAAAAEL8pcD5d3jjh0HYa1uRrFOk4QklNBDoAAAAAAOUAAAAQAAAAAQAAAAAAC3ByaW50T3V0cHV0AAAABQAAAABQc3RTYm9vbAEAAAAASW50ZWVudW0AAAAASW50ZQAAAABDbHJtAAAAD3ByaW50U2l4dGVlbkJpdGJvb2wAAAAAC3ByaW50ZXJOYW1lVEVYVAAAAAEAAAAAAA9wcmludFByb29mU2V0dXBPYmpjAAAADABQAHIAbwBvAGYAIABTAGUAdAB1AHAAAAAAAApwcm9vZlNldHVwAAAAAQAAAABCbHRuZW51bQAAAAxidWlsdGluUHJvb2YAAAAJcHJvb2ZDTVlLADhCSU0EOwAAAAACLQAAABAAAAABAAAAAAAScHJpbnRPdXRwdXRPcHRpb25zAAAAFwAAAABDcHRuYm9vbAAAAAAAQ2xicmJvb2wAAAAAAFJnc01ib29sAAAAAABDcm5DYm9vbAAAAAAAQ250Q2Jvb2wAAAAAAExibHNib29sAAAAAABOZ3R2Ym9vbAAAAAAARW1sRGJvb2wAAAAAAEludHJib29sAAAAAABCY2tnT2JqYwAAAAEAAAAAAABSR0JDAAAAAwAAAABSZCAgZG91YkBv4AAAAAAAAAAAAEdybiBkb3ViQG/gAAAAAAAAAAAAQmwgIGRvdWJAb+AAAAAAAAAAAABCcmRUVW50RiNSbHQAAAAAAAAAAAAAAABCbGQgVW50RiNSbHQAAAAAAAAAAAAAAABSc2x0VW50RiNQeGxAcsAAAAAAAAAAAAp2ZWN0b3JEYXRhYm9vbAEAAAAAUGdQc2VudW0AAAAAUGdQcwAAAABQZ1BDAAAAAExlZnRVbnRGI1JsdAAAAAAAAAAAAAAAAFRvcCBVbnRGI1JsdAAAAAAAAAAAAAAAAFNjbCBVbnRGI1ByY0BZAAAAAAAAAAAAEGNyb3BXaGVuUHJpbnRpbmdib29sAAAAAA5jcm9wUmVjdEJvdHRvbWxvbmcAAAAAAAAADGNyb3BSZWN0TGVmdGxvbmcAAAAAAAAADWNyb3BSZWN0UmlnaHRsb25nAAAAAAAAAAtjcm9wUmVjdFRvcGxvbmcAAAAAADhCSU0D7QAAAAAAEAEsAAAAAQABASwAAAABAAE4QklNBCYAAAAAAA4AAAAAAAAAAAAAP4AAADhCSU0EDQAAAAAABAAAAB44QklNBBkAAAAAAAQAAAAeOEJJTQPzAAAAAAAJAAAAAAAAAAABADhCSU0nEAAAAAAACgABAAAAAAAAAAE4QklNA/UAAAAAAEgAL2ZmAAEAbGZmAAYAAAAAAAEAL2ZmAAEAoZmaAAYAAAAAAAEAMgAAAAEAWgAAAAYAAAAAAAEANQAAAAEALQAAAAYAAAAAAAE4QklNA/gAAAAAAHAAAP////////////////////////////8D6AAAAAD/////////////////////////////A+gAAAAA/////////////////////////////wPoAAAAAP////////////////////////////8D6AAAOEJJTQQIAAAAAAAQAAAAAQAAAkAAAAJAAAAAADhCSU0EHgAAAAAABAAAAAA4QklNBBoAAAAAA28AAAAGAAAAAAAAAAAAAAOIAAACWAAAAB0AQwBPAE0AUABMAEUAWABJAFQAWQAuADYANgAyADIAOQAyADcALgBmAGkAZwAuADAAMAAzAF8AZwBzAAAAAQAAAAAAAAAAAAAAAAAAAAAAAAABAAAAAAAAAAAAAAJYAAADiAAAAAAAAAAAAAAAAAAAAAABAAAAAAAAAAAAAAAAAAAAAAAAABAAAAABAAAAAAAAbnVsbAAAAAIAAAAGYm91bmRzT2JqYwAAAAEAAAAAAABSY3QxAAAABAAAAABUb3AgbG9uZwAAAAAAAAAATGVmdGxvbmcAAAAAAAAAAEJ0b21sb25nAAADiAAAAABSZ2h0bG9uZwAAAlgAAAAGc2xpY2VzVmxMcwAAAAFPYmpjAAAAAQAAAAAABXNsaWNlAAAAEgAAAAdzbGljZUlEbG9uZwAAAAAAAAAHZ3JvdXBJRGxvbmcAAAAAAAAABm9yaWdpbmVudW0AAAAMRVNsaWNlT3JpZ2luAAAADWF1dG9HZW5lcmF0ZWQAAAAAVHlwZWVudW0AAAAKRVNsaWNlVHlwZQAAAABJbWcgAAAABmJvdW5kc09iamMAAAABAAAAAAAAUmN0MQAAAAQAAAAAVG9wIGxvbmcAAAAAAAAAAExlZnRsb25nAAAAAAAAAABCdG9tbG9uZwAAA4gAAAAAUmdodGxvbmcAAAJYAAAAA3VybFRFWFQAAAABAAAAAAAAbnVsbFRFWFQAAAABAAAAAAAATXNnZVRFWFQAAAABAAAAAAAGYWx0VGFnVEVYVAAAAAEAAAAAAA5jZWxsVGV4dElzSFRNTGJvb2wBAAAACGNlbGxUZXh0VEVYVAAAAAEAAAAAAAlob3J6QWxpZ25lbnVtAAAAD0VTbGljZUhvcnpBbGlnbgAAAAdkZWZhdWx0AAAACXZlcnRBbGlnbmVudW0AAAAPRVNsaWNlVmVydEFsaWduAAAAB2RlZmF1bHQAAAALYmdDb2xvclR5cGVlbnVtAAAAEUVTbGljZUJHQ29sb3JUeXBlAAAAAE5vbmUAAAAJdG9wT3V0c2V0bG9uZwAAAAAAAAAKbGVmdE91dHNldGxvbmcAAAAAAAAADGJvdHRvbU91dHNldGxvbmcAAAAAAAAAC3JpZ2h0T3V0c2V0bG9uZwAAAAAAOEJJTQQoAAAAAAAMAAAAAj/wAAAAAAAAOEJJTQQUAAAAAAAEAAAAAjhCSU0EDAAAAAAMNwAAAAEAAABqAAAAoAAAAUAAAMgAAAAMGwAYAAH/2P/tAAxBZG9iZV9DTQAB/+4ADkFkb2JlAGSAAAAAAf/bAIQADAgICAkIDAkJDBELCgsRFQ8MDA8VGBMTFRMTGBEMDAwMDAwRDAwMDAwMDAwMDAwMDAwMDAwMDAwMDAwMDAwMDAENCwsNDg0QDg4QFA4ODhQUDg4ODhQRDAwMDAwREQwMDAwMDBEMDAwMDAwMDAwMDAwMDAwMDAwMDAwMDAwMDAwM/8AAEQgAoABqAwEiAAIRAQMRAf/dAAQAB//EAT8AAAEFAQEBAQEBAAAAAAAAAAMAAQIEBQYHCAkKCwEAAQUBAQEBAQEAAAAAAAAAAQACAwQFBgcICQoLEAABBAEDAgQCBQcGCAUDDDMBAAIRAwQhEjEFQVFhEyJxgTIGFJGhsUIjJBVSwWIzNHKC0UMHJZJT8OHxY3M1FqKygyZEk1RkRcKjdDYX0lXiZfKzhMPTdePzRieUpIW0lcTU5PSltcXV5fVWZnaGlqa2xtbm9jdHV2d3h5ent8fX5/cRAAICAQIEBAMEBQYHBwYFNQEAAhEDITESBEFRYXEiEwUygZEUobFCI8FS0fAzJGLhcoKSQ1MVY3M08SUGFqKygwcmNcLSRJNUoxdkRVU2dGXi8rOEw9N14/NGlKSFtJXE1OT0pbXF1eX1VmZ2hpamtsbW5vYnN0dXZ3eHl6e3x//aAAwDAQACEQMRAD8A9VSSSSUpJJJJSznBrS5xgAST5BcJ0D/Gpi9Y67X0x2C7Gx8pzmYuSbA5xcJdV69AZ+i9djf8Hbd6Vn/bq7V2U0PLGsc8t5ILQNPpfzj2btv8lc10v6nfV7pXXLOqY2BZVaD+rNNzDUx72vdd9nx/V/Ru9P8Af/M/mPTSU9YkhV3h7tha5jo3AOjUfvNcxz2oqSlJJJJKUkkkkpSSSSSn/9D1VJJJJSkGzJYywVQXWOG4NEAx/bLEZUs/Eotl1zmNa9vpubaJafz/AGw+r3+3/oJKRZOIzIPvpLmkktDwxxaT7nek9tzPpbd6r/Y6T6tT8OptFXvJLGBsuH6Xc0ZXs21sq/nG/QUzg9PcwMNmMWt3Fog6btpf/wBqP5DUJmJ0119lYdjTW1sna8Ab92jSb9n5v+DSU3sav7PEUuEB2xrAxrRvd6tpDfVe5zrH+5/uVqq1tm4AFrmGHNdyDz/rtWZ9g6du3b8WfHaf/ehX8LHqopAqLS0gbdghgaPotrEu9v5300lNhJJJJSkkkklKSSSSU//R9VSSSSUpVcui2xwdWSPaWlzDte2S1+6sn2/me9Wlm5Dck32aA6gs3Me5u385v6Nr2t/6tln8561aSlfYsr/T5MSCRvr1j6P5ii8XbxjOuyg9rC4uG07mvO36ddTtrq9vs2bHqDmZQ2hrK387y6u1vf2FrWt/c/nPd/xaia7QSaaaBkO2m92y0EtBs9Nrv0bnO9m1nv8A+GSUm9K/c0m/KO1wdEAAw4P2O20N3M2t9L+p/wAJ71ZotbWHb2ua57i7a1jyBP8AYH9d38tUS3N3mK6dkmJZfMTp+Z+6rWAMje71GhrYMhoeGcj09jb/AHb9u/1dqSmx9pq8H/8Abb//ACCX2qrwf/22/wD8gjJJKRsvre/YJDoJAc1zdBE/TDf3kRBd/Sq/+Ls/LUjJKUkkkkp//9L1VJJJJS3CoftLidrS6IZBcQCGvbudLG/Rf/52rz3trY57tGtBJ76BUPWxme2DXH5nr7Y12bdos2N9/s/RpKY/tivQmxrdziwbmPHuaGOczTd/pFH9pMrL8p+RV6Vga2sBjw6W/S9znfpNzrmbfZWi+vjkTJI0/wC1E8gub/hP5Kiy39Ja538w0NDSMkkg+4v3t3D0/wDtx6SlndZx2vLHX1Aj+S89t3b+T7kfHzxc72uZYzf6bnN3NLXRI9rx70M30DkkTrrkHjT/AIT+UpV20b9+0v8ATIl3q+ps3e0Pcze7b/XSU3kkkklIXf0qv/i7Py1IyC7+lV/8XZ+WpGSUpJJJJT//0/VUkkklMXsbYxzHatcCD20PwVS/p+M5hOQ4Fuu5721g+72uO/Y3a5yuqvl1WWBhrmWE8EBwkRuZu9u/83/i32JKapxumlpb6tO1zt5G2n6Q4f8AQ+m395Qa3pr7LcY3UllYa4s21RL92p9m33em1TOPnHePVvAeZgCr2j/Rs9+5vt/64lVXmts2uuyHlha94IohwJd7efa12381JSvs3S5BNlEtiDtp0jRv5n5qPX0+mvRh2tMbmsaxgcG/Qa/02NdtQm1ZzS0m3IdBBcCKAHRy3T6O/wDkq3j1mqlrHQCJ9rfoiTOxn8hn0GJKSpJJJKQu/pVf/F2flqRkF39Kr/4uz8tSMkpSSSSSn//U9NyWPDmXC/0a6pNgIkObLf5TdqzH5trXM/ypQSDteAyYBG7hrnb3ez/g1tEAggiQdCCmNbDy0fckpy3ZO99j6+q1tYY0DGkNa9x9HXf9L3bN/wCeovy2112VP6qz1K4EtY0ubsLt7XDc/fc/bt2/+BrW2M/dH3JenXqdok86JKc5j8jMaa8bqNbnMYPUdXWCJebBva4Wez6P6Nu/2bP8J6inVZY3KdaA+x98tfQD/Nir6Dhvc2tv0/0v+k9Sr0v0ati3GaTD2A8GCOyBTfi/bciLqzZtr3NBbLRD9m6Pf7vd9NJSV2ReGktxnlwBgEsAnzLXvd/0EzMi9zAXY1jXHls1mP8AwVFbbU4w17STwAQSppKc+zKy3XOY2qxgYQAxpr3uBaHet7jY30/UPo/mfzVv/BpnX5obuFWSYIBb+g3Rtc6WabXbXNaz6TPpq8+qqyPUY18cbgD+VR+y4v8Aoa/80f3JKaAuynXiasrc0GD+hjY7Y7c7c1vu3t2bP/Rab7dkHaBTmFz2lzRtpjTxdHt5Wh9lxf8AQs/zR/cl9mxv9EzX+SP7klNWrJyPVYHsuaHECLfSgz9IV+ifU31/zv7npK+oMpprM11tYToS0AfkU0lP/9X1VJJJJSkPIYbKXsbBJHB0B/kE/wAv6KIkkpzWUZwfJLjXMhnp0yG6+zf6v0mqDaeo7TUbXOe0tcHmqrgh8tP6Xa7c/wD6hNaMra011h9sfpha2wkv7lj6xs2f29iF6eQC51dOOMlxHqOFVw3MDdtPqH0/Ud+k9V30v+CSUmOL1Bzve8uaTo3ZWwNMODX7mW2O/RuLbfY3+crWqqGMH7qvYWW7nersD217Pdsn1ms3O/m/+uf8Er6SlJJJJKUkkkkpSSSSSn//1vVUkkklKWZl5F1dr9QSJit9noggbPT9N8t3b5s9+2z3/olppJKcg5lgY0hrC4zub9riIjbt1/PQRkWCy17WMFj2gScwkDaCK/Zv/eLv9ArjszJ2seGWPbY3fNTA4Nn6NZ3O3vf+/tQ2ZWR6r7SMn3lrNhoG1obu2vboyz9Lu93856f/AAaSmH2ywujYzb3P2vurmDa+wgzoWzY0P9VrHTDQy/8AP3t+m38z/wA+KjIucKnu3Btriz07Gem8EBzt0T/IVxJSkkkklKSSSSUpJJJJT//X9VSSSSUwus9KsvA3GQA0dy4hjf8ApOVIdWqNgqLqW2OO0MdY5pJkM03U/vu2K9ZWyxhY8S0+ZB01BDh7muagWVNqYXvtfA8A0mSfbt/R/Sc9JTSdn9OlznfZZkl0WS4kTu9vo7nu9v8AbUG5mEL7C52Ia3NGyLDA2Hbbuf6fp/SexW/UBLh+kJEB+tEgk7Ru1/eCiw3G6xpZaK2hmwzRqTuc/wBv0mpKYNz8Kr9K37MzRwD/AFCJDT79p9H3N3ItfUm2lwqNVpY3e5ldu523Q6N9Nv77fzkjYG7g42gV+6z+aO0Gfe5jNz/+ijuxWvbtfY9zDoW6AEH832Na7akpMCHAEag6hOkkkpSSSSSlJJJJKf/Q9VSSSSUpQtrFrCwkt4IcOQQdzXa/ygppJKaFvSqbp9RlRcZ9wrIcNxLnFrhZ7fe51n/GfpFjdP6z9W8/q1/RcS3FfkUHd6YqdDngbbvT92z9E1rGexy6hch0X/Ft0vpH1gPWqsi23Y6x2PjuADazbu3+9vus2te7Ykp6KrprKmubV6dIsG15qZtcWjcdu4vf++9XAABA0ATpJKUkkkkpSSSSSlJJJJKf/9kAOEJJTQQhAAAAAABXAAAAAQEAAAAPAEEAZABvAGIAZQAgAFAAaABvAHQAbwBzAGgAbwBwAAAAFABBAGQAbwBiAGUAIABQAGgAbwB0AG8AcwBoAG8AcAAgADIAMAAyADAAAAABADhCSU0EBgAAAAAABwAIAAAAAQEA/+ENZUV4aWYAAE1NACoAAAAIAAgBEgADAAAAAQABAAABGgAFAAAAAQAAAG4BGwAFAAAAAQAAAHYBKAADAAAAAQACAAABMQACAAAAHwAAAH4BMgACAAAAFAAAAJ0BOwACAAAABgAAALGHaQAEAAAAAQAAALgAAADkAAABLAAAAAEAAAEsAAAAAUFkb2JlIFBob3Rvc2hvcCAyMS4wIChXaW5kb3dzKQAyMDIwOjExOjEyIDAwOjA4OjUyADE3NjkwAAAAA6ABAAMAAAAB//8AAKACAAQAAAABAAACWKADAAQAAAABAAADiAAAAAAAAAAGAQMAAwAAAAEABgAAARoABQAAAAEAAAEyARsABQAAAAEAAAE6ASgAAwAAAAEAAgAAAgEABAAAAAEAAAFCAgIABAAAAAEAAAwbAAAAAAAAAEgAAAABAAAASAAAAAH/2P/tAAxBZG9iZV9DTQAB/+4ADkFkb2JlAGSAAAAAAf/bAIQADAgICAkIDAkJDBELCgsRFQ8MDA8VGBMTFRMTGBEMDAwMDAwRDAwMDAwMDAwMDAwMDAwMDAwMDAwMDAwMDAwMDAENCwsNDg0QDg4QFA4ODhQUDg4ODhQRDAwMDAwREQwMDAwMDBEMDAwMDAwMDAwMDAwMDAwMDAwMDAwMDAwMDAwM/8AAEQgAoABqAwEiAAIRAQMRAf/dAAQAB//EAT8AAAEFAQEBAQEBAAAAAAAAAAMAAQIEBQYHCAkKCwEAAQUBAQEBAQEAAAAAAAAAAQACAwQFBgcICQoLEAABBAEDAgQCBQcGCAUDDDMBAAIRAwQhEjEFQVFhEyJxgTIGFJGhsUIjJBVSwWIzNHKC0UMHJZJT8OHxY3M1FqKygyZEk1RkRcKjdDYX0lXiZfKzhMPTdePzRieUpIW0lcTU5PSltcXV5fVWZnaGlqa2xtbm9jdHV2d3h5ent8fX5/cRAAICAQIEBAMEBQYHBwYFNQEAAhEDITESBEFRYXEiEwUygZEUobFCI8FS0fAzJGLhcoKSQ1MVY3M08SUGFqKygwcmNcLSRJNUoxdkRVU2dGXi8rOEw9N14/NGlKSFtJXE1OT0pbXF1eX1VmZ2hpamtsbW5vYnN0dXZ3eHl6e3x//aAAwDAQACEQMRAD8A9VSSSSUpJJJJSznBrS5xgAST5BcJ0D/Gpi9Y67X0x2C7Gx8pzmYuSbA5xcJdV69AZ+i9djf8Hbd6Vn/bq7V2U0PLGsc8t5ILQNPpfzj2btv8lc10v6nfV7pXXLOqY2BZVaD+rNNzDUx72vdd9nx/V/Ru9P8Af/M/mPTSU9YkhV3h7tha5jo3AOjUfvNcxz2oqSlJJJJKUkkkkpSSSSSn/9D1VJJJJSkGzJYywVQXWOG4NEAx/bLEZUs/Eotl1zmNa9vpubaJafz/AGw+r3+3/oJKRZOIzIPvpLmkktDwxxaT7nek9tzPpbd6r/Y6T6tT8OptFXvJLGBsuH6Xc0ZXs21sq/nG/QUzg9PcwMNmMWt3Fog6btpf/wBqP5DUJmJ0119lYdjTW1sna8Ab92jSb9n5v+DSU3sav7PEUuEB2xrAxrRvd6tpDfVe5zrH+5/uVqq1tm4AFrmGHNdyDz/rtWZ9g6du3b8WfHaf/ehX8LHqopAqLS0gbdghgaPotrEu9v5300lNhJJJJSkkkklKSSSSU//R9VSSSSUpVcui2xwdWSPaWlzDte2S1+6sn2/me9Wlm5Dck32aA6gs3Me5u385v6Nr2t/6tln8561aSlfYsr/T5MSCRvr1j6P5ii8XbxjOuyg9rC4uG07mvO36ddTtrq9vs2bHqDmZQ2hrK387y6u1vf2FrWt/c/nPd/xaia7QSaaaBkO2m92y0EtBs9Nrv0bnO9m1nv8A+GSUm9K/c0m/KO1wdEAAw4P2O20N3M2t9L+p/wAJ71ZotbWHb2ua57i7a1jyBP8AYH9d38tUS3N3mK6dkmJZfMTp+Z+6rWAMje71GhrYMhoeGcj09jb/AHb9u/1dqSmx9pq8H/8Abb//ACCX2qrwf/22/wD8gjJJKRsvre/YJDoJAc1zdBE/TDf3kRBd/Sq/+Ls/LUjJKUkkkkp//9L1VJJJJS3CoftLidrS6IZBcQCGvbudLG/Rf/52rz3trY57tGtBJ76BUPWxme2DXH5nr7Y12bdos2N9/s/RpKY/tivQmxrdziwbmPHuaGOczTd/pFH9pMrL8p+RV6Vga2sBjw6W/S9znfpNzrmbfZWi+vjkTJI0/wC1E8gub/hP5Kiy39Ja538w0NDSMkkg+4v3t3D0/wDtx6SlndZx2vLHX1Aj+S89t3b+T7kfHzxc72uZYzf6bnN3NLXRI9rx70M30DkkTrrkHjT/AIT+UpV20b9+0v8ATIl3q+ps3e0Pcze7b/XSU3kkkklIXf0qv/i7Py1IyC7+lV/8XZ+WpGSUpJJJJT//0/VUkkklMXsbYxzHatcCD20PwVS/p+M5hOQ4Fuu5721g+72uO/Y3a5yuqvl1WWBhrmWE8EBwkRuZu9u/83/i32JKapxumlpb6tO1zt5G2n6Q4f8AQ+m395Qa3pr7LcY3UllYa4s21RL92p9m33em1TOPnHePVvAeZgCr2j/Rs9+5vt/64lVXmts2uuyHlha94IohwJd7efa12381JSvs3S5BNlEtiDtp0jRv5n5qPX0+mvRh2tMbmsaxgcG/Qa/02NdtQm1ZzS0m3IdBBcCKAHRy3T6O/wDkq3j1mqlrHQCJ9rfoiTOxn8hn0GJKSpJJJKQu/pVf/F2flqRkF39Kr/4uz8tSMkpSSSSSn//U9NyWPDmXC/0a6pNgIkObLf5TdqzH5trXM/ypQSDteAyYBG7hrnb3ez/g1tEAggiQdCCmNbDy0fckpy3ZO99j6+q1tYY0DGkNa9x9HXf9L3bN/wCeovy2112VP6qz1K4EtY0ubsLt7XDc/fc/bt2/+BrW2M/dH3JenXqdok86JKc5j8jMaa8bqNbnMYPUdXWCJebBva4Wez6P6Nu/2bP8J6inVZY3KdaA+x98tfQD/Nir6Dhvc2tv0/0v+k9Sr0v0ati3GaTD2A8GCOyBTfi/bciLqzZtr3NBbLRD9m6Pf7vd9NJSV2ReGktxnlwBgEsAnzLXvd/0EzMi9zAXY1jXHls1mP8AwVFbbU4w17STwAQSppKc+zKy3XOY2qxgYQAxpr3uBaHet7jY30/UPo/mfzVv/BpnX5obuFWSYIBb+g3Rtc6WabXbXNaz6TPpq8+qqyPUY18cbgD+VR+y4v8Aoa/80f3JKaAuynXiasrc0GD+hjY7Y7c7c1vu3t2bP/Rab7dkHaBTmFz2lzRtpjTxdHt5Wh9lxf8AQs/zR/cl9mxv9EzX+SP7klNWrJyPVYHsuaHECLfSgz9IV+ifU31/zv7npK+oMpprM11tYToS0AfkU0lP/9X1VJJJJSkPIYbKXsbBJHB0B/kE/wAv6KIkkpzWUZwfJLjXMhnp0yG6+zf6v0mqDaeo7TUbXOe0tcHmqrgh8tP6Xa7c/wD6hNaMra011h9sfpha2wkv7lj6xs2f29iF6eQC51dOOMlxHqOFVw3MDdtPqH0/Ud+k9V30v+CSUmOL1Bzve8uaTo3ZWwNMODX7mW2O/RuLbfY3+crWqqGMH7qvYWW7nersD217Pdsn1ms3O/m/+uf8Er6SlJJJJKUkkkkpSSSSSn//1vVUkkklKWZl5F1dr9QSJit9noggbPT9N8t3b5s9+2z3/olppJKcg5lgY0hrC4zub9riIjbt1/PQRkWCy17WMFj2gScwkDaCK/Zv/eLv9ArjszJ2seGWPbY3fNTA4Nn6NZ3O3vf+/tQ2ZWR6r7SMn3lrNhoG1obu2vboyz9Lu93856f/AAaSmH2ywujYzb3P2vurmDa+wgzoWzY0P9VrHTDQy/8AP3t+m38z/wA+KjIucKnu3Btriz07Gem8EBzt0T/IVxJSkkkklKSSSSUpJJJJT//X9VSSSSUwus9KsvA3GQA0dy4hjf8ApOVIdWqNgqLqW2OO0MdY5pJkM03U/vu2K9ZWyxhY8S0+ZB01BDh7muagWVNqYXvtfA8A0mSfbt/R/Sc9JTSdn9OlznfZZkl0WS4kTu9vo7nu9v8AbUG5mEL7C52Ia3NGyLDA2Hbbuf6fp/SexW/UBLh+kJEB+tEgk7Ru1/eCiw3G6xpZaK2hmwzRqTuc/wBv0mpKYNz8Kr9K37MzRwD/AFCJDT79p9H3N3ItfUm2lwqNVpY3e5ldu523Q6N9Nv77fzkjYG7g42gV+6z+aO0Gfe5jNz/+ijuxWvbtfY9zDoW6AEH832Na7akpMCHAEag6hOkkkpSSSSSlJJJJKf/Q9VSSSSUpQtrFrCwkt4IcOQQdzXa/ygppJKaFvSqbp9RlRcZ9wrIcNxLnFrhZ7fe51n/GfpFjdP6z9W8/q1/RcS3FfkUHd6YqdDngbbvT92z9E1rGexy6hch0X/Ft0vpH1gPWqsi23Y6x2PjuADazbu3+9vus2te7Ykp6KrprKmubV6dIsG15qZtcWjcdu4vf++9XAABA0ATpJKUkkkkpSSSSSlJJJJKf/9n/4gJASUNDX1BST0ZJTEUAAQEAAAIwQURCRQIQAABtbnRyUkdCIFhZWiAHzwAGAAMAAAAAAABhY3NwQVBQTAAAAABub25lAAAAAAAAAAAAAAAAAAAAAQAA9tYAAQAAAADTLUFEQkUAAAAAAAAAAAAAAAAAAAAAAAAAAAAAAAAAAAAAAAAAAAAAAAAAAAAAAAAAAAAAAApjcHJ0AAAA/AAAADJkZXNjAAABMAAAAGt3dHB0AAABnAAAABRia3B0AAABsAAAABRyVFJDAAABxAAAAA5nVFJDAAAB1AAAAA5iVFJDAAAB5AAAAA5yWFlaAAAB9AAAABRnWFlaAAACCAAAABRiWFlaAAACHAAAABR0ZXh0AAAAAENvcHlyaWdodCAxOTk5IEFkb2JlIFN5c3RlbXMgSW5jb3Jwb3JhdGVkAAAAZGVzYwAAAAAAAAARQWRvYmUgUkdCICgxOTk4KQAAAAAAAAAAAAAAAAAAAAAAAAAAAAAAAAAAAAAAAAAAAAAAAAAAAAAAAAAAAAAAAAAAAAAAAAAAAAAAAAAAAAAAAAAAAAAAAAAAAAAAAAAAWFlaIAAAAAAAAPNRAAEAAAABFsxYWVogAAAAAAAAAAAAAAAAAAAAAGN1cnYAAAAAAAAAAQIzAABjdXJ2AAAAAAAAAAECMwAAY3VydgAAAAAAAAABAjMAAFhZWiAAAAAAAACcGAAAT6UAAAT8WFlaIAAAAAAAADSNAACgLAAAD5VYWVogAAAAAAAAJjEAABAvAAC+nP/hFtVodHRwOi8vbnMuYWRvYmUuY29tL3hhcC8xLjAvADw/eHBhY2tldCBiZWdpbj0i77u/IiBpZD0iVzVNME1wQ2VoaUh6cmVTek5UY3prYzlkIj8+IDx4OnhtcG1ldGEgeG1sbnM6eD0iYWRvYmU6bnM6bWV0YS8iIHg6eG1wdGs9IkFkb2JlIFhNUCBDb3JlIDUuNi1jMTQ4IDc5LjE2NDAzNiwgMjAxOS8wOC8xMy0wMTowNjo1NyAgICAgICAgIj4gPHJkZjpSREYgeG1sbnM6cmRmPSJodHRwOi8vd3d3LnczLm9yZy8xOTk5LzAyLzIyLXJkZi1zeW50YXgtbnMjIj4gPHJkZjpEZXNjcmlwdGlvbiByZGY6YWJvdXQ9IiIgeG1sbnM6ZGM9Imh0dHA6Ly9wdXJsLm9yZy9kYy9lbGVtZW50cy8xLjEvIiB4bWxuczp4bXA9Imh0dHA6Ly9ucy5hZG9iZS5jb20veGFwLzEuMC8iIHhtbG5zOnBkZj0iaHR0cDovL25zLmFkb2JlLmNvbS9wZGYvMS4zLyIgeG1sbnM6eG1wTU09Imh0dHA6Ly9ucy5hZG9iZS5jb20veGFwLzEuMC9tbS8iIHhtbG5zOnN0UmVmPSJodHRwOi8vbnMuYWRvYmUuY29tL3hhcC8xLjAvc1R5cGUvUmVzb3VyY2VSZWYjIiB4bWxuczpzdEV2dD0iaHR0cDovL25zLmFkb2JlLmNvbS94YXAvMS4wL3NUeXBlL1Jlc291cmNlRXZlbnQjIiB4bWxuczp4bXBUUGc9Imh0dHA6Ly9ucy5hZG9iZS5jb20veGFwLzEuMC90L3BnLyIgeG1sbnM6c3REaW09Imh0dHA6Ly9ucy5hZG9iZS5jb20veGFwLzEuMC9zVHlwZS9EaW1lbnNpb25zIyIgeG1sbnM6c3RGbnQ9Imh0dHA6Ly9ucy5hZG9iZS5jb20veGFwLzEuMC9zVHlwZS9Gb250IyIgeG1sbnM6eG1wRz0iaHR0cDovL25zLmFkb2JlLmNvbS94YXAvMS4wL2cvIiB4bWxuczpwaG90b3Nob3A9Imh0dHA6Ly9ucy5hZG9iZS5jb20vcGhvdG9zaG9wLzEuMC8iIGRjOmZvcm1hdD0iaW1hZ2UvanBlZyIgeG1wOkNyZWF0ZURhdGU9IjIwMjAtMTEtMDZUMTc6NDA6MDgrMDU6MzAiIHhtcDpDcmVhdG9yVG9vbD0iQWRvYmUgSWxsdXN0cmF0b3IgQ1M2IChXaW5kb3dzKSIgeG1wOk1vZGlmeURhdGU9IjIwMjAtMTEtMTJUMDA6MDg6NTIrMDU6MzAiIHhtcDpNZXRhZGF0YURhdGU9IjIwMjAtMTEtMTJUMDA6MDg6NTIrMDU6MzAiIHBkZjpQcm9kdWNlcj0iQWNyb2JhdCBEaXN0aWxsZXIgMTEuMCAoV2luZG93cykiIHhtcE1NOkRvY3VtZW50SUQ9ImFkb2JlOmRvY2lkOnBob3Rvc2hvcDpkYmMxYzllOC0yMzQzLWI1NGYtYjE3ZS1lMGE4NzUwNWUwZmEiIHhtcE1NOkluc3RhbmNlSUQ9InhtcC5paWQ6MDhhM2NmNDEtODBlNy05ZTQ0LTg4MDItZTg1YjU4MmQ4MjIzIiB4bXBNTTpPcmlnaW5hbERvY3VtZW50SUQ9InV1aWQ6Yzc1MmZjNjAtYmMxMS00YWVmLWE5MTQtZjBkMWQ5ZjA0M2Y3IiB4bXBUUGc6TlBhZ2VzPSIxIiB4bXBUUGc6SGFzVmlzaWJsZVRyYW5zcGFyZW5jeT0iRmFsc2UiIHhtcFRQZzpIYXNWaXNpYmxlT3ZlcnByaW50PSJGYWxzZSIgcGhvdG9zaG9wOkNvbG9yTW9kZT0iMyIgcGhvdG9zaG9wOklDQ1Byb2ZpbGU9IkFkb2JlIFJHQiAoMTk5OCkiPiA8ZGM6Y3JlYXRvcj4gPHJkZjpTZXE+IDxyZGY6bGk+MTc2OTA8L3JkZjpsaT4gPC9yZGY6U2VxPiA8L2RjOmNyZWF0b3I+IDxkYzp0aXRsZT4gPHJkZjpBbHQ+IDxyZGY6bGkgeG1sOmxhbmc9IngtZGVmYXVsdCI+TWljcm9zb2Z0IFdvcmQgVmlld2VyIC0gQSBDTk4tTFNUTSBCYXNlZCBNb2RlbCB0byBGb3JlY2FzdCBTdG9jayBQcmljZXMuZG9jeDwvcmRmOmxpPiA8L3JkZjpBbHQ+IDwvZGM6dGl0bGU+IDx4bXBNTTpEZXJpdmVkRnJvbSBzdFJlZjppbnN0YW5jZUlEPSJ4bXAuaWlkOmYyYTNmZDU5LTM1ZmQtYmM0YS1iYjdiLThmMjE3NWYzNWE1OCIgc3RSZWY6ZG9jdW1lbnRJRD0ieG1wLmRpZDpmMmEzZmQ1OS0zNWZkLWJjNGEtYmI3Yi04ZjIxNzVmMzVhNTgiIHN0UmVmOm9yaWdpbmFsRG9jdW1lbnRJRD0idXVpZDpjNzUyZmM2MC1iYzExLTRhZWYtYTkxNC1mMGQxZDlmMDQzZjciLz4gPHhtcE1NOkhpc3Rvcnk+IDxyZGY6U2VxPiA8cmRmOmxpIHN0RXZ0OmFjdGlvbj0ic2F2ZWQiIHN0RXZ0Omluc3RhbmNlSUQ9InhtcC5paWQ6RDg1OTMwNzkyNjIwRUIxMTlCMkFFODY0MDg1NDEwQTAiIHN0RXZ0OndoZW49IjIwMjAtMTEtMDZUMTc6NDA6MDkrMDU6MzAiIHN0RXZ0OnNvZnR3YXJlQWdlbnQ9IkFkb2JlIElsbHVzdHJhdG9yIENTNiAoV2luZG93cykiIHN0RXZ0OmNoYW5nZWQ9Ii8iLz4gPHJkZjpsaSBzdEV2dDphY3Rpb249ImNvbnZlcnRlZCIgc3RFdnQ6cGFyYW1ldGVycz0iZnJvbSBhcHBsaWNhdGlvbi9wb3N0c2NyaXB0IHRvIGFwcGxpY2F0aW9uL3ZuZC5hZG9iZS5pbGx1c3RyYXRvciIvPiA8cmRmOmxpIHN0RXZ0OmFjdGlvbj0iY29udmVydGVkIiBzdEV2dDpwYXJhbWV0ZXJzPSJmcm9tIGFwcGxpY2F0aW9uL3Bvc3RzY3JpcHQgdG8gYXBwbGljYXRpb24vdm5kLmFkb2JlLmlsbHVzdHJhdG9yIi8+IDxyZGY6bGkgc3RFdnQ6YWN0aW9uPSJjb252ZXJ0ZWQiIHN0RXZ0OnBhcmFtZXRlcnM9ImZyb20gYXBwbGljYXRpb24vcG9zdHNjcmlwdCB0byBpbWFnZS9lcHNmIi8+IDxyZGY6bGkgc3RFdnQ6YWN0aW9uPSJzYXZlZCIgc3RFdnQ6aW5zdGFuY2VJRD0ieG1wLmlpZDpmMmEzZmQ1OS0zNWZkLWJjNGEtYmI3Yi04ZjIxNzVmMzVhNTgiIHN0RXZ0OndoZW49IjIwMjAtMTEtMTJUMDA6MDg6NTIrMDU6MzAiIHN0RXZ0OnNvZnR3YXJlQWdlbnQ9IkFkb2JlIFBob3Rvc2hvcCAyMS4wIChXaW5kb3dzKSIgc3RFdnQ6Y2hhbmdlZD0iLyIvPiA8cmRmOmxpIHN0RXZ0OmFjdGlvbj0iY29udmVydGVkIiBzdEV2dDpwYXJhbWV0ZXJzPSJmcm9tIGFwcGxpY2F0aW9uL3Bvc3RzY3JpcHQgdG8gaW1hZ2UvanBlZyIvPiA8cmRmOmxpIHN0RXZ0OmFjdGlvbj0iZGVyaXZlZCIgc3RFdnQ6cGFyYW1ldGVycz0iY29udmVydGVkIGZyb20gaW1hZ2UvZXBzZiB0byBpbWFnZS9qcGVnIi8+IDxyZGY6bGkgc3RFdnQ6YWN0aW9uPSJzYXZlZCIgc3RFdnQ6aW5zdGFuY2VJRD0ieG1wLmlpZDowOGEzY2Y0MS04MGU3LTllNDQtODgwMi1lODViNTgyZDgyMjMiIHN0RXZ0OndoZW49IjIwMjAtMTEtMTJUMDA6MDg6NTIrMDU6MzAiIHN0RXZ0OnNvZnR3YXJlQWdlbnQ9IkFkb2JlIFBob3Rvc2hvcCAyMS4wIChXaW5kb3dzKSIgc3RFdnQ6Y2hhbmdlZD0iLyIvPiA8L3JkZjpTZXE+IDwveG1wTU06SGlzdG9yeT4gPHhtcFRQZzpNYXhQYWdlU2l6ZSBzdERpbTp3PSI3Ny43NTA0NjUiIHN0RGltOmg9IjExOS44OTUwMDciIHN0RGltOnVuaXQ9Ik1pbGxpbWV0ZXJzIi8+IDx4bXBUUGc6Rm9udHM+IDxyZGY6QmFnPiA8cmRmOmxpIHN0Rm50OmZvbnROYW1lPSJNaW5pb25Qcm8tUmVndWxhciIgc3RGbnQ6Zm9udEZhbWlseT0iTWluaW9uIFBybyIgc3RGbnQ6Zm9udEZhY2U9IlJlZ3VsYXIiIHN0Rm50OmZvbnRUeXBlPSJPcGVuIFR5cGUiIHN0Rm50OnZlcnNpb25TdHJpbmc9IlZlcnNpb24gMi4xMDg7UFMgMi4wMDA7aG90Y29udiAxLjAuNjc7bWFrZW90Zi5saWIyLjUuMzMxNjgiIHN0Rm50OmNvbXBvc2l0ZT0iRmFsc2UiIHN0Rm50OmZvbnRGaWxlTmFtZT0iTWluaW9uUHJvLVJlZ3VsYXIub3RmIi8+IDwvcmRmOkJhZz4gPC94bXBUUGc6Rm9udHM+IDx4bXBUUGc6UGxhdGVOYW1lcz4gPHJkZjpTZXE+IDxyZGY6bGk+QmxhY2s8L3JkZjpsaT4gPC9yZGY6U2VxPiA8L3htcFRQZzpQbGF0ZU5hbWVzPiA8eG1wVFBnOlN3YXRjaEdyb3Vwcz4gPHJkZjpTZXE+IDxyZGY6bGkgeG1wRzpncm91cE5hbWU9IkRlZmF1bHQgU3dhdGNoIEdyb3VwIiB4bXBHOmdyb3VwVHlwZT0iMCIvPiA8L3JkZjpTZXE+IDwveG1wVFBnOlN3YXRjaEdyb3Vwcz4gPC9yZGY6RGVzY3JpcHRpb24+IDwvcmRmOlJERj4gPC94OnhtcG1ldGE+ICAgICAgICAgICAgICAgICAgICAgICAgICAgICAgICAgICAgICAgICAgICAgICAgICAgICAgICAgICAgICAgICAgICAgICAgICAgICAgICAgICAgICAgICAgICAgICAgICAgICAgICAgICAgICAgICAgICAgICAgICAgICAgICAgICAgICAgICAgICAgICAgICAgICAgICAgICAgICAgICAgICAgICAgICAgICAgICAgICAgICAgICAgICAgICAgICAgICAgICAgICAgICAgICAgICAgICAgICAgICAgICAgICAgICAgICAgICAgICAgICAgICAgICAgICAgICAgICAgICAgICAgICAgICAgICAgICAgICAgICAgICAgICAgICAgICAgICAgICAgICAgICAgICAgICAgICAgICAgICAgICAgICAgICAgICAgICAgICAgICAgICAgICAgICAgICAgICAgICAgICAgICAgICAgICAgICAgICAgICAgICAgICAgICAgICAgICAgICAgICAgICAgICAgICAgICAgICAgICAgICAgICAgICAgICAgICAgICAgICAgICAgICAgICAgICAgICAgICAgICAgICAgICAgICAgICAgICAgICAgICAgICAgICAgICAgICAgICAgICAgICAgICAgICAgICAgICAgICAgICAgICAgICAgICAgICAgICAgICAgICAgICAgICAgICAgICAgICAgICAgICAgICAgICAgICAgICAgICAgICAgICAgICAgICAgICAgICAgICAgICAgICAgICAgICAgICAgICAgICAgICAgICAgICAgICAgICAgICAgICAgICAgICAgICAgICAgICAgICAgICAgICAgICAgICAgICAgICAgICAgICAgICAgICAgICAgICAgICAgICAgICAgICAgICAgICAgICAgICAgICAgICAgICAgICAgICAgICAgICAgICAgICAgICAgICAgICAgICAgICAgICAgICAgICAgICAgICAgICAgICAgICAgICAgICAgICAgICAgICAgICAgICAgICAgICAgICAgICAgICAgICAgICAgICAgICAgICAgICAgICAgICAgICAgICAgICAgICAgICAgICAgICAgICAgICAgICAgICAgICAgICAgICAgICAgICAgICAgICAgICAgICAgICAgICAgICAgICAgICAgICAgICAgICAgICAgICAgICAgICAgICAgICAgICAgICAgICAgICAgICAgICAgICAgICAgICAgICAgICAgICAgICAgICAgICAgICAgICAgICAgICAgICAgICAgICAgICAgICAgICAgICAgICAgICAgICAgICAgICAgICAgICAgICAgICAgICAgICAgICAgICAgICAgICAgICAgICAgICAgICAgICAgICAgICAgICAgICAgICAgICAgICAgICAgICAgICAgICAgICAgICAgICAgICAgICAgICAgICAgICAgICAgICAgICAgICAgICAgICAgICAgICAgICAgICAgICAgICAgICAgICAgICAgICAgICAgICAgICAgICAgICAgICAgICAgICAgICAgICAgICAgICAgICAgICAgICAgICAgICAgICAgICAgICAgICAgICAgICAgICAgICAgICAgICAgICAgICAgICAgICAgICAgICAgICAgICAgICAgICAgICAgICAgICAgICAgICAgICAgICAgICAgICAgICAgICAgICAgICAgICAgICAgICAgICAgICAgICAgICAgICAgICAgICAgICAgICAgICAgICAgICAgICAgICAgICAgICAgICAgICAgICAgICAgICAgICAgICAgICAgICAgICAgICAgICAgICAgICAgICAgICAgICAgICAgICAgICAgICAgICAgICAgICAgICAgICAgICAgICAgICAgICAgICAgICAgICAgICAgICAgICAgICAgICAgICAgICAgICAgICAgICAgICAgICAgICAgICAgICAgICAgICAgICAgICAgICAgICAgICAgICAgICAgICAgICAgICAgICAgICAgICAgICAgICAgICAgICAgICAgICAgICAgICAgICAgICAgICAgICAgICAgICAgICAgICAgICAgICAgICAgICAgICAgICAgICAgICAgICAgICAgICAgICAgICAgICAgICAgICAgICAgICAgICAgICAgICAgICAgICAgICAgICAgICAgICAgICAgICAgICAgICAgICAgICAgICAgICAgICAgICAgICAgICAgICAgICAgICAgICAgICAgICAgICAgICAgICAgICAgICAgICAgICAgICAgICAgICAgICAgICAgICAgICAgICAgICAgICAgICAgICAgICAgICAgICAgICAgICAgICAgICAgICAgICAgICAgICAgICAgICAgICAgICAgICAgICAgICAgICAgICAgICAgICAgICAgICAgICAgICAgICAgICAgICAgICAgICAgICAgICAgICAgICAgICAgICAgICAgICAgICAgICAgICAgICAgICAgICAgICAgICAgICAgICAgICAgICAgICAgICAgICAgICAgICAgICAgICAgICAgICAgICAgICAgICAgICAgICAgICAgICAgICAgICAgICAgICAgICAgICAgICAgPD94cGFja2V0IGVuZD0idyI/Pv/bAEMABQMEBAQDBQQEBAUFBQYHDAgHBwcHDwsLCQwRDxISEQ8RERMWHBcTFBoVEREYIRgaHR0fHx8TFyIkIh4kHB4fHv/bAEMBBQUFBwYHDggIDh4UERQeHh4eHh4eHh4eHh4eHh4eHh4eHh4eHh4eHh4eHh4eHh4eHh4eHh4eHh4eHh4eHh4eHv/AABEIA4gCWAMBEQACEQEDEQH/xAAdAAEAAgMBAQEBAAAAAAAAAAAABQYDBAcCAQgJ/8QAWhAAAQQBAgMCCQYKBwYEBAMJAQACAwQFBhEHEiETMRQWFyJBUVeV0xUyVmGU0gg3QlJUVXGBk9EjM1N1kbTUJGJ2gpKhJUNylqKxs8E0NnM1OERjZHSDsuH/xAAWAQEBAQAAAAAAAAAAAAAAAAAAAQL/xAAWEQEBAQAAAAAAAAAAAAAAAAAAEQH/2gAMAwEAAhEDEQA/AP2WgICAgICAgICAgICAgICAgICAgICAgICAgICAgICAgICAgICAgICAgICAgICAgICAgICAgICAgICAgICAgICAgICAgICAgICAgICAgICAgICAgICAgICAgICAgICAgICAgICAgICAgICAgICAgICAgICAgICAgICAgICAgICAgICAgICAgICAgICAgICAgICAgICAgICAgICAgICAgICAgICAgICAgICAgICAgICAgICAgIKdxB4naG0G3l1NqCtUsFvM2q3eSdw9YY3c7fWdgg5i/wDC04Xi32ApakdH/binHyf4GXm/7JR0jh7xX0Drxwh05qCvNb2JNSYGKfb6mO2J/aNwgu6AgICAgICAgICAgICAgICAgICAgICAgICAgICAgICAgICAgICAgICAgICAgICAgICAgICAgICAgICAgICAgICAgICAgICAg4h+Fbxhk4cafhw+CkZ4yZNhMTyA7wWHuMpHpcTuGg9NwT6NiH4NyN25kr01/IWprdqd5fLNM8ve9x9JJ6krI10GWpZsVLMdqpPLXnicHxyxPLXMcO4gjqCqP3P+CVxnn19jJdM6kma7UWPiD2TnYG5CNhzEfntJAPr3B9ao76gICAgICAgICAgICAgICAgICAgICAgICAgICAgICAgICAgICAgICAgICAgICAgICAgICAgICAgICAgICAgICAgICAgICAg/m5+EpqCfUfG3U1uWRzo61x1KEH8hkJ7PYfvaT+0lQc5UBAQXXgXn7GmuLumMrA9zdshFDKAduaOQ9m8f9Lirg/poqCAgICAgICAgICAgICAgICAgICAgICAgICAgICAgICAgICAgICAgICAgICAgICAgICAgICAgICAgICAgICAgICAgICAgIP5nce8VPhuM+raVlpDjlJp27jbdsrjI0/4PCmijqAgILPwoxc+a4m6axddhe+fJ1wQPQ0PBcf3NBP7lR/UJUEBAQEBAQEBAQEBAQEBAQEBAQEBAQEBAQEBAQEBAQEBAQEBAQEBAQEBAQEBAQEBAQEBAQEBAQEBAQEBAQEBAQEBAQEBAQfmP8NThJdz9ePiBp2q6xdpw9lkq8bd3yQt3LZWgd5b1BH5u35qD8ZLIICD9efgUcJbtCbyj6hqOgdJCWYiGRuzuVw2dOR6Nx0b6wSe4hXB+rVQQEBAQEBAQEBAQEBAQEBAQEBAQEBAQEBAQEBAQEBAQEBAQEBAQEBAQEBAQEBAQEBAQEBAQEBAQEBAQEBAQEBAQEBAQEBAQcU4o/g2aC1ndlydIT6eyUpLpJaTQYpHH0uiPTff80t39KDiNn8FXIRa+qaXGsqrm2cfPfFg0XAtZFJFGW8vP3ntge/0FSDsvDL8GLQmk7kOSy8k+pL8RDmeFsDa7XD0iIb7/APMXBUdzADQGtAAHcAg+oCAgICAgICAgICAgICAgICAgICAgICAgICAgICAgICAgICAgICAgICAgICAgICAgICAgICAgICAgICAgICAgICAgICAgICDWyl+li8fNkMjbhqVIG88s0zw1jG+sk9AEFQuOa/jphXNcHNOmL5BB3BHhNNBb8ZkKOUpMu423BbqvLgyaF4exxa4tOxHQ7EEfuQbKAgICAgICAgICAgICAgICAgICAgICAgICAgICAgICAgICAgICAgICAgICAgICAgICAgICAgICAgICAgICAgICAgICCE1dqrC6VpxT5ay8SWH9lVrQxulsWZO/kijaC55/YOnedkEFHqbXl0drj+HRr1z1Z8p5eKGUj62Rtk5f2EoPfy1xJ+guH9/H4KB8tcSfoLh/fx+CgfLXEn6C4f38fgoMdnJ8Q7NeStZ0Bg5oZWlkkcmc5mvaRsQQYOoPqQcpm4dcV/l2CGrTx9fTENWak2gzMuFmOpLJHI+syx2e7Wc0TWg7czWEtB7iA6ljbuvsbQr4/H8PMFVqV42xQwxZzlZGwDYNAEHQAINj5a4k/QXD+/j8FA+WuJP0Fw/v4/BQPlriT9BcP7+PwUHiTUmv6Y7W5w6ZZhHVwx2ZjllA+pkjYwT9XMgm9I6sw2p4pxjppY7dVwZbo2ojDZrOPcJI3dW7+g9x9BKCdQEBAQEBAQEBAQEBAQEBAQEBAQEBAQEBAQEBAQEBAQEBAQEBAQEBAQEBAQEBAQEBAQEBAQEBAQEBAQEBAQYrliGpUmt2ZBHBBG6SR57mtaNyf8AgovCrGyZZruIubiL8vmo+emyQb+AUT1hgYPySW7PeR1LnHfoBsEq/WcTeITNE/ImTN19Q3RYHZdh2AfyF+/PzfOO222/1ILUgICAgwU7lS62R1SzDYbFI6KQxvDg17Ts5p29IPQj0IMziQ0lo3O3Qb7boKzw71W/VlPLSy4x2OlxmWsYyWIzCXmfCQC4EAdCSgsdmeGtXks2ZY4YYmF8kj3BrWNA3JJPcAPSg+wSxzwxzwvbJFI0PY9p3DgRuCPqQe0FH4p4WaOq3W2BiDNRYON00ZZ0N2uPOlqv/ADmuaDy7/NeGkencLdh8hWy2Jp5Sk/nrXIGTwu9bHtDgf8Cg2kBAQEBAQEBAQEBAQEBAQEBAQEBAQEBAQEBAQEBAQEBAQEBAQEBAQEBAQEBAQEBAQEBAQEBAQEBAQEBAQVjiwSOF+qS0kH5ItdR/+k5BMaba1mncaxjQ1rakQAHcByBBRpf/AN5mD/g+T/NtQU9x1HkdHcT70utdQx2NOZS8cY+GZkfIIYGSMa/laOdu/TlPQgn09UErcyeczGuOGMfy/k6NfUGCtWchBVlDGOe2CFwI6dDvI7r6Om2yCv6yymrdMaO4nYqvqfLWY9OmlZxWTmlDrMfbAF8D37efygg7nrs8bnuQX3O3cnFxp0pjIspeZQyWHvPs1hJ/Rl8YhDHgbdHDnd/2QaH4NmPbW0nk7It3pSc5kouSacvZ5tuTztj+Udup9PVBMzZuxmuL93RbrM1ShjcPFekbDIY5bUksjmjz27ODGBv5JG7njc9NiFJ4e2RgtI6qiGoZcawa9t1jPJGbNmyDKwdlH6TK/uDtiR1O3pQRmoLuTu8NOM2Cv3su6riIy+k25YD7EbJKokMT3gkubzE9CSdjsSgvTyzG4PSmH8Y8oxuQruPgMJdJeuHsW9I5dwYmM+cT0HUecPSG7wEy+VzHD/nzNqe1ap5K5S7acgyvZDO9jOcjoXBoAJHftugvkjQ6NzXAEEEEH0oKXwHJdwY0eSdz8kV//wDQILsgICAgICAgICAgICAgICAgICAgICAgICAgICAgICAgICAgICAgICAgICAgICAgICAgICAgICAgICAgICDUzVCDLYe7i7O/YXK8leTbv5XtLT/2KCr8IcvNb0u3BZNwZndPluNyUR6HnYNmSgfmSMDXtP8AvEd4KDefovFO1qNYGzk/lYQeDBwuP7MQ83N2fZ/N5ebr3b7+lBq1uHeAr4nP4tk2UNbUEj5ckHXXl0r3jleQe9vM0Bp5dugQULW+BqVuKHDfC05dRV8diKV6A3KjZ3Or87IRCx8waRsQxzdnE93X0IOnWtIYC3pe/pu1R7fH5FrxcEkjjJOXDznufvzF3QedvuNhttsEEZjOHOAo5bEZfwnMWshiInw1bNrJSyP7N/Lu1252cPNHQ/8AzQSGlNIYnTFzJT4l95jMhZktSV5LT3wxySO5nljCdm7u6/vKDFqfQ+Dz+eo5+wb1PLUWGKK5RtPrymIncxOLT5zCeux/dsgjHcKdInD38WyLIxxXcmMq6QZCUyQ2w7mE0bi4ljt/SO/07oNivw20vDLnXujvzjP1RVybJ70sjLADOTnILtuct6c3f06bIMZ4aYA08HC65mzYwbneA3flGTwljHNDXR9pvvyOaGgt+oenqgltF6Rw+kYLtfCi3HBctPtPimtPlax7yS7kDieUEknp3koNPinn5cHpWWHHgS5vJnwHE1wfOlsyAhp/9LBu9x9DWkoJjSeHh09pfF4Ku7mix9SKs1223NyNDd/37boJNAQEBAQEBAQEBAQEBAQEBAQEBAQEBAQEBAQEBAQEBAQEBAQEBAQEBAQEBAQEBAQEBAQEBAQEBAQEBAQEBBVdXaPGVyUOfw2Tmweoq8fZR3oWB7ZY99+ynjPSWPfrt0IJJaR1QaMWT4oUx2NvSmnsq5vdZqZd9dr/ANsckTi3/qcgyfLvET2fY7/3C34KB8u8RPZ9jv8A3CPgoHy7xF9n2O/9wj4KB8u8RfZ9jv8A3C34KCNl1vrePU1fTzuH9Pw6xTlus2zzeTs43xsduex795W7Db1+pBJfLvEX2fY7/wBwt+CgfLvET2fY7/3A34KB8u8RfZ9jv/cLfgoHy7xF9n2O/wDcLfgoPEuV4nWR2NXR+Ax7z/8AxFvNPmYz/kZCC7/qCDa0ro59HMu1JqLKPzuonxGJtp8QjhqxnvjrxAkRtOw3JJc7YbuPQILagICAgICAgICAgICAgICAgICAgICAgICAgICAgICAgICAgICAgICAgICAgICAgICAgICAgICAgICAgICAgICAgICAg0s7ffi8PbyLKNu+6vEZPBqrQ6WXb0MBIBP1b9UHPJtVafn4kYbVrcpXbhPFHIWHW3nlaxgs1N+bfqCD0LT1B6bboL/prKjOYKplmUrlJlpnaMhtx8koaT5pc3c8u42Ox6jfqAeiCRQEBAQEBAQEBAQEBAQEBAQEBAQEBAQEBAQEBAQEBAQEBAQEBAQEBAQEBAQEBAQEBAQEBAQEBAQEBAQEBAQEEJrLU+O0tjGW7zZ55p5RBTp1mc89uYglscbfSehPoAAJJABKCv1qvE3OAWrmWxmkoHdWUqtYXbDR6OeZ5EfN6w1hH1nvQZ/FfWntNyPumn8NA8V9ae03I+6afw0DxX1p7Tcj7pp/DQPFfWntNyPumn8NA8V9ae03I+6afw0DxX1p7Tcj7pp/DQPFfWntNyPumn8NA8V9ae03I+6afw0DxX1p7Tcj7pp/DQUq1wFbZ1Y3U02uMobgmM5iFKuK7pSWkvMPLyElzGOO46ua13eEF18V9ae03I+6afw0DxX1p7Tcj7pp/DQPFfWntNyPumn8NA8V9ae03I+6afw0DxX1p7Tcj7pp/DQPFfWntNyPumn8NA8V9ae03I+6afw0DxX1p7Tcj7pp/DQPFfWntNyPumn8NBhnocTMOPCaGfxWqI29X079MU5Xj/cmiPKHermj2+sd6Cc0XqmjqilPJBDYpXacvYX6FpnJPUl235Xju2I6hwJa4EEEoJ5AQEBAQEBAQEBAQEBAQEBAQEBAQEBAQEBAQEBAQEBAQEBAQEBAQEBAQEBAQEBAQEBAQEBBzzBV7GouIepNSc8QfhXfI2H7eMvjhdyMksS8oIJLnPazcEHaPb0lBi4caj11q/h7U1NG/TkVuyZQ2oaszWeZI5m3adoSN+Xv5Ttv3FBO8N9ZRauxF2aajJi8ljLclHJ0pXhxrzs7wHDo5pBBDum4KCTyepsFj9M3tRy5KtJjKMUks88MjZAAwEuA2PV3Tbbv36IPeG1Dicpp2DPQXIGUpYGTue+VoEQc0O2ed9mkAjfqgkKtiC3Wjs1Z4p4JG8zJI3hzXD1gjoQgxWsjj6tmGtavVYJ5zywxySta6Q+poJ3P7kEVitX4LJ6qyumqtxhv4sxNsNLmgF0jS4Nb13cQB16dN9vWglob9Ca7LRhu1pLUIBlgZK0yRg9xc0HcfvQYrOYxFXl8JylGDml7EdpYa3eT8zqfnde7vQbVmeGtC6exNHDEzq58jg1o/aSgovCvU2Qz2oNZ1LeVrZKnisnHXpTwsYAY3QMkO5b0cQXEb/UgulLI0L0Uk1K9VsxxuLJHwyteGuHeCQehHqQK+Rx9iwK8F+rLM6PtRGyZrnFm+3NsDvtv037t0FG1Xqy1V4q6NwWKzdKWnk5rMOQptDHyN7OB72u3B5m+cNu70ILTQy1kXcz8qjG1KFKVgrztuBxcwsBc6UEARnm3AG/UdUEhUyWOuSGOpfq2HgcxbFM1x29ewKD5Bk8bOLLoMjUlFUltgsma7sSPQ/Y+b+9BW8brenqPQM2ptIvp3JHQvfWhuWBA0kOc1vaHqWA8pI3Hd6kFkmyFWpQjtZG1VqMcBzPkmAZzEb7Bx239KDIblNtQXHW4BWc0ObMZByEHuId3bIPFbI4+zbnqVr1WezXO08McrXPi/wDU0Hdv70FL13A3Aa405rGoBEbVqPC5QDoJ4ZiRC53rcybkAPoEjx6UF+QEBAQEBAQEBAQEBAQEBAQEBAQEBAQEBAQEBAQEBAQEBAQEBAQEBAQEBAQEBAQEBAQEBAQUjhdLHGzV4ke1nY6ludpzHYM3DHDf/lcD+9BW/wAHXUGCpcDsXZtZejFFBJaErnTt80+ESHbbfffbbYd53G3egrzOwwuk9Va41RiLUdPUup6s9OnNK6sGxB8ccD7J/IjcRzva4HzSAR12QRrpaU8fHLFxWMTZfPiYrcFaiB2T3mk8PfGzc8x3DQXjvI9BQWOLO6Uq6Y4ZxRR42xJciayCd9oR0IJhUBe6cN6Pfy9GtI33PeNt0Er+DPaqO0nnMbXuVZTS1FkGNhgIDYozO4s5WbnkYdyWj1etBD8Q57GH1fnNS0BjtR4p9qhTzmEsbsuVpGlnYyVnDv8A6xrg0953IO++wb+l5MJQ4y8Tm22V47RZRmgiYGtsSN8EdzmIdHEkg9W+lBUdKZ3A2NfcKMvjZsRjqNujertiZaElgRmBpYyzKT50hcN+U9ecO6uKBUw+lrPDnjW+XH4mUVsrkzC4sYex2rsLSz8zzuo226oJuhqSOvrHhm/U9+JmAtaV56tixIBDJky2LcvcfN5+z5+Xf0udt1QRTM/pbGxcXrNhrL2PGcpyOr0bIi52ujrt5nOb3Rc5893UEc2+++yCZ0LZxL+LuvKVi1gHwX8LRmfXqOb4NKQJg8gE7SbNDQ52w6bbgIKrgcdXxn4I9LU+ncfGc4MWyG3frN5rbarrDfCGtePOG0Yd0B6bdO5BbtT5rRlriVwnt4HJYZ1Xt7jYpK8sezY3VHBjSR3bnYbH0/WgxacsaSxub4xTZ0Um4SplK1q1CA3kcG1onEFo+du8bbflHcelBp4yzhcdozVGtdXQvdnNQ4ya4/GY6XksU8ZE3+jha5hBj2Dml7unnvPqQbOi7+Jn48NbHPp5lfKaPZtWx8jXQSubY81hPdK9rCeuwPKe7ZBWcWMFL+BNkICMa65XxU4sR+Z2kczZnhvOO8OB7t+qC/Y223y3YmPMPjONm0rH8hvkIMLp+0/2gNPd2hZ2f18oO3TdBz7XlSvFwk4lxujg8X4tTwuwnabBjCZYO37Enub2hkA5enzwPSg6Dl6mGxH4Q+ijiYKNJ17D5FljwdrWGdrTC6Pm2+d15iCfrQWLjN52Awsber36mxHK30na7E4/4BpP7igvCAgICAgICAgICAgICAgICAgICAgICAgICAgICAgICAgICAgICAgICAgICAgICAgICAgICDm+oHw6K11by+ThY7SepREzISvbzR0brAGMkkB6COVgY0uPRrmN3+duAvVPF4mu5s9PHUYnHqHxQNaf27gINm5WrXK0lW3XisQSDlkilYHMcPUQehQYoMdj4JO0goVYn9kIeZkLQezHczcD5o9XcgwjB4UUGY8YfHinG8SMr+DM7Nr99+YN22B39KDar1KtaSaSvWhhfO/nldHGGmR3du4jvP1lBikxeNkyDcg/H1H3GgBth0LTINu7ztt0Ho0KJyAyJpVjdDOzFjsm9oGfm822+31IMMWGw8Ia2LE0Iw2UztDa7BtIeheOnzj6+9B9ZhsOyKSJmKoNjl27RorsAfsdxuNuuxQfZ8TirFBuPnxlKWm07iu+Browd99+UjbvQe/k3H9nPH4BV5LDeWZvYt2kG22zht1G3Tqgxsw2IYxrGYqi1rYfB2gV2ACLffkHT5u/o7kGanSp04nRVKlevG47ubFGGgn6wEGGrh8RUDBVxVGAMeZGiOuxvK497hsOhPrQBhsQO12xVH+l/rP9nZ5/Xfr069eqD1WxWMrGQ18bThMjeR/ZwNbzN9R2HUfUg+VcTiqhg8FxlKDwdrmwdnA1vZB3zg3YeaD6du9B5bhcO2KaJuJoCOaXtpWiuzaST89w26u+s9UHuxisXYpx0rGNpy1YyCyF8DXMaR3ENI2CD1PjcdPXjrT0KssEX9XG+Fpaz0dARsEHn5LxgmjsfJ1MSwgCOTsW8zAO4A7dNkFGhtt19xBpWMe7tdM6YnfKbQ6x3chyujDYz+UyFrn7uHTncAPmlB0VAQEBAQEBAQEBAQEBAQEBAQEBAQEBAQEBAQEBAQEBAQEBAQEBAQEBAQEBAQEBAQEBAQEBBitV4LdaStahjnglaWSRyNDmvaehBB6EH1IKTFw8mxALNHatzOnqv5NH+jt1Y/qjZM0mMf7rXBo9AQe/FfXvtPse5K38kDxX177T7HuSt/JA8V9e+0+x7kq/yQPFfXvtPse5K38kDxX177T7HuSr/JA8V9e+0+x7kq/yQPFfXvtPse5K38kDxX177T7HuSt/JA8V9e+0+x7kq/yQQNitxCi4g0dMDiPIYrOKsXzN8i1uZropYIw3bbbYiYn9wQT3ivr32n2Pclb+SB4r699p9j3JV/kgeK+vfafY9yVv5IHivr32n2Pclb+SB4r699p9j3JW/kgeK+vfafY9yVv5IHivr32n2Pclb+SB4r699p9j3JW/kgeK+vfafY9yVv5IPEvD+7lm9lq7WmbzlM/PpRiOlXlHqkELQ54+ou2PpBQXTH06mPpQ0aNaGrVgYGRQxMDGMaO4ADoAgzoCAgICAgICAgICAgICAgICAgICAgICAgICAgICAgICAgICAgICAgICAgICAgICAgICAgICAgICAgICAgICAgpN/wDHthv+Gb/+apoLsgICAgICAgICAgICAgICAgICAgICAgICAgICAgICAgICAgICAgICAgICAgICAgICAgICAgICAgICAgICAgICAgICAgICAgICAg0s8/KR4a3JhIK0+SbETWisvLInvHc1zgCQD3b+hByGzxIwvlHxecsV7cN2DAXqU2H5A6626bVMCsGD5znH5pHmlvnb8vVB1rTU2XsYKpYz1SvSyUjOeevBIZGREkkM5j3kDYE92++3RBIoCAgICAgICAgICAgICAgICAgICAgICAgICAgICAgICAgICAgICAgICAgICAgICAgICAgICAgICAgICAgICAg5+cvqDXN6xX0nkBhtO1pXQT5lsTZJ7kjSWvZWa4FoY0gtMrg7cgho6cyDZZww04/z717UuQnPzprGft8zv3NkDR+4BB68l2kfzM37+u/FQPJdpH8zN+/rvxUDyXaR/Mzfv678VA8l2kfzM37+u/FQPJdpH8zN+/rvxUDyXaR/Mzfv678VA8l2kfzM37+u/FQPJdpH8zN+/rvxUGhJwV4dPy7Mw/DW3ZJg5W2zlbRmA226P7Tm7unf3dEG/wCS7SP5mb9/XfioHku0j+Zm/f134qB5LtI/mZv39d+KgeS7SP5mb9/XfioHku0j+Zm/f134qB5LtI/mZv39d+KgeS7SP5mb9/XfioHku0j+Zm/f134qDy7hhppmz6lvUlKYfNmg1BcDm/uMpaf2EEINGfJ6j4fWInakyTs/pSSRsbspLG1lvHFx2aZ+UBskW5AMgALd93AjdwDooO43HUICAgICAgICAgICAgICAgICAgICAgICAgICAgICAgICAgICAgICAgICAgICAgICAgICAgICCpcYL9uhw6yrsfMYLllsdKCUd8b55Gwh4+sGTf8AcgsGCxdLCYWlh8dC2CnSgZBBG0dGsaAB/wDJBReOVnK0YtLTYrN5DGOu6jo46wKz2gSQzPIeNnNOx27iOoQT+R1tpnDZl+nLOQsS5avTFk1WVpZZpI9wA4BrTzkk+jf0+pBF6l15gbXC2zqnF6sGGpv/AKJmTdQdMasgfs5r4SNw7cFpDgNiUGe/ryKnxRp6Jdjrsna4x119plWV45u0YxrQGtI5fOJL99h0CDJgNU4s2dVXbWrIbNHG3GxysmreDtx20bd4i8gdpufO3/3gB6EG3X1JhdSw5zD0rVyG5Ri5bUL45as8Qe0ljxuGuAcAdnD1FBQOG2ppYuDnDaTJasmoX8pYgjMs9d1p98l7t4C478pfuPPJ3Gx2QXzO6/0xg25KTJ2rMEGMlZDbseBTOije4NLW87WkE+e0bA77nZBu5nVWGxLXeFzTueyt4XLHDXfI+GD+0e1oJa3oe/r0OwOxQSde/Ts4yPJ1rEc9OWETxzRHma+MjmDht3gjr0QVBnFfQslOleiy8klG3Z8FZbbTm7COTnLA2R/LtHu4bDm29CCxZzUOMxEvYWXzSWOxdYMFeF00giadnSFrQSGgnbf0noNygrGZ4l4yrqnSeKx9exkqeoa89pl2rBLK0RRxhzSwMaeckuG+3zQOu24QTVLW2m7T821l6SL5CaXZMz1pIhWAbz+cXNA+b53Tfp1QbT9TYduYoYrwiV9nIV3WqvJA90b4m7cz+cDlAHM3vI+cPWEGnW1xpuxPRYy89sORl7GjafC9te1J182OQjlcTsduvnbebug1cnxK0bjstbxFjKSG/UnhgsV4qkr3xulOzCQ1p831u7huOvUIKrw61DXwNviBNmsjkJalbVfglYSGa09nPDByRsA5nbczjsB60HVKk4s1o52xyxiRocGysLHD9rT1B+pB5yFOtkKFihdhZPWsxOimieN2vY4bOBHqIKCp8GLFl+gq9C3M+ebE2rOLMrzu6Rtad8THE+kljGk/XuguaAgICAgICAgICAgICAgICAgICAgICAgICAgICAgICAgICAgICAgICAgICAgICAgICAgICCkccT2fDe5bd/V07VO3MfVHFaikef3NaT+5BdmkOAc0gg9QR6UHNOPJsSwaSiqY7JXn1tTUL04qU5JuzgikJe8loIGw9HefQEAGeT8IuHKtoZD5POlTV8KNOURCY2BLycxbsDydf+3f0QUHKY/LWOAnEjFQ4PMG/ks/clpVvk+USTxyztex7Ry/NLQTv6PTsUF6yk01Xjrp/PnG5OXG3dOTUY5oqUjwyYzxyBsgA3j80E7u2HQoK/JNn8czixksXpizkrVjJV7VCC3j5DHYjZFDG+RjXACQsLHODQdyWjbvBQZ9Kz2ouK2dzNinqWzSyWmq4gvWsa9vaPjfKXt5GtHJ89uzOUE79Ae9BA42hla3BbhVjJcJmBdxWepTX4Bj5S+vHE55ke4cvcOZv7d+m6C1atlkzXE1kWVwuVi0tpja/HHFjZZBlsgRuwtDWkObEOvXbd5HoCCNmFjG8Us3k9V6a1NNjdTUabqb8d28ra7mRFklSZsB79yXAkbec7qg67hK9LEabqV6mPdjqVWs1sdRreYwsaOjNm77kDpsN/3oOESYzLu/BWzOBGDy5y0+RsGKn4BL2zue+ZmkN5d9uTzt+70d/RBY9QB+I4x39QZrEakv4LO4qrBSs4yOyTWkjMnNDLHEQ4c3acwLhsDuOnVBsahx0WntZ8MMji9NZGpgsdFkKrq9Wq6Z1QzxM7IPazmIBLXDfqAe8oNrVOkr97izI2Oj2um9UYpkedJ3Aa6q/djT9cjZOQj81p9SCP0Lo/VM3DzUmncq59XIU6FnTmGuPJ3krAP7Kf6uYOjB/wD0kGtk6WT1Pwa03omvh72Oz9WbHQ2YpK7mNomtIwyS9ptylvLGeUtJ5uYAenYLHo2OZnHXXF6XHXoq9upQiq2pKkjY5TEyQSBryNjsXD09fRugomLparo6u1TrLC43L2vBNRS3m4ezTfFHkKj4Io3SwF7RtO3ldy9eo3G3nIO9YbIRZTGwX4YbUDJm8wjswOhkZ9TmOAIKDbQUjgq4TaSuXWdYLmcyViB358brcvK79hA3H1EILugICAgICAgICAgICAgICAgICAgICAgICAgICAgICAgICAgICAgICAgICAgICAgICAgICAg18nSq5PG2cdehbPVtQuhmjcOj2OBDgf2glBQdI6hl0dPX0PrW32Tov6HDZic8sORhHzGOeejbDRs1zT87bmbvuQA6MCCNwdwUBAQEBAQEBAQEBAQEBAQEBAQD0G5Qc/1hqifPWJ9F6GsixlJgYr+Th86DExHo5znDoZ9ieSPv32LtgOoXLAYqjgsHRw2Ni7GnRgZBAzffZjQANz6T07/Sg3kBAQEBAQEBAQEBAQEBAQEBAQEBAQEBAQEBAQEBAQEBAQEBAQEBAQEBAQEBAQEBAQEBAQEBBq5TH0MrQloZOlWu1JhtJBYiEjHj62noUFTHCzR0W7adbJ0Yu/samWtQxj9jGyAD9gACD75MNMf22oPf1z4qB5MNMf22oPf1z4qB5MNMf22oPf1z4qB5MNMf22oPf1z4qB5MdMf22oPf1z4iB5MNMf22oPf1z4qB5MNMf22oPf1z4qB5MNMf22oPf1z4qCrW9DYdnFnGYNt3UAoTYK3aki+XLfWVk9ZrXb9pv0bI8erqg3MZpjRWU1VkMBjzqeycbGPDLjM5b7CGY7bQF3a9ZOU8xAB5RtvsSAgnfJhpj+21B7+ufFQPJhpj+21B7+ufFQPJhpj+21B7+ufFQPJjpj+21B7+ufEQPJhpj+21B7+ufFQPJhpj+21B7+ufFQPJhpj+21B7+ufFQeXcLNHyjltQ5a5F6YrOYtSRu/a10mx/YUFrw2LxmGx8eOxGPq4+nENo4K0TY2N/Y1oAQbiAgICAgICAgICAgICAgICAgICAgICAgICAgICAgICAgICAgICAgICAgICAgICAgICAgICAgICAgICAgICAgICDnerqVnI8WqlCnkZ8bYsaSyUcVuEAvgcbFQB7Qem470FS4T6czOOrSaGs63zmFzOKaXy1oa9UxW43OP8AtUT3RFz2vJ84uJc15Id6CQvnibqT2maj+z0/goHibqT2maj+z0/goHibqT2maj+zU/goHibqT2maj+z0/goHibqT2maj+z0/goHibqT2maj+zU/goHidqT2maj+z0/goHibqT2maj+zU/goHibqT2maj+z0/goHibqT2maj+zU/goHidqT2maj+z0/goHibqT2maj+zU/goHibqT2maj+z0/goHibqT2maj+z0/goHibqT2maj+zU/goHibqT2maj+z0/goHibqT2maj+z0/goHidqT2maj+z0/goHibqT2maj+z0/goHibqT2maj+zU/goHibqT2maj+z0/goHibqT2maj+z0/goHibqT2maj+z0/goHibqT2maj+z0/goHidqP2maj+z0/goHibqT2maj+z0/goHibqT2maj+z0/goIPXGN1VpfAjNQcQc3bdFdqRmCevV5JGyWY43A8sQPzXnuIQdRQEBAQEBAQEBAQEBAQEBAQEBAQEBAQEBAQEBAQEBAQEBAQaOYzGJw1fwnL5Slj4P7S1O2Jv+LiAgr/lP4be0DSnveD7yB5T+G3tA0p73g+8g++U/ht7QNKe94PvoPnlP4be0HSnveD76B5T+G3tA0p73g+8geU/ht7QNKe94PvIHlP4be0HSnveD76B5T+G3tA0p73g+8g++U/ht7QNKe94PvoNHPcQ9AX8Nbp0eKWmsZamiLYbcOVrOfC70OAc4g7H0FBx6zxsoxcQ8cZb2CtahrYe3i+3ivMGLlmknrPZY7fmIbEWRveWk8wILOpIJDremuIGg6GGqQZbijpXKZGOMie47JVmGRxO7tmh3mt36AeoDck9UEn5T+G3tA0p73g+8g++U/ht7QNKe94PvoHlP4be0DSnveD76B5T+G3tA0p73g++geU/ht7QNKe94PvoPnlP4be0HSnveD76B5T+G3tA0p73g+8geU/ht7QNKe94PvIHlP4be0DSnveD7yCewubw2bg7fDZehkovz6lhkrf8AFpKCQQEBAQEBAQEBAQEBAQEBAQEFK42fi+m/vDH/AOdhQXVAQEBAQEBAQEBAQEBAQEBAQEBAQEBAQEBAQEBAQEBAQEFS19qHJVLeP0zppkMmoctzmF8w5oqUDNu0syD0hvM0Nb05nOaNwNyAx4Ph/pjEOOTycLc1liN58tluWaZx9Oxd5sbfU1ga0epBYYYcLPF20EWPljB252NYR/iEGbwDHcvN4FV22337Jv8AJBj8FxJ6itRP/I1B7dQxrWlzqVRoHeTE3+SD4yjjHgllOm4Dv2jaUGvSOn709iCkcXZlrODZ2RcjzET3BwHceh70G18nY/8AQav8Jv8AJA+Tsf8AoNX+E3+SD78nY/8AQav8Jv8AJB8+Tsf+g1f4Tf5IHydj99/Aav8ACb/JB9+Tsf8AoNX+E3+SDDcgw1Ks+zchoVoGDd8srWMa39pPQIFStiLdWK1Vr0Z68zBJFLGxrmvaRuHAjoQR6UGX5Ox/6DV/hN/kg8T1MVXhfPYrUoomDd73xta1o9ZJ7kGOhFhL9SO3Rix9qtJ1ZLC1j2OG+3QjoeoQbHydj/0Gr/Cb/JB8+Tsf+g1f4Tf5IPvydj/0Gr/Cb/JA+Tsf+g1f4Tf5IK5qLh7pjLyi7FRGJyrOsOTxu1e1EfXztHnD/ddzNPpCDFoTPZY5a9pDVLon5zHsbNFaiZyR5Cq4kNna38lwILXtHQO2I6OCC4oCAgICAgICAgICAgICAgIKVxt/F9N/eGP/AM7AguqAgICAgICAgICAgICAgICAgICAgICAgICAgICAgICAgIKPpRnhXFrWl+bzpakVGhBv+RF2RmIH7Xynf9g9QQQfDWz4+az1fnMz/tNTDZiTD4ujJ1igEIHaTch6GR7nfOPUAADbruFts6I02crfynyXWHh1HwS7XETRDZaHczXPbtsXN6gHv2P1BBzXhVl72gIcBpPVNp9vTWeqxPwWRn69hNIwOdRlJ/aezJ7x5vo6BMT6T02OGevKYwtNsMlu/IQ2IAtc0HlLT+SW/k7d3oQeuH+XuYLLN4V69lbkHSwF2DyNlgLcrVA6xSb9DNGNg4flDY/tC08IcZj8VoGhWx1SKtETI4iNu3Me0d1PrP8AJBVNH3YMHxG4t5HwKxNHXsUJXQUoOeWQ+Cjo1g73E/8A/UE9HrvJfL+c05LpkjNY7HR5OvWjuteLUDnObsH8vmyBzSOUjbqNjt1QMJxAnzmB0nlcTghZ8YuZwi8MDTVY1pc5zzy9eXblO3c4gdd90GtNxXwwfBarsgs4uXKjGdrHbYZ+cydl2oh7zGJARvvvt5wBCDJBxCyl7V+Y03itGXbc+Gv1q16U3ImMZFM0PEwJPnbNIPIOu2/d3ELXqfO08BQjs2hJJJYsR1asEe3PPM87MY3fpufWegAJPQIIt+o87RivS5fSdhjYnwsqeAWBa8KdK7l222aWcp25i4coB336FBAZPVI1DgOIGmcriY6WRwuPf28QmFiKWOWB743tdyj1HcEAghB84Z5+LG8LOHmJrweGZXIYCsatYPDAWR14y+RzuvKxvM0E7E7uaADug38zrjLYGhiLGe0q6rJkM5DiCyK+yUM7VwayYHYczCSehAcNu5BvR6oZf1xmtE2sVyOp42O72zpA9k0UjnMA5duh3Y7cFBT+BWWsY7glomlQxU9+5cqythDd2QR8jnuJlk2IYO4DoSSeg79gx6r4m5e3wvp6i09jxTuPz0OKuxSztJgeLbYZGNdsQ4O6gO9Advt6EFhz+XiZxJ0NQy+EuRZC2Lrqs0GQPg8L2xEyNewbdp5vLtu3YE9OoQe7XENxwWX1LjMJLkMDiJ5orFhk4bLK2EkTyRR7bPawhw6uaXcp29G4e73ENvjPh8JhsJPlRmsXJkqFqOxGyKRjQw9d+rRs9p329PQFBIcOtXO1XUybbWKkxWSxN99C9UdKJQyRoa4FrxsHNLXNIOw70Gjrxja3EHQmTi82d96zj3kdOaGStJIWn6uaGM/tCC7oCAgICAgICAgICAgICAgIKVxs/F9N/eGP/wA7AguqAgICAgICAgICAgICAgICAgICAgICAgICAgICAgICAgIKNpp/gPGDVuOsea/JVaeSqk/lsawwSAf+lzGb/wDrb60GDHaVzGktb5vO6cjgv4jPyi1exr5OykgtAbOmicRyuDxtzNdt1AIPoQS7Z9ZWcldtvxdarQip8lOk600y2Z3Hq6RwaWsa0AAAF2/M4n0INHHaSOoOFNfR2uMXWaW046srYJ+0HMxoDZY3bAtcCNx03BCCKxOldY4fhBl9NSWq+cztl1qKK3Ym7NsrZC4RySHYncN5dwO8g9fSgm9X6Rj1xouHH5qA4vKQls9OzXl55KFlnzJY3gDfY/s3BIQSPDrF5PC6HxOLzU0c+Sr1w21LGfNkk3Jc4dB3k793pQUe1pLXJv8AEu3iZq2JtaijgdibbLPM+J8UQj88cvm82x2I3239YQe9E6S1NjuJ9fVM2CxWOo2sC3H24I77ppYZWSmTnLiz+lLubbcnoB1JQbvCHTTcXltS2obLZ8U3K2Y8RG0dK7JHiSw0fV2/M36uzQavDDTWtNFE6VGMwl3BwWpJKeYdYLZ2wPkL+zfEGbukHMQHcwG23q2IS+hcDncXxG1rmr9OvHQztitNWcyxzvaIYGxEObsNt+XcbEoNji3pfK6kw2NnwFqvXzWFyUWToCxv2MskYcDG/bqGua9w39G4QR2pYOJeodCXI4qeOwOVLoHR1YMi55ma2QGWMzhjezD2gtBaNxvvuPQEFjtF6sp5rW1yvgsPWq6jwsFeCCK8d68zI5Iy1x5NnfP5i/6vSUHytonWuExOgs1hYMdPndM4n5Iu46a0Ww3YCyNriyUN8x3NG1w3b9R7uoTnEPA6v1ToyhM2ni4M3jszUy1ah4S4xPEEgd2T5eX5x6+cG7DoOveg8YvB6xbxNymsLeJxscF7AwUm1mXy6SOWN8j9ieTY/P236bfWggMDorXuH0NofC+D0rcOGmljy+NbkHRRXY3A9nJ2gbuQxx3MZGx+vYIMDeHOsYeGWY09HTxAuRalGZxzI7REVhgtNn7M+Z/R9AWjv7u4ILbqPC6ny+v9Dai+S6cUOG8Kdej8N5nNM8XZgM8wc3Ltue7fuCCOw2j9Uaf0bqHQ2Ogp2aN+W2cZkHzbCtHZLnObNH3ucwvcQW7hw2B5eqDNjtEZTC670ZNjK0UuD07g5MSZZLG0z+cRAP5NvR2XXr+UglOGOAzeFzusLmWq14YszlzfrGKx2hDDEyPlcNhsfM36b96BraQXeJWiMPAQ6avPZys+3fHDHA6EE/tfO0D9h9SC8oCAgICAgICAgICAgICAgIKVxs/F9N/eGP8A87AguqAgICAgICAgICAgICAgICAgICAgICAgICAgICAgICAgIKtr7TNrMijlsJbjoahxMjpcfYkaTG8OG0kEoHUxPAAO3UENcOrQgjsfxMw9ZzaOsoZNI5Uea+DInlgkPrhsf1cjfSNiHbd7QglvH/Qv0z077yh+8geP+hfpnp33lD95A8f9C/TPTvvKH7yB4/6F+menfeUP3kDx/wBC/TPTvvKH7yD54/6E+menfeUP3kGOzrnQVitLXk1pgAyVhY4sykTXbEbHYh24P1hBp6c1Pw10/gqeFxertPxUqcQiha7KxOOw9JJduSe8k9SSgkPH/Qv0z077yh+8geP+hPpnp33lD95B98f9C9/jnp33lD95A8f9C/TPTvvKH7yB4/6F+menfeUP3kDx/wBC/TPTvvKH7yD54/6F+menfeUP3kDx/wBCfTPTvvKH7yB4/wChPpnp33lD95B98f8AQv0z077yh+8geP8AoX6Z6d95Q/eQfPH/AEJ9M9O+8ofvIPvj/oX6Z6d95Q/eQRd/ibp6SQ0tLdrqzKHoyriv6VgPrkm/q4m/W537AUG5oLTeQx9i9qLUliC1qTK8gsuhB7GrEzfs60O/Xkbu4knq5znOO24AC2ICAgICAgICAgICAgICAgIKVxt/F9N/eGP/AM7AguqAgICAgICAgICAgICAgICAgICAgICAgICAgICAgICAgICDxNFFPE6KaNksbu9r2gg/uKDS+QsJ+p8d9mZ/JA+QsJ+p8d9mZ/JA+QsJ+p8d9mZ/JA+QsJ+p8d9mZ/JA+QsJ+p8d9mZ/JA+QsJ+p8d9mZ/JA+QsJ+p8d9mZ/JA+QsJ+p8d9mZ/JA+QsJ+p8d9mZ/JA+QsJ+p8d9mZ/JBSr2GxHlxw8QxVHszpq+4t8HZsSLNTY7bd/U/4oLr8hYT9T477Mz+SB8hYT9T477Mz+SB8hYT9T477Mz+SB8hYT9T477Mz+SB8hYT9T477Mz+SB8hYT9T477Mz+SB8hYT9T477Mz+SB8hYT9T477Mz+SB8hYT9T477Mz+SB8hYT9T477Mz+SDcrwQ14hFXhjhjHcxjQ0D9wQZEBAQEBAQEBAQEBAQEBAQEBBSuNn4vpv7wx/+dgQXVAQEBAQEBAQEBAQEBAQEBAQEBAQEBAQEBAQEBAQEBAQEBAQEBAQEBAQEBAQEFJv/AI9sN/wzf/zVNBdkBAQEBAQEBAQEBAQEBAQEBAQEBAQEBAQEBAQEFL42fi+m/vDH/wCdgQXRAQEBAQEBAQEBAQEBAQEBAQEBAQEBAQEBAQEBAQEBAQEBAQEBAQEBAQEBAQfCQBuSAPWUFKv/AI9sN/wzf/zVNBdQQRuCCEH1AQEBAQEBAQEBAQEBAQEBAQEBAQEBAQEBAQEFK42fi+m/vDH/AOdgQXVAQEBAQEBAQEBAQEBAQEBAQEBAQEBAQEBAQEBAQEBAQeZZI4YnyyyNjjY0uc9x2DQO8k+gIKT5TMPcke3TeJz+p2MOxnxVLmrk/wC7NIWRu/5XFB68fMl7NNb/AMGn/qEDx8yXs01v/Bp/6hA8fMl7NNb/AMGn/qEDx8yXs01v/Bp/6hA8fMl7NNb/AMGn/qEDx8yXs01v/Bp/6hA8fMl7NNb/AMGn/qEDx8yXs01v/Bp/6hA8fMl7NNb/AMGn/qEDx8yXs01v/Bp/6hBpZzVEmbxFrE5PhZrWxTtxGKaMxVBzNP1izuD9Y6hByud/F5mqKjKmltTHHVsfPjI8xM2s7IsqyyQyE8nbcjpmiHkEhcN+YOI3BBDqGnNRu0/hKuGxfC7XEVOqzkja5lR7j6S5zjZ3c4kkknqSSUEj4+ZL2aa3/g0/9QgePmS9mmt/4NP/AFCB4+ZL2aa3/g0/9QgePmS9mmt/4NP/AFCB4+ZL2aa3/g0/9QgePmS9mmt/4NP/AFCB4+ZL2aa3/g0/9QgePmS9mmt/4NP/AFCB4+ZL2aa3/g0/9QgePmS9mmt/4NP/AFCDy/iXi6OztSYPUWmoCdvCclR/2dv/AKpYnPYz9riEF0q2ILVaOzVmjnglaHxyRuDmvae4gjoQgyICAgICAgICAgICAgICAgpXGz8X0394Y/8AzsCC6oCAgICAgICAgICAgICAgICAgICAgICAgICAgICAgICDnORrHiHrW9iLjnHSen5WRW64OzcndLQ8xyfnRRNczdvc57tj0bsQuedy2J0xg5MjkX+B42ozeR8cDnthYB3kMB5WgDv22CDJgMvQzuJgyuLlfNTsND4ZHQvj52kbhwDwCQQeh22KCNu6z07UmkZLdkdHFabTmnjrySQxTucGiN0jWlrTzOAO56E7HZBr5PiDpTGQ5Oe9kJ4YMVMYb0/gM7ooH9OjntYW/lN9PpQbUOsMHLekosfeFmOqbbon46w1xiDg3maCwF3Vw6N3KDb0tqDDaowsOawF+K/QmLmsmjBAJa4tcCCAQQQRsQgwy6qwMWq2aVN/nzToBY8Ejie9zYidg9xaCGjf0uI9HrQedZapxmlKdW3lWWjDatxVGOhhMgbJI4NZzbfNBJA3KCcQEBAQEBAQQVTVWLs62t6Qa20zJ1abbrw+EtjdE53KHNd3O67jp6ignUBBBTapxkOtq+kJGW25KzUfbiJhIidGwtDtn9xILh0+tBOoPMskcUb5JHtYxgLnuJ2DQOpJQa+IyNDL4yvk8ZbhuUrLBJDPC4OZI09xBHeg2kBB8e1r2OY9oc1w2II3BHqQc5ZTbw51hQZjR2Wks/a8Gkpj+rx11+5jfEPyY5SC0tHQPLSNuYoOjoCAgICAgICAgICAgICAgpXG38X0394Y/wDzsCC6oCAgICAgICAgICAgICAgICAgICAgICAgICAgICAgICCkcFmg6PtWD1lsZrJSyu9LneGSjf8AwA/wQb/F38VOrf7luf8A0XoNnhv+LvTf901f/pNQcwfZy/CTwyhqLGR53h5eyElhmTiPNNjjYm5y2xGfnx87z547t+voCCwfhJV61fgHq7wWKONstftXcgA5nOlYS4+sk+lB0ExVmQR5CSJhmgrODZNvOawgFwB9R5W/4BBxbhpkq3DjUHybkH+D4LUuEjz1M/kx244m+FxN+tw5ZAPXzIJXRVa1V4/Ga/EI8hk9JG9dB72PdcAbHv6mM5Wf8qCY/CL/APyJQ/4gxf8Am40Gtxh1hqHTONzt+hksXUfiq7LlOn2ZszXYwN5e1aNjEzvaHD1bk+hBuXdVZjGcS8XSyl+GHTmbxE1mm7sAHxWYmte+Nz/SOzJeOm55T37INCLWGpak2m8BkJJbGWzsM+Qlkq0QX06rOXkaGb7F5L2AuPQed07kGvqTWHELC6LpXrNOnWvu1LDjGG3AAblWWZrI5dmPPZOIPUdeoJAHQIOj6WrZ+rj5Y9RZWpkrRne6OWvV7BrYifNaW8ztyPXv1QVfBZfUOt8bLm9O5mriaUWSlrV4paQn8IjhlMbzIS4EFxY7l5dthsTv3IIXiNrjUGnLBusyOLaKuZrVX4qGMzulqTSMjEksg2MMhLy4Du6Aedug92b0GM/CNzmRtOLa9XREU8pHoY21K4/9ggsOk7OqdR47A6qZl6lKhkIWW5cYagk/oJGczGiXmBEg3aSfm9429KClW9f6tj4Na31My7S+VNPZe7Vgean9HJFBIGNDm83eQd990E3l3uf+EJpGQ7F7tNXz6hv2ldBq1tcahh19pPG3MjircecfZq36VKMyRUJo4nSt5LA+eRylrgf2gN7kGtwqOoi/iZadnmWJK+orkbGWKvOzmbXg5T84HlA2HICAgyaT13lL+leGuLrMpVMrqqs+aSWOANiqwwxdpJ2cfdzHdrWg9BuSd9tiG3lNZakw+X1jpeWzUs38XgvlzGXZa3SSLzw6OVjS0cwczYOaRuHDp06hp1tW61qVuHOoL+Tx1mhqd9SpboR0uQxPnrmQSsk5idw5vUEbbHp3IOvIKTxxA8mt+QdHw2KksbvS17bURBH7wguyAgICAgICAgICAgICAgIKVxs/F9N/eGP/AM7AguqAgICAgICAgICAgICAgICAgICAgICAgICAgICAgICAgonDGUYnNal0ZZPJYp5GXIVAena1LTzI17fWGyGWM+otHrCCxa2wsuo9LZDAx3zRbkK760szYhI4RvaWu5QTtvse/rt6kENjtH5eticJh5tVTS4/FOg3YymyN9lsO3Ix7ge7drSeUDfbbuJQax4fz2dLyaSyuoJchp98nWCSsBOYOfnEBlDtiwbBu/LzcvTf0oJLidpF2ttH2tMHKPxlS40MsPiga95YCCA3fo3qB12KCRt4vJWdKzYh2YDLksBhN1lZoIB6bhm+2+37t/R6EEBNw4xeRwWl8bqCw7KP01aisU5zE2NzjE3laHgdCNtifWWhBml0XbfxRZroagka9lH5P8C8Fb2ZgMnaEF2/Nzcw+d/2QbPEjSb9Y4atjPlR+OZDchuF7IBI5z4nh7B1OwHM0b+tBX9S8LDmr2qJBqa3UqaopR18lXjrsdvIyPs2yMe7ctG3ez0+sIMGsMHi8xZ0foLJ5N+RzFKePJySta2OQV4QWvc5rfmskLhFt6eY9+xQT+v9EeMuRxGaxuatYLO4d7zTvQRtkHI8ASRvjd0exwA6dNiOhQYNU6Gvah09jcZf1RZfPUyEORktOqsJllieHsAaNmtYCB0HXb095IXWIPEbRI4PeAOZwbsCfSdvQgoOH4dXcFm8hJgdYZLHYLIWnXJ8U2CN4ZK87ydlK4c0bXHqR123OxCCPznCM5CvqKjX1Xep0MzlGZcQNqxvMFsPY8u53dXM3jb5h229e3RBOxaGc7XljVV7MOu+FYhuJsVX1mhkkIcXbkg/OLnO32G2x22Qa+g9A5LSQhxtfWmTtaepv3o46WCPnhZ+TE6bbmewegdD0AJI6IIvK8JDcxWqsFBqq9Uweo7EtuWmytGXQzSuDpC2Q9S0kb8vo370E5LoixPrPE6lsZ+WaTHY6TH9kazWiaOQtL3FzSNnEsbttsBt3IK/heEdjF19MQRayvOj0xcklxgNOHzYXscx0T+nnO5Xkc//AG36oJ3E6GtYjJ6osY7UMsVPUFh9t1V9VjxBYfG1j3h2+7gQwEN6AH1oNKhwvr0tLaYxcGanbkdLP5sTkhA0PY0tLHMkZ3Pa5pLXDpv07iN0G/f0J4e3P3LWV3zGcoDGzXG1xywVgHDs4oyTt1e925J3J9QAQalrh1PPp/R2I8YZGs0tPBPXk8EaTOYWGOMPG/QcpO+22569EF/CCh8XJm5JuF0TXPNczeQhfI1vfHUgkbNNIfUNmtZ+2RoQXxAQEBAQEBAQEBAQEBAQEFK42fi+m/vDH/52BBdUBAQEBAQEBAQEBAQEBAQEBAQEBAQEBAQEBAQEBAQEBBWta6VbnX1MlQvSYnPY8uNHIxMDiwO25o5GnpJE7YczD6gQQQCAi4tU6yxQFfUWg7tx7enhmCnjnhk+vs5HMkZv6tnAfnFBk8frH0A1r9hi+KgeP1n2f61+wxfFQPH6x7P9a/YYvioHj9Z9n+tfsMXxUDx+s+z/AFr9hi+KgeP1n2f61+wxfFQPH6z7P9a/YYvioHj9Y9n+tfsMXxUGPx3PhPhXk51h2/J2fa/J8PPy778u/a77b9dkGTx+sfQDWv2GL4qB4/WfZ/rX7DF8VBqv4nxMy0WJdojWQvSwPsRw+Ax8zomOa1zv63bYF7B/zBBteP1j6Aa1+wxfFQPH6x9ANa/YYvioHj9Z9n+tfsMXxUDx+s+z/Wv2GL4qB4/WfZ/rX7DF8VA8frPs/wBa/YYvioHj9Y+gGtfsMXxUDx+s+z/Wv2GL4qB4/WfZ/rX7DF8VA8frH0A1r9hi+KgeP1j6Aa1+wxfFQY5dW6uyQ7DTvD/IwSuG3hObnirQR/WWsc+R37A3r6wgkdF6Ukw9u1m8zkDl9RXmNZavGPkYyNpJbDCzc9nECSdtySeriSgtCAgICAgICAgICAgICAgIKVxs/F9N/eGP/wA7AguqAgICAgICAgICAgICAgICAgICAgICAgICAgICAgICAgICAgICAgICAgICAgIKTf8Ax7Yb/hm//mqaC7ICAgICAgICAgICAgICAgICAgICAgICAgICAgIKVxs/F9N/eGP/AM7AguqAgICAgICAgICAgICAgICAgICAgICAgICAgICAgICAgICAgICAgICAgICAg0s7Jk4cNblw1avayLIi6vDYlMccjx3NLgDy792+yDkNriRgfKNjM/YZar2YNP3qc2Kcze6y4bVPat2Y6l7j83boR5wPL1Qda03PlrODq2M7RgoZGRnNNWhm7VsRJ6N5thuQNtyOm++3RBIoCAgICAgICAgICAgICAgICAgICAgICAgICAgpXG38X0394Y//ADsCC6oCAgICAgICAgICAgICAgICAgICAgICAgICAgICAgIITWmpael8N4fZhmtTyytr06cA3mtzv+ZEwes+s9AASdgCgrlXSWptRMFzW2pL1TtBuMRhLTq0EAP5LpmbSyu9buZo9TQg2PJdpL1Zz3/d+Kg++S7SXqznv678VA8l2kvVnPf134qD55LtI/m5z39d+KgeS7SP5uc9/XfioHku0j+bnPf134qB5LtI/m5z39d+KgeS7SP5uc9/XfioHku0j+bnPf134qD75LtJerOe/rvxUHzyXaR/Nznv678VB98l2kvVnPf134qDQfwV4dPzDMw/EXHZJg2bcOVtGZvTbo/tObu6d/cg3/JdpL1Zz39d+Kg+eS7SP5uc9/XfioPvku0l6s57+u/FQfPJdpL83Oe/rvxUDyXaR/Nznv678VB98l2kvVnPf134qB5LtJerOe/rvxUDyXaS9Wc9/XfioPnku0j+bnPf134qB5LtI/m5z39d+Kg++S7SXqznv678VB88l2kfzc57+u/FQYJ9GZ3AtNvROqMiXsG/yZmrT7lWcfm9o/eWIn84OIHpaUE9ojU1fU2Mlm8GloZCnMa2RoTEGSpOACWEjoQQQ5rh0c0gjvQT6AgICAgICAgICAgICAgpXG38X0394Y//ADsCC6oCAgICAgICAgICAgICAgICAgICAgICAgICAgICAgIKN2YzPGt5sDng05iY312HuFi094dJ+0Rw8oPqe/1oLyg5/ic3d1lr/UWIrXJqOD07JHUl8Hfyy3LT2c793jqxjAWjZuxLieuw2IauSzWW0RxL0/hLd+xk9O6ldJWrmyeeajbY3ma3tO98bxuNnbkEd+3RBY3a90s3DZjLuyEop4Wd9fIv8Em3rva0OcHN5ebYAgk7bbHvQRmouI1PF6w0tg4aNy3BnYJ7PhMVWV/JGyMObyta0lxJcNwPmjv7wgzX+KGjqc2Xhku3ZJcO9rL8cWOne+DmHNuWhm/Lt1Lu7b0oJOHWmmZreDqwZWOZ+ejdJi3Rsc5llrWF7uV4HLuGgnYnf6kEVqbiRhMZpXVOYoCxfn05G7wqqK8rHNlDOdrXbt3AI2PNtsAd90Fg0lmG57T9TJtgngM0THPZLBJFs4tBPKHgEt69D3FBQ+F2Yixd3iLLmszOKGO1I6KKW9adIIWGCEhjS8k7czujR6TsEFpi1/pl9HNW3WrUQwZHylFLSmbNWaRzB7oy3m5C3dwcBtsCfQUGy3WWAdBhJ47FmSPOAHHOZUld24LeYHo3zfN3d523QboPvjjp/wCUq9Lw0g2bTqcE5id2Elhu/NC2TblL/Nd0372kd4IQaEXEnR02YbiIMo+a6cgMc6KOrK4xzkA8r/N80dQOY7Dc9/egsmUyFLF03XL9hkEDSG8zvS4nYNAHUkkgADqSdgghq2ttPSw3JJrNij4HPHXlZdqS13mST+ra1r2gvLvQG779yCB1nqbG6i4U6zs4TIXq9rF0bbZQ3tatmrYjhL2hwPK5v5J9RB9IQSuk85Vo8O9MWcpalksWsbWDGhrpZrEhha48rRu57u8nv9JKDJX17pmVmMLrVqu7J3XUK0dilNE42G77xuDmjld0Pftvsdt0HjM6gw+Yqan0/Sv2mZLGUy+0yMSwSQ8zXFjmu2HfynYtO3RBC8LNT1aXB3RtrM37FnIXcRDIyMB9i1acIg55a0bvedupPX60GXVHFHD4/TGn8/ho5svUzeTgpQyRQyEMD5OV5IDSeduzhyHZxI29BQSkuoK0+vcNjIc++q+xRmsHES49zX2W+btIXuAMfJ13b3nmG4QbGQ1zpqgZ32bzm1a1gVbNwQvNaCbcDkfKBytIJAJ32BOxIKBltc6ZxeefgbWQecq2r4WKkVaSSR8W4G7Q1p5up7hue/1IN7SWo8PqrCx5fCWvCKr3ujJcxzHse07OY9jgHNcD0II3QSyCi5KMYjjViLlYcrNQY2epcaO58lflkhefrDXyt39RHqCC9ICAgICAgICAgICAgICClcbPxfTf3hj/APOwILqgICAgICAgICAgICAgICAgICAgICAgICAgICAgICAgpOEcIONOpYJOj7WHoTw/7zWPsMd/gSP8R60F2QcswmPv6A4o6muz0rNnTWp5WXmW60LpTStNbyyMla3dwa/oQ8DYHodkG7qHF2db8RdLXIK00WC05NJfktTRlnhNgs5Io4w7YkN3c5zttvmgEnfYKRm4MpRwfGTTLsBmZ7+altXMcYKT5IrEUtVjARIBy7hzSC3ff1AoJnKC7U1Lwmz8uHy5p0qVqnbDKMj5a8sleNrA+MDmaC5jhvtt3IPuktQVcXxo4n1ZaWStWLNjHvgirUpJRIRSYOQvA5WH/wBZaPrQRbtK5LQlLhZZs0Ldyrg791+TFCB9g1Tajk5Q1jAXGNr38u4HcAUH21jc1l8dxsrV8DlopszDzY4T1XMFj/YWM2aT0LuYbcu+/wC/fYOq8OMgzJaIxM7Kt6tyVIo3R26z4JA5rGgjleAeh3G/d0QcrgsZ3FYfibkcdpe3esT6jju1IrWNkcJIOWBpnjY4DtHM5HuDQd92D6kEtw7ink4wapnu0M7YoZrD0ewuX6Lo2ThnbCQO80BnzwAwgHr3elBn4M4HK1K9/E3iWwaYmtYfC2CeYvic4PbJ+1rDFH/yO9aCF4PY2lDhsPo7VWktROz+EtNc4zCeSj2kbyWW45HO7LY/O2HXcnYILRwhimh1lxBlsY+7WF7NizWlnqSRieEQRM5muc0Ajma7p+/0oM/GmHNQO0tqLF421lquDzAt36NZvNLJCYpI+djfy3ML+YN/kg19bawvXtGwZrT+mMnPBFkKpfNcxLjNBEXf0liKu4B7nxju80d+432IQU6vDkY63GKu7E6jndmaDZMdNYoPLrXNS7IAcrdg4v6cuwIHeBsg3oZ8vprIcPtW2cJmLuFq6bOJvw16b32MfO4QntDDtzkExchIB2237u8JjitcuZPF6Q1RVwWYdSxOpYLlmHwRxs+DCORhlEI3fsC8ebtzbddkGlQntycRuIeXdhM1FRyOCpspyvx8u0zmRzAtAA3Dt3t80gHr3INHS13OYPRnDHHSYLJVYW480sldixT5blKVsbAIQ0tJja9wIL9iPNHdvuAgKFDL0+E2MhnwGdbLhNdi/cifTe6XwfwyR/aNAB7XZr2klu/pQdCzz57vHHReUgx+UFKLFXo5Z3UZQyF8xi7MPPLs0nkd0Pdt12QVvC4/KY7gdqPhvkcNdsagLchVrtFdxjvGw+R0c7ZNuXlPaAuJILSDuAglNP4zIYrjRpuOzBfsw4/RfyXYyHg0hhdZEkTti/bbchjnd/1d/RBMcC4rMEGrhaoXaZsanu24RZrPi7SGQtLHt5gNwdj/APdB0ZBSNVuEvFvRNaPzpIoMjZkA/JjEcce5/wCZ7Qgu6AgICAgICAgICAgICAgpXG38X0394Y//ADsCC6oCAgICAgICAgICAgICAgICAgICAgICAgICAgICAgIKdxCw2VdcxurdNwtnzWH52mqXBovVZNu1r8x7nHla9hPQOYN+hKCV0jqvCapqOmxVreaI8tmpM3s7NV/pZLGfOY4fX3+jcIJxAQEBBUNJaRv4PWupNRzZmG23PSxSzV20+z7IxRiNnK7nP5IG+46nr07kFvQEBAQYb8diWlPFUsCtYfE5sUxZziN5B2dy+nY9dvSgj9IYY4DTdLFPtvuzws3sWpBs6xM4l0kpHoLnlztvRuglkBAQEBAQEBAQEBAQEBBDas1Rg9LUBbzV9lcPPLDCAXzWH+hkcY857j6A0FBCaAxWVtZjIa21HWdTyWSjZXqUHODjQpsJc2NxHTtHOJe/bpvyt68u6C6ICAgICAgICAgICAgICClcbPxfTf3hj/8AOwILqgICAgICAgICAgICAgICAgICAgICAgICAgICAgICAgIK7qbROldSWmXMvhq81yMcrLcZdDYaPUJWEPA+rfZBGeTHTP6RqH39c+IgeTHTP6RqH39c+KgeTHTP6RqH39c+IgeTHTP6RqH39c+KgeTHTP6RqH39c+IgeTHTP6RqH39c+IgeTHTP6RqH39c+IgeTHTP6RqH39c+IgeTHTP6RqH39c+IgeTHTP6RqH39c+KgeTHTP6RqH39c+KgeTHTP6RqH39c+Igq1vQ+IZxYxmDbe1CKE2Ct25Ivly31lZPWa12/ab9GyPG31oLT5MdM/pGoff1z4iB5MdM/pGoff1z4iB5MdM/pGoff1z4qB5MdM/pGoff1z4iB5MdM/pGoff1z4qB5MdM/pGoff1z4iB5MdM/pGoff1z4iB5MdM/pGoff1z4iB5MdM/pGoff1z4qB5MdM/pGoff1z4iB5MdM/pGoff1z4iB5MdM/pGoff1z4qCR03oXSenrpyGLw0Lb7hym5O509gj1drIXP2+rfZBZEBAQEBAQEBAQEBAQEBAQUrjZ+L6b+8Mf/AJ2BBdUBAQEBAQEBAQEBAQEBAQEBAQEBAQEBAQEBAQEBAQEBAQEBAQEBAQEBAQEBAQUm/wDj2w3/AAzf/wA1TQXZAQEBAQEBAQEBAQEBAQEBAQEBAQEBAQEBAQEBBSuNn4vpv7wx/wDnYEF1QEBAQEBAQEBAQEBAQEBAQEBAQEBAQEBAQEBAQEBAQEBAQEBAQEBAQEBAQEGrl8jRxGNsZPJ24qlKuwvmnldysjb6yfQEFQuSRv444WVj2ujdpe+4PB3BHhNM77+pBbsPk8fmMdHkcVchu05ebs5oXczH7EtOxHf1BCDbQEBAQEBAQEBAQEBAQEBAQEBAQEBAQEBAQEBBSuNn4vpv7wx/+dgQXVAQEBAQEBAQEBAQEBAQEBAQEBAQEBAQEBAQEBAQEBAQEBAQEFHn17Pk7s1PQ+n59SGCR0U17t216Ebwdi3tiCZCD0PZtft6dig9C9xVI3OnNID6vlmc7fv8HQPDeKv0d0h74sf6dA8N4q/R3SHvix/p0Dw3ir9HdIe+LH+nQPDeKv0d0h74sf6dA8N4q/R3SHvix/p0Dw3ir9HdIe+LH+nQeJ7HFCeF8E2mdGyxSNLXsfl5y1wPQgg1+oQctm4UcUDmoW158DW03HXlqjEsyk/M2tK+OSSs2fseZsRdE3ptuGlzQQCNg6hTk4m06kVSppfRkFeFgjiijy07WsaBsAAK+wACDL4bxV+jukPfFj/ToHhvFX6O6Q98WP8AToHhvFX6O6Q98WP9OgeG8Vfo7pD3xY/06B4bxV+jukPfFj/ToHhvFX6O6Q98WP8AToHhvFXb/wDLmkD9XyzY/wBOgxN17cw1iKDXmnJtPRSvEbMlDYFqhzHoA+UBrotz0BkY0fWgvQIIBBBB7iEH1AQEBAQEBAQEBAQEBAQEBAQEFK42/i+m/vDH/wCdgQXVAQEBAQEBAQEBAQEBAQEBAQEBAQEBAQEBAQEBAQEBAQEBAQUXidLazGTw+gqNmaqMz2s+SnhcWyR0IeXtGtcPmukc+OPfvAc4jqEFp/8ABtMadJ/2TFYjG19/RHFBEwf4AABBDw6pyN7DtzGH0tfuUnx9rCJJWQTTs23DmRvO43HUB5aevcEE1p7KQZvBUcvWjmjhuQMmYyVvK9gcN+Vw9Dh3EetBC611ZNpzN6aofJgswZzJNx/b9vymB5Y94PLynmGzD6QgtKAgq3ErVc2j8TSyLMYL8VjIV6Un9P2Zi7aRsYdtynm2Lu7ogtKDWkv0o8jDjpLULbk8b5IoC4c72NIDnAd+w5m7n6wg18bl4r+UyePZUvQvx0jI3yTV3MjlLmB4Mbj0eADsSO49EEigICAgICAgIMVytXuVJaluCOxXmYY5YpGhzXtI2IIPQghBR+HPbac1JluH000ktOlDHfwr5HFzhTkc5phJPU9k9paCfyHMHoQX1AQEBAQEBAQEBAQEBAQEBAQEFK42/i+m/vDH/wCdgQXVAQEBAQEBAQEBAQEBAQEBAQEBAQEBAQEBAQEBAQEBAQEBAQUY9ePbd/Rpc7fVvaG//wAgghfwp2WXcHbskcb5KkNypNkGNBJdWbM0ybgd42G5+oFB06nPXs1IbFWRkleWNr4nsO7XMI3BH1bIOa8QcnXyU97H4vUORmd8ivs1qWHf2LoHBz9rT5w4Dl3aGtYehLXdHegK9kMrezmkuB+ZyUva3buXpTzybbc73UpiTt9Z6oLPgZXcQrurobmXyuOGJzEmLrRY+26u+ARNYe2PL85z3OJHNu3lAG3fuHrGz3n8ds5gJMrkJMcdNVbLYTZdsyV00jHPZt80kMb3bdd/Wg52/I5LK/g3YC5lr9m/bOqq8bp7D+eRzWZTlbufTs1oH7kFj42Zu5BitZ2cPqHLS5LBVorUEVB3YQ4xwYH7TO32mMnU8hDtmkdBvuQ2b9JmS/CH0zams3o3zaVsTvENuSMAiaDoAD0ad+o7j03QRmb1lqDS1HjLka961kJMJYrfJzLLu0bW7WvG4kDbbla6Qu29TeqCwavlyGjshofIYrL5C+3JZWDF5CKzYdK24yZjj2wDujXtLQ4cnKNtxtttsFZbFmsppjinYsav1GybT+UuHGPiudmYeyrRysB5QOZvMfmnptv03O6DrmicnZymg8Jmbnn2beMgszcg23e6JrnbD9pKDm3D25rbXGncBrKldgpyz5I2LLn5F7ozVEjmvq+DhnKCGgAEnmDm8xPUhBs6JoZbPcQtYxXtW58VMFn4HUq8VkNaR2Ecjo39POjPMRy9PT3nqA1NBx5jI5TWWVv6o1Faj0zqS02lTZZAZKxkDHdlIAPPaeboOm3f3koNO9m83H+D1V4qVs5bfn214spIO3d4NKHSDnqmLfl5OUlg2HMCAd99yQlH1MvqXjFqHATap1DjcY3DUb0cFSyI3wzPkk3DXbdG+YNx6fXt0QdfHdtugpV8bccMSR0J09bB+v8A2iuguqAgICAgICAgICAgICAgICAgIKVxs/F9N/eGP/zsKC6oCAgICAgICAgICAgICAgICAgICAgICAgICAgICAgICAgICChcR5TpvU2D144H5OqNkx2YcP8AyqsxYWzkeqORjN/U17z6EF5e2C3WLHtjnrzM2IIDmPaR/gQQgrNfQeGp4x+JxtrLY7FvaW+BVbz2RMae9rOvNG36mEAb9NkGO1w50nPfo3G0Z67qePGMayvakiZLVHzYZA1w7Ro7wHb95QYq/DPS1fFYPGQsyTa2CmE+Ob8oTEwyAEB25d12aS0A9ACRsgyZXhvpbIanm1G6C7VvWWNZd8DvSwR3GtGwEzGOAfsOnX0dEG1l9D6fyeoqWfkhtVshTr+Ctkp25IBJBvv2UgYQHsB67FBHM4XaQj0vBpmGrdixUFvwyOBl+YBswfzhw87ps/zthsN+uyDJmuGek8xkMpdv1rj3Zao2rkY2XJWRWmtbytfIxrgHPaOgdtuEGeXh/p2S5grm2RZawkLoKk7MhM2R0TtuZkjg7eRpLQdnE9yDPR0Tp+pdzlvwaaw7PDbJx2ZnSx2By8g3Y4kDzfN6Du6IGH0VhMZJQdGLdhuMBGOZasOlbTBby/0fMe/lJaCdyASAQCUGCrw/09Wx2doRC/2Gee6TJA3ZCZ3OaGvO++7S5oDTtt0GyCdwGKqYPC1MRQEoqU4mwwNkkLy1jRs1vMepAHTr6kFew/DjS2Iz9jMY2vcrGec2ZKbLsop9uTuZRBzcgdv1327+vegkdP6UxOCy+TyuPNsWspL2twyWXvbK8AAO5XHYEAAdNug2QNL6TxGmrWSs4vwpr8nZdat9rZfIJJnAAv2cTsSAB09ACDTq6A01WYa0NaZuN8KFwYztnGo2YP5+YR9wHP53L83m67boN2rpTE1tX2dVRG2MpaibBM82Xlj4278rOTfl2BJI6d5KCcJABJIAHrQUHQkw1TrrM62g87ExQNxGJl9FhjHl88zfWx0nKxp9IiJHQhBf0BAQEBAQEBAQEBAQEBAQEBAQUrjZ+L6b+8Mf/nYEF1QEBAQEBAQEBAQEBAQEBAQEBAQEBAQEBAQEBAQEBAQEBAQEHieKKeF8E8bJYpGlj2Pbu1zSNiCD3hBQ4NI6m0q7s9CZqmcTuSzC5dj3wwf7sEzPPjb6mEPaO4ADog2RkeKIGx0vpcn0kZmX4CD78o8UPotpj31L8BA+UeKH0W0x76l+AgfKPFD6LaY99S/AQPlHih9FtMe+pfgIHyjxQ+i2mPfUvwED5R4ofRbTHvqX4CB8o8UPotpj31L8BBFy6t4ix6rrabdpPTvhdmjNeY4ZmTkEcckbHAnsN995W7dPQUEp8o8UPotpj31L8BA+UeKH0W0x76l+AgfKPFD6LaY99S/AQPlHih9FtMe+pfgIHyjxQ+i2mPfUvwED5R4ofRbTHvqX4CB8o8UPotpj31L8BA+UeKG3TS2mN/76l+Ag1bOltXaqHYa1zdOpiSf6XE4QPaLA/NmsP2e5h9LWNZv3EkdEF5pVa9KpDTpwR168DBHFFG0NaxoGwaAO4AehBmQEBAQEBAQEBAQEBAQEBAQEBBSuNn4vpv7wx/8AnYEF1QEBAQEBAQEBAQEBAQEBAQEBAQEBAQEBAQEBAQEBAQEBAQEBAQEBAQEBAQEBBSb/AOPbDf8ADN//ADVNBdkBAQEBAQEBAQEBAQEBAQEBAQEBAQEBAQEBAQEFK42fi+m/vDH/AOdgQXVAQEBAQEBAQEBAQEBAQEBAQEBAQEBAQEBAQEBAQEBAQEBAQEBAQEBAQEBAQEFJv/j2w3/DN/8AzVNBdkBAQEBAQEBAQEBAQEBAQEBAQEBAQEBAQEBAQEFK42fi+m/vDH/52BBdUBAQEBAQEBAQEBAQEBAQEBBEalzgwpxzG427kJshcFSKKqGcwd2ckhcS9zQGgRu3JKCveUWJ79Qw19LZ+xPp7YX4meDEtJiEoDf6bzvNIPT9neguVGwy3SgtRjZk0bZG/sI3/wDugySvEUT5HAkNaXHYbnp6h6UGlp/K1s5hamWpssR17UYkjbYhdFIAfzmOAIP1FBvoKvrvVj9LWMC12Lfcgy+WgxhlbMGdg+V2zXEEecOh7vqQWhAQEBBCa8z7tLaPymo/AX3mY6s+zLCyQMc5jAS7YnpvsD0QSGFujJYalkRGYxarxzhhO/LzNDtt/q3QbaDWfcg8JlpwzRS3Y4hKa4kAfyncNJHoBII3+o+pBB8ONVDWOnHZcY+THllyxUdA+USFroZHRuO46dS0oLKgICCq6/1nW0xoTJ6tqVm5mvjg8zRwWGt+Y4teOY7jdrhsR39Cgs9eTtYI5dtudodt6twg9oCAgIIzVOTmwunchl4aZuupV3zmASiMva0bkBx6A7AoPOkMy3UWlMTn44HV2ZKnFabE53MWCRgdyk+nbdBsZ6nZyGGt0qeRnxlmaItitwta58LvQ4BwIOx9B70HEbmsNXV+LuMwtjThsayiwNunH2e7aM4fYruZb5+9sPLG8ub84OHIN9wSHadMUchjsHWqZXKyZa80Ez23xtj7R5JJ2a3o1o32A67ADck9UEkgICAgICAgICAgICAgICAgICAgICAgICAgICClcbPxfTf3hj/87AguqAgICAgICAgICAgICAgICAgEAkEju7kHMeHUvYcSeLE5Y6QR5Go/kaNy7ajGdh9aCunUGfs/g/8AlVr5yzHmWV3ZUQNkPgfZted6pi+aW8g5Ob53N52/oQdflkkyGnDPHJPRksVe0Do9u0iJbv03BG4+sIOL6c1PqS1w84P5ifOXn3Mvl46+Rdzja1G5sziHjb1sb3bIJvIauymmNY8UrUtq3kaODwtTI1KUz92MkcydzmtIG4aSxu/fsEEfr+nNYwHDDPXMvcu3bWpcTLO4TkV5DIeYlsQ80AH5u3XbvJQe9c5zUEl7iBQOUy2PzVGGI6Wq0uYCcOi3Y4NAIlc+bnY4O35QB3d6CSdltQ+OuJ0ATdnfDp75TvuOQ7GeaZ8vZ7dqBuWsIf8AN26uZ6BsQvOgquo6ukq1PVluG1lI+0ZJPA8nnj5z2Zc7lbu/k5eYgAFwJCDlFvUessLQ1zpfFZGxk9U47IeFY825Odzsd2YnGw2232a+Hf0uI3Qbmr8m3VfDHXesMflLk2EsaYeypVM28PaOrOkkfy+sB7Gbegtd03QZapy+msxwytVtR5W1BnOSjepWJGurlvgbpGuYwAcjmlg7u8E77oPUOW1trbxsm03KaVzF5mTH4x773ZQQmAtB7aINJeHnmJ3380t5dtt0G1pXGuf+EZq+eW9eD48VjZXMZYPZuJM+7SPS0bdB9Z9aCi0BlsLwLz+tMRqLK0ruHzeRsV60cjRWeBecHMkZt54cN+87jfptsg6RndQZfMcUJNH0Yp21KuEjvyiC94LLJJK9zGkP25i1gZ6PynjffZBC5p2vqWT4aYHL6qlr38lLcqZSSjyFkzWQSPY8EsH9JsG9duXm68vRB1PCYqXHadgxE2WyGQkihMTrtl4NiTv85zgAObr37ehB+e6FAV/wPNU2fDLspkZkmdnLMXMby3pRu0egnvJ9J3QdCmOX0zxR0VBFqLK36eoYbUF2rbka6JrooBIx8bQB2Z3BBA6EFBH6dyuudcYqxqDBSinZjzkkVbtb3LXZWhsGN8UkIaS5zmNcST53M8EEABBdOM2p7ekOHmQzVAM8MD4a8D5NuSN8srIw92/TZvPv16dEEPJj9bUnZq4clYo4g4R5a2W8LVmO4zctlYXM5WtLdw5vduBsB1QU+nlNSU9D8LdaP1Vl7V3L3MbTv15pG+DTx2W7P3YG/OB2Id37hBNuyVjXeiOIV+1kLtSLHWchjalapO6Hsm12Fpc/l+c57t3EO3ABA27yQuXBn8UekOm3/glT/wCi1BJ601FS0tp6fL3WyTchbHBXiG8tmZ55Y4Yx6XucQB+3fuBQUVnDrL3MNJqW5dir8Q5ZxfhutJdFUe0EMpj11w0ljh+UXOf87bYLnoPU0OqMELhrvpX68jq2RoyH+kqWWfPjd6/WD3OaWkdCgsCAgICAgICAgICAgICAgII3U2cxmnMLYzGXsivUgA5jsXOc4kBrGtHVznEgBo6kkBBU6sfEbVDBbmvRaJx0g3hqxV47WQ5T3GR794o3f7oa/b0uQbHiVn/adqr+FS+AgeJWf9p2qv4VL4CB4lZ/2naq/hUvgIHiVn/adqr+FS+AgeJWf9p2qv4VL4CB4lZ/2naq/hUvgIHiVn/adqr+FS+AgeJWf9p2qv4VL4CB4lZ/2naq/hUvgIHiVn/adqr+FS+Ag08zw2yOYoOoZLiPqmes6SOQsLKbfOY9r2HcQA9HNaf3INzxKz/tO1V/CpfAQPErP+07VX8Kl8BA8Ss/7TtVfwqXwEDxKz/tO1V/CpfAQPErP+07VX8Kl8BA8Ss/7TtVfwqXwEDxKz/tO1V/CpfAQPErP+07VX8Kl8BA8Ss/7TtVfwqXwEDxKz/tO1V/CpfAQDozUjPOg4n6lbIOo7StSe3947Abj94/ag1jqTUmj7cUOuhSu4aZ7Yo89SjMTYHuOzRZhJPZgkgdo0lu56hvegv46oCAgICD4RuCN9v2IKzprROL0/n8lm6VzKSW8m8SXe3tGRkz2t5WuLT0BDQANtugCDBDw705DWnx8bLTcPPZ8KkxPbf7IZObnPmbbhpf5xYDyk79OpQTGrMpFiMJLYfBZsSSbQQQ14XSPklf0Y3Zo6bn8o7Ad5IQVbEcM8V5K9O6Myz5y/DxwSxWqkxilhsxjftI3DqDzF231FBKYrh/p7H5jI5UC9as5Ooype8KtvlbZja0tHO1x2cdnO7/AFnbZBE1+EWlIcbSxgsZ11HH3WXKFd2Vm5Kb2Eloj87doBPT1egoKVNTxVriJq35Xu600vk5bLI6sOJmshmQiZGGsstLGua97juC30co3G5JIW/H8Pn5/S+mrWsruRi1XjK5Z8qULRr2Wh3exz2dHbjbmHUbgkd6C+4qhBjKEVKsZTHGNuaWR0j3E9SXOcSXEnqSSg1Y9P4mPVM+pm1G/KlimylJN64WPc8N2/a4/wCA9SCLGg9Ox6Dn0RVrzVMLYbKyWGCQtc5srnOkbzd4BLnd3oKDzc0JiLbdPia3k99PuD8eRZ2LHBpYHO6eceUlvXfoUGva4b6dm1VZ1FBJlaFi6WuvwU78kNe6QNgZY2nZx26bjbf07oN6xozFSayOrIZ8hUyL6ras3g9pzIpmMLiwvZ3OLS47b+vrugjfJlpw6Kv6OdLk3Yi/O+ezGbZ5nue7neObvAc48xA9KDNqLh5g83bxmQntZarlcbCYIMlTuOgsmI98b3t+c0+ojv6oM+Q0Lhrl/B3nT5KObBlzqBZbd5jngte52+/OXAkEu37ygtKCi+SzTPi5l9OCbLNxGVmklnpi8/s2c7y97Ix+Q0uJJA6/XsglL+i8Zey+Cytm5k328E1wpP8ACdti5vK8uG2zi5vQ7oNKrw205S1NbzlCTKU/Dp/CblGvekZTsTf2j4gdi4nYn0H0goLJqHD43P4S3hcxUjt0LkZinhf3Paf2dR69x1BG6Cv4Xh/i8VhbWKjyufsxWIDWElrJPmkhhPfHGXfNG3Tcdfr6BBjm4bafl03g9PGfJtoYKeKxj2NtkOjfF/VEu73cvoB3+vdB8u8M9N2Mvlckx+UqHMRlmSr1L0kMFpxby9o9jTtz7HvG2/p3QT2ncRjNK6ar4qlJLFjsfAGRmzYdJ2cbR6XPJ2AA/YAEFR0hFJrrUsevL8bhhKfMzTVZ425wRs+84H8p43bHv3M3Pe/oHREFA13Tt6XzvlDwleWaNsbYtQ0YW7utVW907Wjvlh6n1uZzN7w1BeMdcqZGhXv0LEdmrZjbLDNG7dsjHDcOB9IIKDOgICAgIPjgS0gHYkdDt3IOZ6U1/k63EO/orWLa7HSWXR4TJxRGKG7ysa58JBceWVocDtv5w7vrCyUbGojxGvY+xkab8PDRisxRNqls3NI+VvKX822w7MHfbc7oLSgICAgIIjV2b8XcHLl3Y67fhruaZ2VGB8kcW/nyBu+7g0buIbuSAdgUFR8Lo614pYrwa1FewmExceYhMbg6KexZc+OCT1HkZHMR6i/fvAQbfFfPZ/AWNMHDW6kUWVzlfF2GTVjIQ2XmPO08w2I5e47jqgmsc7PVM/Zbk8nQtYltMSdoIhDJDKHHfm84gtLeoOw25Sg2odTacmsNrw57FyTOgdZDG22EmJruV0m2/wA0Hpv3boMlLP4K9cNOlmcfZsiuLPZRWWPd2JOwk2B+aT6e5B6xmcw2Tmkgx2VpW5Y2h72QzNeQ09ztge76+5BiZqTTz7cFRmdxjrFiZ0EETbTC6SRrQ5zGjfq4AgkDu3CCqcTc/ksDrPQ7Ycu2njMjkpa1+KRsYY9ja8kgJe4bt6tHcQguWGzGJzNI3cRk6eQrBxaZa0zZGAjvG7SRug+YnNYfLSWY8XlaV59V/Z2G152yGJ22+ztj0/egxTZ/BjLDBnN0I8pKHdnW8IZ2x2HXZhO5I79tkFM4Taukm0bcv6u1BW7WLOXqUdm06ODnbFO5jG7Dlbvyt9A3QWy5q7S1IWTb1Hia/grGvsdpcY3smu+aXbnzd9um6DddmcQ2CrO7KURFcIFZ5sN5Z9+7kO/nfuQYIdR6fnxTctBm8dNj3SGNtmOw10bngkFocDsTuCNh16IPU+ocDBhvlqbNY6PG9f8Aa32WCLpvuObfbfoen1IFHUGCv5WfFUszj7N+u0OmrRWWOljB7iWg7gIPbc3h3Zn5FblaRyfIZPBBO3tuUd55N90HjI6hwONtCrkMzj6k528yaw1hG/dvuem+x29eyDzd1Jp+lUrXLmcxtetaIbXmktMayUk7DlcTsevqQRmoNd6dwersVpnIXoIbmSilma58zGMiZGB1eSenMXANHp6+pBvYzJ3LWqsrRdYw8lGtFCYW17Bfaa883P2zO5o6N5fX1QbNPO4W5fdQqZajPaAJMMc7XP2B2dsAeux6H1IMGR1VpnHRTy39Q4mqyCQRTOltxtEbz3NduehO3cUG9dq0cvi5qduKG5RuQmOSN2zmSxuGxH1ggoKrwenss01bwFyd9ifT2QmxXayO3fJHHs6EuPpd2L4tz6TuguiAgICAgICAgICAgrTNWx+UrxIkxtmOd2Ldko7RewxSRtkZGQADzA7u9IHcgkcPqDE5bFy5Opb2qRTyV3yTMdEA+N5Y4eeB+UCN+4+hB7yGax1DM43EWZXtuZMyiqwROcHdm3mfu4DZuw9ZG/oQSKAgII6XNY6LUVfT75XjIWKz7UcfZOLTGxzWuPNtyg7uHQndBIoCAgxzTQw8nbSxx9o8MZzuA5nHuA9Z+pBpDN446kdp0Sv+UW1BcMfZO5eyL+Tfn25d9x3b7/UgkUFSg1jPeyFN2H09eyeFsW31H5OCSPlje1xY5/ISHGMOaQXj1dAR1QW1B5kJaxzmtL3AbhoO2/1IK9oDVcOrsbeuRY+xQdSyM+Plinc1zu0hdyuO7SRtv9aCxoCCq8WNP39T6FvYjGzMbYfySCGVxbFbDHBxryEdRHIByOI9Dv3EN7QuoKGpdN18jQgdV5d4J6bwGyU5mea+F4Hc5pG3q7iOhCCcQRWrM9jtM6ft5rKyObWrs3LWN5nyOJ2bGxv5T3OIaAO8kBBQNC8P9SQafZJLrHO6ZNqaW0MNjRVfXx4keXiFplhe48u/XY8u+/KANkE74j5/2qax/hY//SoPniPn/aprH+Fj/wDSoPviPn/aprH+Fj/9KgeI+f8AaprH+Fj/APSoHiPn/aprH+Fj/wDSoPh0Pnx1PFTWP8PH/wClQQNLD6Y4h4HVOl5sy27Yr5YujuQys8Jrzshh5LLC3bZwd6QACdx6wgjtCN1nqDUOb09qTKZPAZ3CU6VebJ45kPLko+eyWTNEsb2gOB3cANw4EbjuQW/xHz/tU1j/AAsf/pUH3xHz/tU1j/Cx/wDpUDxHz/tU1j/Cx/8ApUDxHz/tU1j/AAsf/pUDxHz/ALVNY/wsf/pUEVqrDXNM4OfMZbizrNleLYBrIMe6SV7jsyNjRV3c9xIAaO8lBW/wcdP5TTGtNX0826WO3kq9PKMryGMuhZI+wORxja1nOC3d3I0NBf037yEv+EbcxLI9EUsleggD9WUZJGusdm4RASBz9wQWtG43d029aCdwkuh8Nqa7j8bkWXJsxAbNuN93wmOGKBoaXvc9xLWnnaNidiT3d6Cm8Asdphn4PdPIuqYvwllC3HZsPYwvYHSP3Y5x6gbBvmnpsAggcdiI3/giUbmmcdBPlPkquy++qwOtSwCVjrMPMPO3LA4cvq6AdyC7auloZzW3DXIaPnr2JYbUksstQgtjxpgcJA/buYXdkAD+VtsNx0DU4B47TVrKa3tw1MXPbg1hdkrvaxjnRM5WBrmfmg7u6jbfqgkeNc9OprHhrayEsMNSPPyCSSYgRtJqyhu5PQbuIA+vZBWNTx47H6m4jaoo4d+U0t4vRMyVWi8xx37rXuLuVzPS2PlD3DuB2O5BCDDic34RxayVjC5bET38nojbG/J7eWvJYZK8sYxx/rCwEdfQD3DuQWbg7q3Q+R0Xp3HyT1BnqMTW2qdmPe3WttYRPI9pHMw785Mh2BBJ36oOf8Os6zDBuocsaWU0jBqPJtmdE3mfibEtl/ZW3gE80bmkt5thyB2433JQXClktHx/hB6msZS5hGxW9PUJK753x8s4L5uYsJ+duOXfbfcbIKnlcDRw2h9HUcvBBUo2OIHhWPqWdmOrUJJZSxmx6tbylpI6bB2xQX3OQU9P8btKTS1qtDTUmLuRU3RxtjrxZCSRji4kDla98YcGk9/nAd6CkcRKZOj+OFyoxrtPTiu+ns3eJ1tsTfCZI/R87lBI/KDvSCgueQo4PUWstAZDRjsfNNi53z3LtDlLIqZge0xOc3p573M2aevRx26FBQ26nwdu1w7ydQ4/CU6OqZ4n0S5z7VLmZYa7wmRx3a57tvNPfzDq7ZBm1NawMz+Jeg8nqPT9P5YzTZnXcrZFeavzMi3AjeAZBGGARvaeUnbqNtyEvxXy+DdJrfTlSvj6lmTSrHttWN5pMnH2UvZx1YweXZp73N36uHm9N0Hqvm8QdYcHs5ayNU0ZsBcrm5I8dm6fsa/mF56cxLXdD1JBQY8/4VPr3jHV0nLCM1Y05TFZtdzRLJMI5+bl2684BaN+8Et+pBvailxuc0Fw4Zo4RDKV8pj3UooRtLUYwbWQ9vexrY+drwduuwPUhA0rFpqfiBxkNiPEyRF9YuLxGW8ngTRIfVtz7h31779UFv8AwdpxY4I6RImErmYyKN5Dty0tG3KfUR3bINjhiefNa9nb1jk1M7kd6+SlUjd/g5jh+5BdkBAQEBAQRmrMxHp/S+Vzs0T5o8dTltOjZ3vDGF2w/bsgrenIcvdxOG1la1Pff2lIXLVCuyI1Jmvi5gxo5eYcpI2cHbnbrvugpkuqdTy8ChxYr5h7cg2E5PwDZpqGAP61i3bffs+nPvzcw37vNQSseQ1Fn+LuT07HqbI43Eyacq5GKOCGETQPkle0hr3MPoYO8E9T3IIrT3ELPs0Dp6pcussZrJ6nl08MjJE0bMjmlaZiweb2hZHsB3FxB226IJGvjZKX4TUTBlL9jttGzlrrD2vMR8LiHm+b3enY7jdBTdU5HNah4BOt5jN257UOr2VTMxkbDIyPJtjZuA3boACNvSBvug6NqO/m8LxS0DhIM5bnx2SbfZcimZGTMYoedji4NBB3d3DYeaPr3CFx2f1Hqjhjn9eY/Nz467VmvPx1QMaYI46z3tbHK0jd5f2ZLjuCObzdtkAap1BqPWHD5tHMWsRjdT6fsX7FVkETnRPbHC4FrnNJ3/pT37joOiCf4PZPMTW9W4HMZWbLfIWZNStbsMa2Z8ToY5AH8gAJBeRuANxsg9X8vmIOPOLwQychxFvA2bb6hjZytljliaHc23N3OPQnZBDcM9UZO5q8YPVV/J4zU0UU5tYyzCPBLjA8Fk1R4Gxa0bDod9nHmG43QTPF/NZnBDE3oK2Vm0+2SUZmTFMD7cLSz+jeG9SWB25dy9eg9G6CHyOenyGn6EON15LcbZwTrNSbF1mm9akadhYeC0sZGNgCCGguJBI7kFZymQyWr8NwTzt/I2a1zI3mPn8F5Gt7Q1JiZAC07HofqAJ6IL1Tyucg443NOOy0tnGN0yy7DXmjYAyft+zLi5rQTuB6fWfq2CE4b6kyWXyljAajy+aw+qosfL8oY2zCxrHu5xtZpv5eUsHUdN+jhuNxuQpujrOa0/wC0Fl8XqPJwus5enVlgPZOiMUtsse3Ys5huCeu+6C95XUGqNSat1jgdPNu1zgY4a9SSvNCweFSRdrzyiTcuZ5zAABsQH9+42Dfwmezue1tJo/J2GY6fFYSrayhpP6zWp+YFsbiNxGzkPUDclw7tuoa34OkLq+nNSwPnlsOj1Xk2GWUgvkIm+c7YAbn07AIOnICAg53rKKTQ+pJNf4+NzsPaDY9S1mDflY0bMutH50Y6P2+dH172BB0CGaGauyxFKySF7A9kjXAtc0jcEHu229KDnuAHlD1XFqmcF2l8PM4YOIjzbtgbtfdPrY3q2L/AJn+lqDoyAgICAgICDHHDDE7mjijYSNt2tAQe9hzc2w5iNt9uqD6gICAgIPMkccgAkY1/K4OHMN9iO4/tQUjiHWvYXPY3X2LqTXPk+J9TLVIG80s9J5Di9jfynxPAeGjqWl4HUhBacTexGexlfLY2xUyFOxGHQzxkPa9p9R/+yDbZWrsBDIImhw2dswDcIPoghDHMEMYa75wDRsUHqOOOMERsawE7kNGyDxBVrVzIYK8URkPM/kYG8x9Z27yg+xwwxkmOKNhI23a0BAsQQ2IXQ2IY5o3fOZI0Oaf2goPscUUcQijjYyMDYMa0AAerZB5irV4QwRQRRiNpazlYByg94HqHRAbWrNmkmbXibLKNpHhg5nj6z6UH1sEDGua2GNod0IDQN0FFxOlcvDxgy2qrVHEuxlulXqVwJnOmhMJkIfymPYc3abbB3TbvKC9ywxS7drEx+3dzNBQfJ4IZ4XQTwxyxOGxY9oLSP2FBU+L+m8lqjhrltLYNtKKbIQeDtdPIY44m7jr5rTvtt3dP2oLDgK8lXEV4p6dWnOG/wBLFWdzRh3pIPK3ff8AYEGyKtYOcRXhBc8SOPIOrh3OP1/Wg5xR0xq+vd1BQv0NPZurlbc00WVuSO7WKJ/RsUkPIQ8RjzWhr2ggDu6oLrpXTuP07p3E4WoztYsXTZUgllAMnI1ob3/Xt1QSZrViyJhrxFsJBjaWDZhHcR6kHpsMTZO0bEwPP5QaN/8AFB5irVoppJ4q8TJZP6x7WAOd+0+lA8HrjfaCLzhsfMHVBXNc6pq6XoR1qVdt3OXiY8Xi4iBJZlPp2HzY297nno0Ak+hBscPdPyaa0rVxtmw21ec59i9YA2E1mV5klePqL3HYegbBBYEBAQEBAQYrUENqrLVsxMlgmYY5I3jdr2kbEEeogoKhozh1jtKPjhoZvPz4yu4mnjLN3nrVd9+jRsHFo3OzXucB6Ag+QcNsFBipsDHPe8XZrBsOw5kaa4cX9oWA8vOIy/qWc3L1I22OyCRh0fTh1va1fHkMgMhZptpPZzR9k2FpLmtDeT0OcTvv6eu46IIZ3CjTUmjZ9LWbGUsU5L7slFM6wG2K1kvLzLG9rQWu5iT6e8ju6INvG8PqVPU1XU0mez9zL16DqHhFi0088RdzHmaGBvzgD0AHQdEGt5LcCdC39Hvv5aSjctm72rpmdtDOZe27Rjg0bHtBzdQR+5BIWtD1Lec0/mrWazM13AiTwWR0sfnmRvLIZByedzN6dNgPRsgwv4eYYR5inWt5Cpis1K+bI42GVogle/8ArCN287A/8oNcAdz3bncNu1ovGz6sw+pG2rtefD131qVeEsbAyJ4aHt5eXcghrfT02G2yDLpbSlPT2VzORq3r9iXM2Ratiw5hb2gaG7tDWjbzWtG3d0CDxkNH0L2ta+rJrt/wyvTfSZCHs7EwvIL2lvLudy0HfffoNkGPBaJoYy7i7k1/IZOXEV5K+OdcexxrxvDQ7q1oLjs1reZ252H1kkN/NYAZDLVMrBlL+Ot1opIeas5nLJG8tJa9r2uB2LQQdtwf2kIK7Dws03Uu42zi58njPAsccY9lWxyttVi4v5JdwSfPc53M0tO7j16oPEfCvCRaUwWn6+WzkLMDcbaxtttlpngIBaGAlnKWcri3Yt7vrQSj9DY2TVsupZshk5rU2N+S5InytMT6++/KRy778xJ5t99z6uiD5jdD1Klirbmy2Uu3KNGShRtWHxmWvE/l5tiGAOceRnnODj5v1ncI5nC3CR6LxWkWZTMtxuKtst1f6aMyNex/OzdxZ1Ad12P79x0QbGY4dYy9qw6op5jN4bJzwsgvSY6y2Jt5jPmiVpaRuO4ObyuA7iEGXOcP8TkdR0NRVb+VxGWp1hU8Ko2A109cHfspecOD279dz5wPXdBu6I0fjdIRZCHGWchLHfuSXZW2rBl2lkcXPLdx03JQWJAQEHmRjJI3RyMa9jgQ5rhuCD3ghBxqzgM5V1CzhFStth0nkIpMiydspFivQY9jZqDPqL5WBr9/Njc5o6tBQdip1q9KnDTqQRwV4I2xxRRt2axrRsGgegABBlQEBAQEBAQEBAQEBAQEBAQU3I8O8O/Jz5TB38rpq9YdzzyYmwIo5nfnPhcHROd/vFvN9aDx4nam9puofstP4KB4nam9puofstP4KB4nam9puofstP4KB4nam9puofstP4KB4nam9puofstP4KB4nam9puofstP4KB4nam9puofstP4KB4nam9puofstP4KB4nam9puofstP4KB4nam9puofstP4KB4nam9puofstP4KB4nam9puofstP4KB4nam9puofstP4KB4nam9puofstP4KB4nam9puofstP4KB4nam9puofstP4KB4nam9puofstP4KB4nam9puofstP4KB4nam9puofstP4KB4nam9puofstP4KB4nam9puofstP4KD4dF6hkHJPxM1MYz87soakbv3OEPRBKaU0ZgNN2Z7tGvNPkrIDbGQuTusWpgPQ6R5J5f8AdGzR6kFiQEBAQEBAQEBAQEBAQEBAQEBAQEBAQEBAQEBAQEBAQEHmQuEbixvM4AkN323Pq3Qctg1XXv28nrgafyLctp2SbT0mL8Ji55XyywO830ElzY+U7gEOKDp9V8slaKSeHsJXNBfHzB3IfSNx37etBlQEBAQEBAQEBAQEBAQEBAQEBAQEBAQEBAQEBAQEBAQEBAQEBAQEBAQEBAQEBAQEBAQEBAQEBAQEBAQEBAQEBAQEBAQEBAQEBAQc1g0y53HfI5KrZj+TJaFa5kaoG5N5hfHA/wCr+j3JHfuxhQdKQEBAQEBAQEBAQEBAQEBAQEBAQEBAQEBAQEBAQEBAQEBAQEBAQEBAQEBAQEBAQEBAQEBAQEBAQEBAQEBAQEBAQEBAQEBAQEBAQEFIwzK+neJcmnqEDnxZurczlyxPM6SUzslrxBoJPRga/YN9HKAOiC7oCAgICAgICAgICAgICAgICAgICAgICAgICAgICAgICAgICAgICAgICAgICAgICAgICAgICAgICAgICAgICAgICAgICAgICAgICCk3/wAe2G/4Zv8A+apoLsgICAgICAgICAgICAgICAgICAgICAgICAgICAgICAgICAgICAgICAgICAgICAgICAgICAgICAgICAgICAgICAgICCN1Hn8NpzHHIZzJVqFbmDQ+Z+3O49zWjvc4+gAElBWmcRq047SlpHWduA/NmZhnsa8esCQtd/2QevKC76C6192D76B5QXfQXWvuwffQPKC76C6192D76B5QXfQXWvuwffQPKC76C6192D76DRz2rKmbw9vEZHQOuJKluIxStbj+Q7H1ObICD6iOoQcrnyXFVmrKba2nNSyVq2OnxcefmoA22V5ZYZOd0O/K6doiLA7flJIeR0IIdQ0zqapp7B1sPj9C68Neu0gOmodpI9xJLnvcX7uc4kkn1koJLygu+gutfdg++geUF30F1r7sH30Dygu+gutfdg++geUF30F1r7sH30Dygu+gutfdg++g8v4iwxDntaN1pXiHzpDh3PDR6yGFzv8AAILDpjUmC1NSfbwWSguxxu5JQwkPid+a9h2cx31OAKCWQEBAQEBAQEBAQEBAQEBAQEBAQEBAQEBAQEBAQEBAQEBAQEBAQEBAQEBAQEBAQEBAQEBAQEBAQEBBp5rJVMNh7uWyEoiqUoH2J3n8ljGlzj/gEFO4e6fnyc8WvNWQdrnrrO0p15fOZia7urIYx3B/LsZH97nbjflACC0WtSYCpfbQs5ijFZdK2ERumAPaO+aw+px9APU7oJVAQEBBrZW/UxeOnyF+YQ1a7C+WQtJDWjvPTqg8YTJ0c1iKmWxdhtmjbibNXmaCA9jhuCN+vUINxAQEBAQY7M0davJYmJEcbS5xDSSAPqHUoNHTOdxOpcLBmcJcZcoTl4ima0gOLHljuhAPRzSP3IPGp9RYXTVFl7OX2Uqz5WxNke1xBe47Nb0B6kkBBX9f6Vnmm8bdKtjqarpR7xPHmsyEY6mtPt85ru4OPVhII9IIWHSebqak03j89R5hXvQNma142czcdWuHoc07gj1goJRAQEBAQEBAQEBAQEBAQEBAQEBAQEBAQEBAQEBAQEBAQEBAQEBAQEBAQEBAQEBAQEBAQEBAQEBAQUnjkOfhlkoTvyTTVYZB+cx9mJrh+8Ej96C7AADYIOHYrIO4fyT6J4i4eWXA5HLyWMfqKPz4JZJpzKxtjbzopA8gBx6HYegboLTxO17mtIUL2ZdjsfDjsfbhjMNqf/aMhE4sD5IA0+byl+wDgdyx3zRsSEhY1blaHE6bS+Uix1bHzYmXI4+55+8nZuDZGOG+wLA5rjt3g+jYoI1nEHJV/kDE5aGjTzeYqSX3COGaWOrXbyhu7R5znuL2jboB53XoNwtHD7O5DUGnvDcpipcbbjszV3sdG9jZQx5aJYw8B3I8AOG4367ehBQdFZPVGSfxPblr9WxVpZK1WY0NfzRhtWMtazc7BnXfbbfck+lBG8N9U6l0xw04ZzWqOKl0/ko6OLcI5H+FROlZtHLufNLdwN27bjfvKC1am4jWIsrqLG6fqxWrWAjb2kUleaQ3JzGJOxYYweU8paOY7+c4DbodwvFW7auadiyMFJ1e1NVbM2tbJYY3lu/I/YEgg9D0KDlNPinq+Xh/prXcmBw3yZk7cdSzUbZk7cGWYxMexxHKAHcu4IPQk7juQWjGawzdLiFf0vqqti44m4l2Xq2qT3kNiZJyPZIH97h0PMNgR6AgjbXEbMVeHVXiVLjah09KY55ajS7wqKm94a2bm35S4Ah5Zt3bgO3HULHFqa3m9S5jA6cNRjsPHD4VbtMc9hmlZzsja1pBOzOUudv05gAD12DnPCTV8WlOBelWztY+/lMrcp127OcwPNqw97yGguLWta47AbnoOm+4D7xZ1Hk83wv1RTyGPfEzH5XGtr3m15IYbsb7MLt2tkG4LTu1w3I3AIPXYB3JBSODI5NN5Wu3pFX1FlYomjuawXZdggu6AgICAgICAgICAgICAgICAgICAgICAgICAgICAgICAgICAgICAgICAgICAgICAgICAgICAgICAgrHFXEXM5w9zOPxzea8YO2qN/OmicJI2/vcxo/egktJ5ylqXTWPztBxdWvQNlaD0cwn5zHD0Oad2kegghBUb+itQ5zRT9E6kylC7jHSMbJdYx4szV2SB7WFp3aH7Na0ycx9J2BQQ2s+FuoM47WtWDPY5lPUgikilsVXSWazowzaEO5gOx3YDsBuOZ3Tc7oLRrXRMurK+nJcjfjgyGKuNnnmrRlrZ4nMLJ4QCSQyRp2O5PQIMOvdHZq9qvEax0llqmOzeOgkqSR3YXSVrdZ5DjG/lIc0hzQ4Een0ILdhosjDj2Ny1uG1cO5kfDF2cYJ/Ja0knYd3UklBSMZorUGLymtfAsli343Uc77cTZoX9tDM+FsbgSHbFg5QRsN/R070GjNw5zvk60ZpWLK40S6buVLLp3QvLZxWI5Ghu/m83pO529CDddo3VWH11lc/pPOYyvSzzo5MnTv1XyiKdjAztoS1zepaBu13Q7b7oL3Yjt/Jr4oJI5LXZcrXzDZrnbd7g3/7IOXQ8L87DwhwWhGZjGulxV6G0bToH8sjYp+2a3l5uhJ6Hr3ILHe0fkb3FBmqbVmg/HnCPxMtPkfzua94e53Nvt3jbbbuPegiK/DbJnh43hvcytafTbHNibYDHC26o2QPEDh83fYBnaA/N/J36oN8aLz2H4iZLUulcvQr0s4yIZSldrvkDZImcjZoS1w2PKAC09DtvuggKPCXNU+H2Ew0GpqsWc0/k5MlishHTIYHSPkc+OVheeZrhK5p226berqE1rTSOsdXaBlweUzOFiv2LNeZ74KsggibFI2TZoLuZxcWDckjYHoOnULrk8lXw2BsZbMzw14Kdd09qUHzGBrd3Eb+jogr/B+jcqaFrWcjA6vdyc9jKTwu+dE6zM+bkP1gPAP1goLegICAgICAgICAgICAgICAgICAgICAgICAgICAgICAgICAgICAgICAgICAgICAgICAgICAgICAgICCh3tOag0zmbea0MKtqpelM+QwVqUxRySn501eTYiKR3e5pBY49fNJJIZma+sxjkvaC1jWnHRzGUWTt3+p8b3AhB68oLPoZrT3Q7+aB5QWfQzWnuh380Dygs+hmtPdDv5oHlBZ9DNae6HfzQPKCz6Ga090O/mgeUFn0M1p7od/NBrO4oY9mUjxbtLawF6WB9hkHyS7ndG1zWueBv3AvaP+YINnygs+hmtPdDv5oHlBZ9DNae6HfzQPKCz6Ga090O/mgeUFn0M1p7od/NA8oLPoZrT3Q7+aB5QWfQzWnuh380Hl/ECVzdquhNaWJj81hxzYgf2uke1oH70Gs3Aaj1lfrW9awV8ZhqsrZ4MFBN2xnkad2vtSDZrg0gERt3buAS52wCC/oCAgICAgICAgICAgICAgICAgICAgICAgICAgICAgICAgICAgICAgICAgICAgICAgICAgICAgICAgICAgICAgICAgpN/8e2G/4Zv/AOapoLsgICAgICAgICAgICAgICAgICAgICAgICAgICAgICAgICAgICAgICAgICAgICAgICAgICAgICAgICAgICAgICAgICAgICAgICAg0s8/KR4a2/CRVZsk2ImtHaeWxPf6GuI6gHu39CDj1niVhvKXi8taq3K+SgwF6lNhSzmui46zU5a7WD5xdtu1w80t87fbcgOuaYmzNjB1p9QVKtLJSNLpq9eQyMi3JIZzH5xA2BI6E77dEEkgICAgICAgICAgICAgICAgICAgICAgICAgICAgICAgICAgICAgICAgICAgICAgICAgICAgICAgICAgICAgICAgICCi5rO53UWo7el9GzxUoqBazLZqSMSitIQCIIWHo+blIJLvNYCNw4nYB6j4XaZkHaZafOZm0fnWL2XsOc7/AJWvaxv7GtAQe/JXob9U2feVn4iB5K9Dfqmz7ys/EQPJZob9U2feVn4iB5K9Dfqmz7ys/EQPJXob9U2feVn4iDWdwb4bOyDci7TTXXWjZtg3JzKBtt0fz793TvQbPkr0N+qbPvKz8RA8lehv1TZ95WfiIHkr0N+qbPvKz8RA8lehv1TZ95WfiIHkr0N+qbPvKz8RB5k4W6TYOfH/ACzi7A+bYp5iyx7T++QtP7wUGvj8xqDR+dp4PV94ZbE5CUV8bnDE2ORkx+bBZa3ZvM7ubI0AOPmkAkbhf0BAQEBAQEBAQEBAQEBAQEBAQEBAQEBAQEBAQEBAQEBAQEBAQEBAQEBAQEBAQEBAQEBAQEBAQEBAQEBBo6hv/JWAyOU5OfwOrLY5fXyMLtv+yCC4RYwYrhzhY3HntWqzbtyX0y2Jv6WV59ZLnn/sgtaDm0suTH4QsWIGdygxbsA7JGkJR2XbCwI9/m83Lyn5u+26CRu8VtE1aV64chbmr460a158OPneKrm7cxk2Z5jRuPOPTv8AUUEjmNeaZxWZx+ItXZjcyVd9mmyGrJKJ42tDiWFrSHHYjoNz1HRBpxcT9GP0te1I7IzxUMdP4PfElKZs1STcDlli5edneOpG3UdUExZ1Thq2pK2nZp525K1Wfagi8GkIljYBzFruXlJG46A79R0QQ/CzXLNb4+7a+TrVN1e9Zrta+vI1pZFKYwedzQOY7blo6ju9CCw5jM4/HzR053ySW7DHuirQML5ntbtzODW9QBuBzdACR16hBzjgnqKnV0zqi/lclbjqt1bdq1flCSR0wbzsbFCA/d5d6Azv39CCfz3EvD1NBaj1NjobVuXAtlZZpSV5IpY5mt5gyRpbuwEEHm222O+6CTo60xcmAx+QtC1FZvR7w0/BJRPO8MD3iKIjneADvuBtt6UEppbP4rU2Dr5rC2vCaVjm5H8haQWuLXNc1wBa4OBBBG4IQSaCE15g4NS6OyuEnPKLVZzWPB2McgG7Hg+hzXBrgfQQEGPhxmJdQ8P9P52f+uv42CxJ02858bSf+5QT6AgICAgICAgICAgICAgICAgICAgICAgICAgICAgICAgICAgICAgICAgICAgICAgICAgICAgICAgICCI1tWmuaNzdOuwvmnx1iONo9LnRuAH+JQa3Da3De4eacuV3B0UuLrOaf/8AE1BYEHMppJx+EZFf+TMoaDdOOoG4KUnYCc2GvDOfbb5o337vrQV/FwZA6E4vwHD5Zs2Vv5CWhE6jIHWWzVmxxlgI67uBH1d52CDTt5JmD1dwXsZGpkmdhgb1eaGOlLJNG8QVmneNrS/YEbE7fX3dUG5xB0Xmc3pDifmsdjZ229R16rKVFzeWWRlZo89zfQ95LgGnrsG77EkAJH5Rs53i3oXP1NP6gixsWLvQTTWcdJF2MknYbNe1wDm9WnqRt6iRuQElwHFvHYzN4DIYzI07lbOX5nOnqvZFJHLYc9jmSEcrwWuB80n07oNfNS5TTHHOTUV3EZPJYPL4eHHw2aNV9l1KaOV7ix7GAuDH8+/MBtuOvdugq+KtanwmlNUWq+lMkJpdcTXSZ8aZpYacso3swR9e0kaAdgN9t99j3EML8Pmr2P4yYyth8/LLnKDJ8bNdrFptDwMR7c2wAeXAgM2BHToEFluaiyhx2hJ6WBzVfGzRuq5C43DyOvU3CJgaxsbmlzGvdu10nKQOUevmASP4PNe9j9KZXGZHGZOjYgzd6Ta7EWmRsk73sc13c/zSNyCRue9B0pBq5i3Bj8RcvWnhkFaB8srj+S1rSSf8AgrfBerPR4R6RqWWFk0WGqte0+g9k3ogtyAgICAgICAgICAgICAgICAgICAgICAgICAgICAgICAgICAgICAgICAgICAgICAgICAgICAgICAgICAg5pTveS/J2cdl2uZoy5YfYx+RAJZjJJHFz6823zIi4lzH/NG5adtm7h0arYr267LFWeKeGQbskjeHNcPWCOhQZUBBUNRaQu5XiDgdWRZqOt8ixTxRVTU5xI2YNEnM7mB7mN22HTr3oLegICAgICAgIPE0sUETpZpGRRsG7nvcAGj1klBzbP5EcTZzpfTrjNpgSgZzLM/qbEbTuakDv/ML9tnvb5rW7jcuPQOlsa1rQ1rQ1rRsAB0AQfUBAQEBAQEBAQEBAQEBAQEBAQEBAQEBAQEBAQEBAQEBAQEBAQEBAQEBAQEBAQEBAQEBAQEBAQEBAQEBB5e1sjHMe1rmuGzmkbgj1FBT5+F2hJJ3zxafipPed3+AzSVWuP1tic0f9kHjyW6L/Qch72tfEQPJbov9Bv8Ava18RA8lui/0G/72tfEQPJbov9Bv+9rXxEDyW6L/AEG/72tfEQVW3oHTTOLmMwzYckKE2BuWZIflW1s6Vlis1rv6zfcCR4/egtXkt0X+g5D3ta+IgeS3Rf6Df97WviIHkt0X+g3/AHta+IgeS3Rf6Df97WviIHkt0X+g3/e1r4iD6zhXoLtGPsYBt3kO7WXbM1lg/wCWR7m/9kFxrwxV4WQQRMiiYA1jGNDWtHqAHcEHtAQEBAQEBAQEBAQEBAQEBAQEBAQEBAQEBAQEBAQEBAQEBAQEBAQEBAQEBAQEBAQEBAQEBAQEBAQEBAQEBAQEBAQEGlnb0uMw9vIQ4+1kZK8RkFWsAZZdvyWAkAn6t+qDnT9W6ds8RsPq9mUgbhG6SyMz7TyWiNrbVTmDgeocCCC0jcHptug6BpjLHOYKtlvk67j22Wl7ILjAyYM3PKXN3PLuNjseo32IB6IJJAQEBAQEBAQEBAQEBAQEBAQEBAQEBAQEBAQEBAQEBAQEBAQEBAQEBAQEBAQEBAQEBAQEBAQEBAQEBAQEBBH6jzWN09hbOYy9ltanWbzSPIJJ3Owa0Dq5xJADR1JIAQVKtLxG1QPC4ZKmjMY/rDHNWFrISN9BeCRHCT+b55Hp2PRBseKWrvahm/d9L4KB4pau9qGb930vgoHilq72oZv3fS+CgeKWrvahm/d9L4KB4pau9qGb930vgoHilq72oZv3fS+CgeKWrvahm/d9L4KB4pau9qGb930vgoHilq72oZv3fS+CgeKWrvahm/d9L4KCnXOAsFvVzdUWNb5t+QbL25Hg1YQul8085i7PkLt2MduR1c1p7wguPilq72oZv3fS+CgeKWrvahm/d9L4KB4pau9qGb930vgoHilq72oZv3fS+CgeKWrvahm/d9L4KB4pau9qGb930vgoHilq72oZv3fS+CgeKWrvahm/d9L4KB4pau9qGb930vgoHilq32oZz3fS+Cg17LOJWnGm1DcpazpM6yVX12073L6eze09k93+65rN/wA4ILRpTUGL1NhYstiZnSQPc5j2PYWSQyNOz45GHqx7SCC09QUEqgICAgICAgICAgICAgICAgICAgICAgICAgICAgICAgICAgICAgICAgICAgICAgICAgIKFl4G6l4v08ZZHaY3TVJmTdER5slyZz2QuPr7NkcjgPQXtPeAgu9xth1WRtSWOGct/o3yRl7Wn1loI3H7wg55w21BrvV/D2pqZtrTsVyyZg2qaMwi8yVzAC/tSRvy778p237igneG2s49WYi9JbouxWTxVuSllKckgcIJmbE7P6czCCHB2w3BQSOT1Xp+hpe/qV+Uqz4yhFJJPNXlbIByDdzRservRt37kBB7wupMPldNwaghvVo6UsDJnvfMwCEOaHcrzvs0gEb9UElStVbtWO3Ssw2a8reaOWJ4ex49YI6EIMNzKYynahq28jUr2JyGwxSzNa+Qk7ANBO53PTogicTrPAZPVuW0xVuxm/izE2drntAc97S7lZ13cWgdenTfb1oJeDJ42fITY+DIVJbkDQ6auyZrpIx63NB3A/agwWs/gqoabWaxsAdN2DTJaY3eT8zqfndR07+qDdtWK9SB09qeKCJvzpJHhrR+0lBQ+FOpr2dz+ta1rMQZSlispHBSnibGG9mYGSEbs6O2LiN/qQXWhlcZkIZZqORp2ooXlkr4Z2vaxw7w4g9CPUUHyrlsVatNq1cnSnsOi7ZsUc7XPMe+3OADvy79N+7dBRtVatsV+K+jMHiM/TmqZKa1FkaLOzkeBHA97Xbjzm+cAPV0QWqhmZhczb8rNiK2OoysEE8dwOcGFgLjMDsIzzbgDfuQb9LLYq9MYKWTp2ZQ3mLIZ2vcB69ge5B8r5jE2W2nV8pRmbUO1kx2Gu7E9+z9j5v70FaxuvKOpOH02ptJz0JpXQvfXiv2RC3cOc1vakblgdyk9euyCz2MlTpUIrWTuU6jHgbvkmDWcxG+wcdt/Sg9OyOPbRbedeqtqPAc2cyt7NwPcQ7fbZB5p5XF3LtijUyVOxbrHaxBFO10kX/qaDu396DcQUKWEac4x1ZKg5KWq6srbUTfm+G12hzJdvW+Lna4+ns2IL6gICAgICAgICAgICAgICAgICAgICAgICAgICAgICAgICAgICAgICAgICAgICAgICAgIKTp5wbxk1bE47PfjMbI1vrbvYbv/iCP3ILnNJHDC+WWRkcbQS5zjsAPWSg5L+DrqPAUuCGLntZmjEyCS0Jd5m7tPhEh227ySCNgOp3GyCALYsHpLVOuNVYWxHW1JqerZq07Ezq4hia+OOCS0fyGEt53tIPmkAjvCCOM9S0OOONht4u5LaxENqvBSaBHK80nh74mbnm2IaC8d5A7igsUeo9KVdMcMhEMVYfZjbFBclthlGpMKgLzMGnZ0hbuGtdsdyeo2QSv4M9uo7Suexte5VlfS1HkG9jDs0RRunc5mzNzyMO5LR6j0QQ/EKzYw+sM5qPFPx+oKElqhTzuAtAttRPaWdjLVcOu/wDSNcGkbEgkHffYJDTFjD4/jLxNhuNrstPjoz14GcrbEzPBXc5iHQkkgjdvpQU/SmoMBZ13wnyuOsYfHUJ6V6s2vFY7SaJhgaWRWZifOlLhvykb8wd1ceqD1Rxulp+HPGx7qeIkEOUyfZu5Iz2e1dhZy/m+d3bbdfrQS9HUsNLWHDKzqfIRR6es6W/2W1YkAgOTLYty9580P7MPDd/S523VBGjUOl6EXF63YijydAZynK+tUs9kJGmOu3nc5vdFz/PdsQRzbg77EJjQ17DycXtd1rWQwE0OQwdGd0VVzRWm5RMHkAkiTZvKHO/ZuAgq+Ax0FL8EWlqHTeOifmxi2RW7lVodbFU2Gmwxrx5w/ow7pv026dyC2am1Foy9xI4T28DlcPJUFi42N8ErNo2OqODGHb5u52HKduvTbdBi07e0ji85xitZw0hhqeUrWrMLeUtcG1onfMHziZBtt6XbgoNTG28LQ0XqnV+roXW8/qLGTXZsXj5uWepjY2gRwBzCDHs1zS53Td7z37INjRWUxNnjzEY7mnzBlNHsayHHPaYJHNsebGHf+a9rD6gQD3AIK1jJMFL+BPkajn4512rip22YiWdpDMJXhoeO9rwe7fr6kF+xl1sfG3Evy8sfyZY0rG3ByvcDCZ+03sNae7tCzsz6y0dPSg5/r2pWh4ScSw5lcaf8Z4X4QSABjSZYO3MO/c3tDKPN6fP29KDoGZgw2M/CH0R8lR0KjrmHyLJvBwxhmaOxdGHbfOG/MR+9B1pBSdbOB4kaBjB3f4VdfsPzRVeCf2buH+IQXZAQEBAQEBAQEBAQEBAQEBAQEBAQEBAQEBAQEBAQEBAQEBAQEBAQEBAQEBAQEBAQEBAQUPiHDdwGocdxAx9We3FSgfSzNaBpdJJSc4O7VjR1c6J45th1LXSAddkFvx9zF57EQ3aU9bI4+3GHxyMIkjkafT6ig918dj68naQUasT/AM5kTWn/ABAQZrMEFmB9ezDHNDINnxyNDmuHqIPQoPEVOnE/niqQRu7MRbtjAPIO5v7B6u5BiGJxYpspDG0xVY/nZD2DeRrt99w3bYHf0oM8NeCB8r4YIo3Su55CxgBe7u3O3efrQY34+g+828+jWdbaNmzmJpkA9Qdtug9GnUN0XjVg8KDOzE/ZjtOX83m79vqQY48ZjYg0R4+owNlMwDYWjaQ9C/u+cfX3oDcXjGxvjbjqgY/bmaIW7O26jcbdUH2bHY+amKctCrJWB3ELoWlgO++/Ltt3oPZp1CyWM1YCyYbSt7MbPG22zvX06dUGNuMxrWBjcfUa1sXYgCFoAj335O75v1dyDLWq1qrHMrV4YWuO5EbA0E/uQY62Nx1YNFehVhDXF7eSFrdnHvI2HefWg+DGY0c+2PqDtPn/ANC3zuu/Xp169UHqvj6FcvMFGtEXt5X8kTW8w9R2HUIPlbHY+t2Pg9GrD2DS2Hs4mt7MHvDdh0B9OyDyMXjAySNuOphksnayNELdnv8Azj06n6+9B6nx2PnqNpz0KstZp3bC+FrmAj1NI2QepaNKWGOGWnXkij/q2OjBa3pt0HoQfBj6AlZKKNYSRgBjuybu0Du2O3TZB7vW6tGnNcu2Iq1aFhfLLK8NYxo7ySegCCi6HdPq7WE+vpYJIcTDVdRwDJWlr5YnODprRaeoEhYwM368rN/ykHQEBAQEBAQEBAQEBAQEBAQEBAQEBAQEBAQEBAQEBAQEBAQEBAQEBAQEBAQEBAQEBAQEBAQUu9w7xzMjPktNZXK6Wt2HmSf5MlaIJnnvc+B7XRlx9Lg0E+klB48VNb+1PKe6aXw0DxU1v7U8p7ppfDQPFTW/tTynuil8NA8VNb+1PKe6KXw0DxU1v7U8p7opfDQPFTW/tTynuil8NA8VNb+1PKe6KXw0DxU1v7U8p7opfDQPFTW/tTynuml8NA8VNbe1LKe6aXw0EBYpa9i4h0dMDiXfMNnE2b7pTiafO10UsEYaP6PbYiUn9wQT/iprf2p5T3RS+GgeKmt/anlPdFL4aB4qa39qeU900vhoHiprf2p5T3RS+GgeKmt/anlPdFL4aB4qa39qeU90UvhoHiprf2p5T3TS+GgeKmt/anlPdFL4aB4qa39qeU900vhoHiprf2p5T3RS+GgRcOaVy1Fa1Zm8tqp8Tg+ODISMbUa4HcO8Hja2NxHoLg7b0bILsAAAAAAO4IPqAgICAgICAgICAgICAgICAgICAgICAgICAgICAgICAgICAgICAgICAgICAgICAgICAgICAgICAgICAgICAgpF/wDHvhv+Gb/+apoLugICAgICAgICAgICAgICAgICAgICAgICAgICAgICAgICAgICAgICAgICAgICAgICAgICAgICAgICAgICAgICAgICAgIK3mNfaGw1o1ctrHAUbAOxinyETHA/WC7cINHyrcMvaDpf3pD95A8q3DL2g6X96Q/eQPKrwy9oOl/ekP3kDyrcMvaDpf3pD95BpZ7iTw6yOGt0anFLT+NsTRFkVuDJ1y+F3ocA4kHY+goOP2eNtKHiHj+2yOBt5+vh7eLFyG4wYuWWSes+OwZd9mR8kb3OZvzAtLRvuCQ63pjiPoHG4OtTynFbTmWusBM9uTI12GR5JJ2a07NaN9gOuwAG570El5VeGXtB0v70h+8geVbhl7QdL+9IfvIHlW4Ze0HS/vSH7yB5VuGXtB0v70h+8g2sXxE0DlLTauN1rp63O75scORic4/sAcgtAQEBAQEBAQEBAQEBAQEBAQEBAQEBAQEBAQEBAQEBAQEBAQEBAQEBAQEBAQEBAQEBAQEBAQEBAQEBAQEBAQc4LbvErMXIvDLFLRWPsPqubWkMcuYnYeWTd7fObXY4FmzSC9wdueUbELnhNO4DCVG1MRhcfQgaNgyvXawfv2HU/Wg2OfGc/JzU+bfbl3bvv6kGfwav/YRf9AQPBq/9hF/0BA8Gr/o8X/QEGlSvYK7fs0KdrH2bdTbwiGJ7Hvh3325gOre49/qQbvgtbffweLf/ANAQPBq/9hF/0BA8Gr/2EX/QEDwav+jxf9AQPBq/6PF/0BA8Gr/o8X/QEGnlsHhctUdUymIoXq7hsY7Fdr2n9xCCi3a03CyeDIULNifRMszYr1KeR0hxPOdmzwuduRCHEB8ZJDQeZuwBCDpY6jcICAgICAgICAgICAgICAgICAgICAgICAgICAgICAgICAgICAgICAgICAgICAgICAgICAgICAgICAgICCL1hcmx+ksxfrnaatQnmjPqc2NxH/cINDhhRhxnDnTlGuNo48ZB19LiYwS4/WSSf3oLGg4l2ejKXHDX7dSVcUypLisceSeu13OXdvz8o23Ljs3u6nYd6D1oPU+e0Hwv0wzO4PK3jlcy+hSimmAs1oJZHms2QPPMTyDuPUDYHZBb5Nf2KUmOxeexdLC5++LEralnJs7GKCJwb2rpQPyi5mzQNzufQCQH3C8SqGVxmJdXoS/KuUu2KMFHtAR2kBd2r+0A2MQDeYPA6hzdhudkFc0fNkYuNXEme1jIPCmYrHFsFaxu2YBs+x53Nbyk93UdNu9BLcPNW4aHhlpB+GxlqN2ZYYsXjpbZllO3O53PK7c8rWtc4uO+3QDckAhqcU9Wa4wuiZbjMNUxlwZmnTZLHfEzJYZJo2lzCYwQTzFh5mgjqRv0QSmbyzGcTtEY/MYGVmRtxXn1bMGRJhgc2P8ApGuZs3tN28uxLem527uoe7XECd+CzWo8Rg3ZHC4aeaKeUWA2awITtO+FnKQ4MIcBu4cxadvQSC7xF59SYDEYPCSZWPP4yTI0LbbTI43sYGHZ2+5aNnt67enuKCS4c6tm1TXysN7FHFZPD330LtbtxMwPDWvDmPAHM0te09wP1ILUg0dQ4+tlsDkMXcYH1rlaSCVpHe1zSD/2KCD4P358pwp0pkLTi+exh6skjidyXGJu5QWpAQEBAQEBAQEBAQEBAQEBAQEBAQEBAQEBAQEBAQEBAQEBAQEBAQEBAQEBAQEBAQEBAQEBAQEBAQEBBHanoPymmspjInBr7lOWBpPoL2Fo/wDmgiOE+SjyvDfAWmDle2jHBPGe+OaMdnIwj0Fr2uBH1ILQgoOnMDqSnxc1Fqa3RotxmWq1a0fJbLpY+w7Tzi3kA87tO4Hpt6UGfivgM3n3aaOGr1ZPkvN18nP29gx8zIubzG7NPU83p6dEGlrzTOp/HvD670rDjbtyrSkx93G3pjEyaF7g8Fkga7le1w9IO4KDFrXTGsMjkdLayxbcQNRYKScOoPme2tPXnaGyRCXlJDgGtIfy7bg9AEHrA6e1dV4g6o1TdpYgRZjG1YIq8V15fHJC2ToXGMAgmTq7p3dAUFcxfDnWeI0JoX5OkxbdTaOfIGQyTONW7DI0tkYXhu7CQRsdjsR6UFj1/gdZ6x4dT1bFTEUcuy5VuVabLL5I94ZmSFj5uUdXcpG4bsOnegz53B6oy3EHROpHY7HwQ4Zlvw2IXS5wNiMM2YeQc3Ly7nfbffog0MNo/U+ndL6i0bim0bOOyM1uTG3ZZi01G2S5zmSx7bv5HPcQWnzhsDy96D1j9CZLDa10RLioa8mE01h5cY6SWwRNJ2jYhzhobt07Pr16831IJbhtp/N4XUGr72Vgqxw5rK+HV+xsGQtb2TI+Vw5RsfM36b9+3oQXdBE6yzFbT2lMrm7jgIaVSSZ3+9s0kNH1k7AfWUGjwuxNjBcNtNYa2CLFLF14JQfQ9sbQR/igsiAgICAgICAgICAgICAgICAgICAgICAgICAgICAgICAgICAgICAgICAgICAgICAgICAgICAgICAgICAg59k8fm9Fagu57TeNlzGDyUvb5TEwECeCcjZ1iuCQHc2w549xuRzN6kghvUuKWgbDSJtTUsfM359fIk1Joz6nMlDXA/uQbPlI4ffTfTvvKL7yB5SOH303077xi+8geUjh99N9O+8ovvIHlI4ffTfTvvGL7yB5SOH303077xi+8geUjh99N9O+8ovvIHlI4ffTfTvvKL7yB5SOH303077xi+8geUjh99N9O+8YvvIHlI4ffTfTvvKL7yB5SOH303077xi+8gwXOKPD6szcasxlt5+bDSl8JlefU1kXM4n6gEEYypmeIOWpXMxjLGH0pRmbZgoWhy2clMw7xvmZ/wCXEwgODD5znAFwAGxDoiAgICAgICAgICAgICAgICAgICAgICAgICAgICAgICAgICAgICAgICAgICAgICAgICAgICAgICAgICAgICDDYq1bBBsVoZtu7nYHbf4oMXyZjf1fU/gt/kgfJmN/V9T+C3+SB8l4z9XVP4Lf5IHyZjf1fU/gt/kgfJeM/V1T+C3+SClXsdj/AC54dngFXkOmr527Fu2/hNP6kF1+S8Z+rqn8Fv8AJA+S8Z+rqn8Fv8kD5Mxv6vqfwW/yQPkvGfq6p/Bb/JA+S8Z+rqn8Fv8AJBkr06ldxdXqwQk95ZGGk/4IM6AgICAgICAgICAgICAgICAgICAgICAgICAgICAgICAgICAgICAgICAgICAgICAgICAgICAgICAgICAgICAgICAgICDUzOToYbFWcplLLKtKswyTzP8AmxtHeT9SCoWpopeN+EsRysfC/S157ZGuBaWmzTIIPq29KC24PLY3OY2PJ4i5FdpylwjniO7H8ri07H0jcHr3IN1AQEBAQEBAQEBAQEBAQEBAQEBAQEBAQEBAQEBAQEBAQEBAQEBAQEBAQEBAQEBAQEBAQEBAQEBAQEBAQVfVetaGFyceEp0rubz0zO0jxtBodI1hOwkkc4hkTN/ynkb9dtz0QaDcjxTn/pGaW0tUYfmxWM1M+QD/AHuSDl3/AGE/tQevC+Kv6i0d72sfAQfPC+K36i0d72sfAQPC+K36i0d72sfAQPC+K36i0d72sfAQffC+Kv6i0d72sfAQPC+Kv6i0d72sfAQfPC+K36i0d72sfAQPC+K36i0d72sfAQPC+K36i0d72sfAQPC+K36i0d72sfAQPC+Kv6i0d72sfAQeZLHFKWN0cmn9GPY8Frmuytggg94I8HQcuscJeJT83Ga82na2nGwS1jhmZKfYV5XxySV2zdjzNhc+JvmgdGlzQQD0Dp9R/E6pViq1dOaKgghYGRxx5Sw1rGgbAACvsAB6EGXwvir+otHe9rHwEDwvir+otHe9rHwEHzwvit+otHe9rHwEH3wvir+otHe9rHwEHzwvit+otHe9rHwEH3wvir+otHe9rHwEHzwvit+otHe9rHwEH3wvir+otHe9rHwEHzwvit+otHe9rHwEH3wvir+otHe9rHwEDwvir+otHe9rHwEHl1/ipEO0OmdJ2Gj50ceZnY8j6i6vtv8At2/aEG5pvW9XI5YYHMY25p7Olheyje5dp2jvdDI0lkoHp5TuPSAgtaAgICAgICAgICAgICAgICAgICAgICAgICAgICAgICAgICAgICAgICAgICAgIILX+eOmNHZPOMg8ImrQ/wCzw77drM4hsbP+Z7mj96DBw90w3TWELbMvhmYuu8Jyt5w8+1YcPOd9TR81re5rQAEGHiHq92kIsZK7DWMjHkb8VBhhmYwslldys35iOhPefQgwZ3XcWmpaztVYa7iqFmZsDciHMmrRPcdmiRzTzRgk7cxby7+kILiCCNwg1bWRo1b1OjZtwxWrrnMqxOds6UtaXu5R6dmgkoNpAQeJ5YoIJJ55GRRRtL3vedmtaBuST6Agx465VyFCvfozsnq2I2ywysO7XscNw4fUQd0GdAQVziZqG3pLQuW1LUoQ3342s6w6CSYxBzWjc7ODXdf3IJrF2TcxlW25gYZ4WSFoO+3M0Hb/ALoNlAQUfTOureQqawmvYKUSaavyVDXoPNmS0GRMk3YC1vnHn2Df+6C6VZvCKsU/ZSRdowP5JG8r27jfZw9BHpCDIgIKni9V3LPFDLaNsY6GKKljYb8Vlk5cZWyPezYtLRykch9JQWxAQEGpYyVCvkquNmtxMuW2vdXgLvPkDAC8geobjc/WEG2gICAggtc6Zp6qwT8dZe+vYY4TUrkXSWnYb1ZNGfQ4H/Ebg9CUGDhrnbeodIVbmSjZFk4XyU8hGz5rbMLzHLt9Rc0kfUQgsiAgICAgICAgICAgICAgICAgICAgICAgICAgICAgICAgICAgICAgICAgICAgpPGbY6Yxwd8057GBwPcR4ZF3oLsg5tx//wD2TpP/AIuxn/1UGf8ACNmrM4M6ipzM7afIVvAqUAHM+azIQ2JjB6Xc2x6eon0IK5rU2GYG/gX5vM2sti9LxTOrY+Y1m0JmMf8A7VJM1w5i5zOjDzdGHzTuSgjp2eM2rOCWWy01t9vJYazNZfDalh3caUbyW8jhy7lx32237juAg+8WM3Zr43O5jB5zM3b2CzdWMWIpTBVobvha6qWh205LXkuJDvnjqNgEHac26ZuHumtahpz9g/sp5fmRP5Tyudv6Adig4hSvTWNKat0xqmnnMTqivpeaS7BLefLXyDY2uHhkMgd6XdHDp0cGkHZBOaZ8BxXDPh9RGWy0TsrVg/8ADq0r5Jsi7wTcxse528LG7c5LS0AN26boKzay+fh/B44gvbmMrVuafzF6tRnFxzrEUcUjeSN0ve/YOLdz3gDqgt1yC3p/i/oV1PM5aePP17sOShs23yxS9lXEsbwwnlY4O3+aB0OyCq6gvu11+DbrHVeWmsOulmREdeOw+NtNsL3sZFytIB81rS7mB5i479NgAtmpZ4bsVXANymWnsnTQsNxmPkNcwHoBaknDgR1HK1vXqCeU+gK3JmtQ5fQfBvIP1DkqtzM3a1fISwS8vhDHV5HOLh3FxLAd/QeuyCzY/wD8P4n43hl8qZSTE1sHNlOa3cfJPdkfY5Awyk8zmRguO2/Xdu/QdQp0EUuE4e8bn4i9kKM1DLWZ608Vp/ascypC5vnklxG/rPd0QWniBeloaUweRr279zUeVx8ONwuPZckiZLakAc6aTkcC4MHnOJ7g0/nIMV6zl8JqLRHDiPLPyxlp2p8jau5B8cl6aIM/o+0Ac4f1jn8nTo1o3233D7et6o0vb0rpDK5nnhz2oLEYsxyvdJWptjdLHV7V2zi8u2Zz9HcvQdeqDa0pjquM/CP1LFUbM2OTTdKQiSZ8mxM8wO3MTsOncOm+/rQbXGqTJR53QcOOzOQxrb2fbTsitLyiSJ0MriCO4ndg2J7u9BGSC9j+I+O4aUbVu9ja2ElyTvlLLSsmtPfYLdjKGue8Rjfzdx85pJPKEGHUdbXOnsBgG5B1jWFfHNtfLFLH23R3JYXO/oJWklrpTG0FpG4LiebvCCPgjw2o+KPDLI0slk79K3pu6+Ky+3LFLI1vYBpdyuGzup5tu89+6Cb0xLa1xjtc38hk8hRu4/MXMdREFl0XyeyBoEbg0HYucf6QlwO/MB80bIK3jc1qDWVvhJPezOVxnjFibxykNOcxNm5IAQ9oHzHHckOHUb9NtgUE9F8qW+IOQ4e1rM9nH4PBVuxNzKyw2Jnyl4NgyMaXSFvI1u5I2JJ6kjYOkaLqZmhpTG0tQZKPJ5WCu2O1bjbyiZ46c23rPp+vdBLoKXwr2D9XAdw1Lb2H/LGT/wByUF0QEBAQEBAQEBAQEBAQEBAQEBAQEBAQEBAQEBAQEBAQEBAQEBAQEBAQEBAQEFe4j4KfUmisniKcrYbskYkpyu7mWI3CSJx+oPa3f6t0HvQWpa+qtOQ5KON1a00mG9Tf/WVLLekkTx6C0/4jYjoQg+6v0jg9WQ1oc7XnsRVZmzwsZakiDZWndr/McPOHoPoQZa2msNDkIci6q+1cgBEM9ud9h8W42PIZCeUn0kbboNLO6F0xm88c3kce6S4+oacxbPIxliEknkla0hsgBJ25gdt0Gp5NdIjFYTGMo2Y4MHIX45zLszZYd28paJA7m5S3oW77bbBB4zHC/RWWny0t7FSSDLcjrkTbUrY5JG7csvIHcokHK3zwN+g6oLLLicfNg34Sav21CSuaz4pHudzxlvKQXE7ncekndBH47SOEpNm3gmtvmqeAvkuTvnea/X+i5nEnl6nf1+ndBFM4Y6PZgMdhG07grYyds9F4vz9tWc0EAMk5+ZreU8vKDtt02QfXcMdFnG5fGDFSMpZibt79dluZrJn7DckB3TfYE7d56ndBJWdH4O1lcPlLENqS5hmltCU3Jd4Q4crvytnFw6EnfcdCgi7vC7RFyzl5ZsQ9rMzuchXjtSxwTvPfIY2uDec/nbboNm1w80nYuY62/HSibH1TShc21KOeuevZSbO/pGb9eV24QYa3DPR9bG4rHQUbUdbEWDZoMbfnHg8nXzm+f6ASB6ACQEEhqvRmntT2cfby1OR1zHPL6duCxJBPDv8AOAkYQ7YgdRvsUGkzhvo5mPzFCPFyMrZp3NkWNtzAWCRsebz/AEgbHbvHfugzyaE03Jexl817Yt4qq6pSnF6YSQxHvaDzb9RsCe/YAb7IMGW4caQymEgxFzGyOir2X24J22pRZjncSXSNmDu0DiT1PN6vUEGfKaC0rk9MM05fxnhFFkonYXzSGZsw7pRLzc/af72+6D3hdDaaxGe+XqVOf5UNZtZ9qW3LI+SMb7B3M483f3ncoNnUmlsNqG1j7OVhnklx03hFR0dmSLspdiOccjh52xI3PoJ9aDW1jojTmrJaNjM05XW6Di6pbr2JIJ4d/nBskZDtjt1G+xQe5tG4JxpPgitU5KUL68Mla1JG8xPIL2uIdu/cgEl2536779UGG/oPS1z5D3xpr/ILSzGmrO+AwsLQ10e7CCWEAbg9DsEGW7ovT9rI3rxrTQSZJgjyDa9h8TLjQ3lHataQHHl6b95HQnbog93tHYC5mcVl5akjLeIjMePdDYkibXY4AOa1jSG7EAAjbqAAg19WaD0zqfKVMrlKUwyNRpZFbq2pK8wjJ3MZfG5pLD+aeiCw0atejThp1IWwwQsDI2N7mgdwQR2sNQ4/S2nrWayT3djA3ZkbBvJNIejImN/Ke5xDQB3koI3hbhr2G0fC3LBrcremmyGQa07hk87zI9gPpDebl/5UFpQEBAQEBAQEBAQEBAQEBAQEBAQEBAQEBAQEBAQEBAQEBAQEBAQEBAQEBAQEBBUNSaKfYzb9SaZy8uns89oZPMyIS17jR81tiEkB+3cHAteB0DtuiDXZZ4rQDs5MTpC8R/50d+eAO+vkMbtv2cx/ag9eH8Uvo3pX3xN8BA8P4pfRvSvvib4CB4fxS+jelffE3wEDw/il9G9K++JvgIHh/FL6N6V98TfAQPD+KX0b0r74m+AgeH8Uvo1pX3xN8BA8P4pfRvSvvib4CB4fxS+jelffE3wEDw/il9G9K++JvgIHh/FL6N6V98TfAQPD+KX0a0r74m+Agi5tV8R4tWVtNHS+mjbsUJrzHjLy8gZHJGxwP9DvvvK3bp6CglPD+KX0b0r74m+AgeH8Uvo1pX3xN8BA8P4pfRvSvvib4CB4fxS+jelffE3wEDw/il9G9K++JvgIHh/FL6NaV98TfAQPD+KX0b0r74m+AgeH8Uvo3pX3xN8BA8P4pfRvSvvib4CB4fxS+jWlffE3wEDw/il9G9K++JvgIHh/FL6NaV98TfAQeXW+Kso5I8LpCq4/+bJkp5Q3/lETd/8AEIMuD0XZfma+odYZg5/LVSXVGNh7GnScRsXQw7nz9iRzvc523cR1QXJAQEBAQEBAQEBAQEBAQEBAQEBAQEBAQEBAQEBAQEBAQEBAQEBAQEBAQEBAQEBAQEBAQEBAQEBAQEBAQEFJv/j2w3/DN/8AzVNBdkBAQEBAQEBAQEBAQEBAQEBAQEBAQEBAQEBAQEBAQEBAQEBAQEBAQEBAQEBAQEBAQEBAQEBAQEBAQEBAQEBAQEBAQY7E0NeF01iWOKJo3c97g1o/aSghjrPR7SQdV4IEHYg5CL7yD546aO+lmB94xfeQPHTR30swPvGL7yB46aO+lmB94xfeQPHTR30swPvGL7yB46aO+lmB94xfeQaWd1Xpy5h7VbG68weOuyRFsFoXIJOyf6HcrnbOH1ION2+L8EHErG+Ftxsup4MLbxnYwW2+AzWJJ6z45hPvs2Esje87+c0NLdidtw6/pjVWEp4OtXzmvtP5LJBpNiyy3BExzySSGtDujRvsN9zsBuSUEl46aO+lmB94xfeQPHTR30swPvGL7yB46aO+lmB94xfeQPHTR30swPvGL7yB46aO+lmB94xfeQPHTR/0swPvGL7yCZqWa1uBs9WxFYid82SJ4c0/sIQZUBAQEBAQEBAQEBAQEBAQEBAQEBAQEBAQEBAQEBAQEBAQEBAQEBAQEBAQEBAQEBAQEBAQEBAQEBAQQWutRxaX0+/IurSXbUkjK1KnEdn2rEh5Y4m+rc957gASegQV7F8Po8q9mX4iSRaiyrjzirICcfS/3IYT5rtu7neC53f07gFnbpfTLWhrdO4hoA2AFKPYf9kHzxb0xz8nyBh+YDfbwOPfb/BB68WNN/R7E/Yo/wCSB4sab+j2J+xR/wAkDxY019HsT9ij/kgeLOm/o9ifscf8kDxY019HsT9ij/kgeLOm/o/ifscf8kDxZ039HsT9jj/kgeLGmvo9ifsUf8kDxZ039HsT9jj/AJIHizpv6PYn7HH/ACQY59PaVgidNPg8LFG0bue+pE1oH1khB9g09paeFk8GDw0sT2hzHsqROa4HuIIHUIPR0xpojY6exBB//oo/5IK3luHGPqyvyuhpW6UzTfOa6mzlqWD+ZPXHmPafWAHDvDggmNAaldqTFTG5U+T8vj53U8nS5+bsJ2gE7H8pjgWva70tcPrCCxoCAgICAgICAgICAgICAgICAgICAgICAgICAgICAgICAgICAgICAgICAgICAgICAgICAgICAgICCjakYL/GTSdKYAwUcdfyLGn0zAwwtd+5ssn/AFILyg59x11JfwGmMZSxVp1O/nsvWxENpo3dXEzjzyN36cwY122/cdigk83oDAXNNyY2nWNC2yI+C5KFxFuGUDzZe2+e52/U7k83UHcFBUOHnFS3Y4Y6QzOfx8tm9lMmMJZlgLWtbYEjoxIQSPNdyEnbu9SC2za1kOp9Qabgw1g38Rj47zHOmYGWGPLw3Y7+b1Y7ffZBUtNcUcxV4Qae1dqHT9m7LknVYnSVZYgHuneGhwZuCBu4ADqfX60Fooa7mdrKTSmW01fxWRmqyW8X2s0T478bNuYNc0kNeNxu09wO+6DRj4p0pOH2D1pHhLzqOWux0+z7SMPgc+fsWl3XqOb83fog9Y3VeorPGrNaXdjA7FUsfUlYRKwFpkfKHSn0kEMADR3bfWgmeIGs6+jhiHWsXfusymQjoRuqta7kkfvy7gkE77HbYHr37INKPXcjG4+lkcHLi87fM7osdbtxDliicAZXyNJaGndm2253cOnQkBr47idi8pTxAxtRz8llbdqnFUnnbGGTVt+2a6Qbg7EdOXfm3B7t9g3otcAao07p+5g71O1nKlixH2rmf0DoA3tI3AHfcczdiOh3QRdzU1TWOh9e0ZsRJXOH8Kx9mGyWSNe9sAfzDYkEbPHegqOm9WagwWmODOEw+ObZrZfHMbZ/pGNdII6ReI2l3zeoDifq2Heg7fGXOja57ORxAJbvvsfUg9IKNVaKPHW5FAOVmV09HYsN9BkgnLGu/aWy7H6mt9SC8oCAgICAgICAgICAgICAgICAgICAgICAgICAgICAgICAgICAgICAgICAgICAgICAgICAgICAgICCjamkGP4w6SvzkNr3qN7GNce4TuMMzBv9bYZP3gILygqfFfRrdcaRfiWXDQvQTx3MfbDObsLMTuZjiPSPQfqJQeW5DXFjTzqj9PVqeddF2Zs+FtfSZIRt2o2/pC0HryloPo3Hegq2f4bXMPwu0zp/SbI8hb07lauS5LEoiN58chdLu7qGueXuI36DuQbuFwWqZ+KOb1HkcTVo0crg4KTQLgkkhkY6UkOAGx+eOoO37UFE1NjtS6c/B1wOBzOFihv4jLYutC2O417bZZbZs4HbzA7p39Rudx0QdUpYW/nNaYvV2bofJhxVSeClTMzZZOeYs7SR7m+aNmsDWgE/OcT6AA5xDofX0PCuhoVuDovdhs1DZhuHINDbkDLnb7tbyksdy9CHfu3QXirh9R0ONF3UUeKhsYrL4mrWmmFsNdUkhfISC0jd4Ik6EekddkGTi9hs7mX6WOExrbnyZnq+Ss81hsW0cXNu1u/e483TuHQ7kINDiHprPnX2F1zg8LRzpr0ZMfexVuVkbjG97Xtkie4Foe1w677bg96DNrDTlnUuGxuNz+iqNzHPbK+atTtNZPj5wW9jJFIeTqBzhxaRsdttxughI9Ia5xD+HeacGalyen61upkWSWxHJIyw1oa8SPGzizkaCT1d1KDb07pnVmPxfEiK3iarptQXrFqi2G4CHCSBkQDiQOXbl3J/7INGPSGraWC4V2IcPDYvaTJgvU/DGN52uqmAyMeehAOztu/ZB2GMvMbTI0NeQOZoO4B9W/pQekFGpuF/jpfmg86PEYCOrYcO4SzzdoGftDIgT9T2oLygICAgICAgICAgICAgICAgICAgICAgICAgICAgICAgICAgICAgICAgICAgICAgICAgICAgICAgIITW+nK2qdPy4ueeWpKHsnqW4f6yrYjIdHKz62uAO3cRuD0JQVrGcQDhHNxHEiFuCyMfmNyJaRjr3qfHL3Rk95jeQ4ejmHVBZGax0i9gezVODc0jcEZCIg//ABIPXjdpT6T4T7fF95A8btKfSfCfb4vvIHjdpT6T4T7fF95BX9bu0Bq+hBRy2rKTa8E7LDW1suyLeRjg5jiWu3PKQCPrQTlfVWlIYI4vGvES8jQ3nkyERc7b0k796DJ43aU+k+E+3xfeQPG7Sm2/jPhdv/7+L7yB43aU+k+E+3xfeQPG7Sn0nwn2+L7yD543aT+k+E+3xfeQffG7Sn0nwn2+L7yD543aT+k+E+3xfeQPG7Sf0nwn2+L7yA7V+kmtLnaowgA6km/F0/8AiQV7J8RKuQdJi9ARM1Pl3btEkDiaNU/nzzjzQB38rSXn0D0oJvQWmhpnDyQz23ZDJ3J3W8lee3ldZsO25nbfktAAa1v5LWtHoQWFAQEBAQEBAQEBAQEBAQEBAQEBAQEBAQEBAQEBAQEBAQEBAQEBAQEBAQEBAQEBAQEBAQEBAQEBAQEHiaKOaN0U0bJI3DZzXDcEfWEES7SelXOLnaawpJ7yaMXX/wCFB88UdKfRjC/YIvuoHijpT6MYX7BF91A8UdKfRjC/YIvuoHijpT6MYX7BF91A8UdKfRjC/YIvuoNTL4PQ2IxljJ5PB4CpSrML5p5aUTWRt9JJ5egQVW1pzS7+NOGjjwOGdVk01el5W1IyxxFmps7u2PQnY+on1oLTh8LoPMUGZDFYXT12o9zmsmhpxOY4tcWu2Ib12II/cg3PFHSn0Ywv2CL7qB4o6U+jGF+wRfdQPFHSn0Ywv2CL7qB4o6U+jGF+wRfdQPFHSn0Ywv2CL7qANJaVB3GmcKCOv/4CL7qCWrwQ1oWw14Y4YmjZrGNDWgfUAgyICAgICAgICAgICAgICAgICAgICAgICAgICAgICAgICAgICAgICAgICAgICAgICAgICAgICAgICAgICAgICAgICCkZXXlO9dtYPTGDt6tsxEw2xW5G04T3OZLPIQzf1sbzOHpCDjs+g9cHPRR18lpqlgWQS1Bp8Z9/bNrSvjkkqtsdjzNjLom9A3drS5oO22wdbxOt6eCFPC6n01Y0fEA2CpK4skxx7g1jZ4/NZ6gHhm/oQX4HcbjuQEBAQEBAQEBAQEBAQEBAQEBAQEBAQEBAQEBAQEBAQEBAQEBAQEBAQEBAQEBAQEBAQEBAQEBAQEBAQEBAQEBAQEBAQEBAQEHNuKWbF2/Y0u3KSYnEUaJyOpslE/lfBVPMGQMcOrXy8r9yOoY07dXNKD8ccV+Nec1KPkDSxdpnSNUdlTx1E9kXxjuMhb1JPfy937T1MHJy5xdzEkuJ3JJ6qDp3CnjPqbRkoxuRldqDTM4MdzE3ndrG6M9HcnNvynb0dx9IVo/YvCnUFSlbxeJx16S9pLPVXWtM2JXEvrlg3lovJ6nlG7mb9QGvafmBUdVQEBAQEBAQEBAQEBAQEBAQEBAQEBAQEBAQEBAQEBAQEBAQEBAQEBAQEBAQEBAQEBAQEBAQEBAQEBAQEBAQEBAQEBAQEBAQfkf8JLNWavCLUFiNzhNqTWU9aw/fr2FXeJjP2f0DT+8+tB+TlkEBB+m/wbMxYm4L5Vj5SX6W1Hj8nTJ/8tskrWStHqBZ2o/5yrg/ZyoICAgICAgICAgICAgICAgICAgICAgICAgICAgICAgICAgICAgICAgICAgICAgICAgICAgICAgICAgICAgICAgICAgICAg/Kv4Q+m7GR4Z6zw8MZdd0zqI5tkbe99K00vLx9Qc+Xc//AMpyD8gLIICD9U/g56ctVOD1atLG5trWuo6sddhHU1KzxLLJ+zljlG/1t9YWh+wEBAQEBAQEBAQEBAQEBAQEBAQEBAQEBAQEBAQEBAQEBAQEBAQEBAQEBAQEBAQEBAQEBAQEBAQEBAQEBAQEBAQEBAQEBAQEFJ4iafyDr9bVunasVvK04XVrdCRwazKUnHd8DiegeD5zCegO4PRxQfk/iDwHbn5reoeEbxeqB58LwFh3Y3sbJ6Yyx5B2HoB6+rmHVSDlb+GHEZl3wJ2htRdvvty/J8hH+O2yQdK0JwBs0BBqHixabp3DNeOTHh3Pevu36RMY3cgu6DYbu69AO8IP1jw407dkyTdV5rGtxTo6go4TDjb/AMLp9CQ7bp2z+Vpdt0aGtbudiTRf0BAQEBAQEBAQEBAQEBAQEBAQEBAQEBAQEBAQEBAQEBAQEBAQEBAQEBAQEBAQEBAQEBAQEBAQEBAQEBAQEBAQEBAQEBAQEBBW9T6H03qK4zIXaT4MnE3liyNOZ9a0weoSxkO2+okj6kEZ4g3wOzbxI1u2D+y8Jqnp6ucwGT/4t0EhpzQmm8JkflWKpNey3KW/KORsPtWQD3gPkJLR9Tdggs6AgICAgICAgICAgICAgICAgICAgICAgICAgICAgICAgICAgICAgICAgICAgICAgICAgICAgICAgICAgICAgICAgICAgICAgICAgICAgICAgICAgICAgICAgICAgICAgICAgICAgICAgICAgICAgICAgICAgICAgICAgICAgICAgICAgICAgICAgICAgICAgICAgICAgICAgICAgICAgICAgICAgICAgICAgICAgICAgICAgICAgICAgICAgICAgICD/9k=;fontFamily=Helvetica;" vertex="1" parent="1">
          <mxGeometry x="241" y="325" width="345" height="520" as="geometry" />
        </mxCell>
        <mxCell id="PMXdnqWy6KDKmBKf0Zv8-2" value="" style="ellipse;shape=doubleEllipse;whiteSpace=wrap;html=1;aspect=fixed;fontFamily=Helvetica;fillColor=#000000;strokeWidth=3;strokeColor=#FAFAFA;" vertex="1" parent="1">
          <mxGeometry x="254" y="985" width="50" height="50" as="geometry" />
        </mxCell>
        <mxCell id="PMXdnqWy6KDKmBKf0Zv8-3" value="" style="ellipse;shape=doubleEllipse;whiteSpace=wrap;html=1;aspect=fixed;fontFamily=Helvetica;fillColor=#000000;strokeWidth=0;strokeColor=none;" vertex="1" parent="1">
          <mxGeometry x="254" y="905" width="50" height="50" as="geometry" />
        </mxCell>
        <mxCell id="PMXdnqWy6KDKmBKf0Zv8-4" value="" style="shape=flexArrow;endArrow=classic;html=1;rounded=0;fontFamily=Helvetica;" edge="1" parent="1">
          <mxGeometry width="50" height="50" relative="1" as="geometry">
            <mxPoint x="354" y="930" as="sourcePoint" />
            <mxPoint x="424" y="930" as="targetPoint" />
          </mxGeometry>
        </mxCell>
        <mxCell id="PMXdnqWy6KDKmBKf0Zv8-5" value="" style="shape=flexArrow;endArrow=classic;html=1;rounded=0;fontFamily=Helvetica;" edge="1" parent="1">
          <mxGeometry width="50" height="50" relative="1" as="geometry">
            <mxPoint x="354" y="1009.5" as="sourcePoint" />
            <mxPoint x="424" y="1009.5" as="targetPoint" />
          </mxGeometry>
        </mxCell>
        <mxCell id="PMXdnqWy6KDKmBKf0Zv8-6" value="Camera live/Image Input" style="rounded=0;whiteSpace=wrap;html=1;strokeColor=#000000;strokeWidth=1;fontFamily=Helvetica;fillColor=default;" vertex="1" parent="1">
          <mxGeometry x="453" y="900" width="120" height="60" as="geometry" />
        </mxCell>
        <mxCell id="PMXdnqWy6KDKmBKf0Zv8-7" value="Cloud Mobile Application&amp;nbsp;" style="rounded=0;whiteSpace=wrap;html=1;strokeColor=#000000;strokeWidth=1;fontFamily=Helvetica;fillColor=default;" vertex="1" parent="1">
          <mxGeometry x="454" y="980" width="120" height="60" as="geometry" />
        </mxCell>
      </root>
    </mxGraphModel>
  </diagram>
</mxfile>
